<?xml version="1.0" encoding="UTF-8" standalone="no"?>
<!-- Created with Inkscape (http://www.inkscape.org/) -->

<svg
   xmlns:dc="http://purl.org/dc/elements/1.1/"
   xmlns:cc="http://creativecommons.org/ns#"
   xmlns:rdf="http://www.w3.org/1999/02/22-rdf-syntax-ns#"
   xmlns:svg="http://www.w3.org/2000/svg"
   xmlns="http://www.w3.org/2000/svg"
   xmlns:sodipodi="http://sodipodi.sourceforge.net/DTD/sodipodi-0.dtd"
   xmlns:inkscape="http://www.inkscape.org/namespaces/inkscape"
   width="254mm"
   height="84mm"
   viewBox="0 0 899.99995 297.6378"
   id="svg2"
   version="1.1"
   inkscape:version="0.91 r13725"
   inkscape:export-filename="/home/iki/codefiles/k_thesis/01_latex_thesis/media/rwulogo.png"
   inkscape:export-xdpi="145.02786"
   inkscape:export-ydpi="145.02786"
   sodipodi:docname="rwulogo.svg">
  <defs
     id="defs4" />
  <sodipodi:namedview
     id="base"
     pagecolor="#ffffff"
     bordercolor="#666666"
     borderopacity="1.0"
     inkscape:pageopacity="0.0"
     inkscape:pageshadow="2"
     inkscape:zoom="1.4"
     inkscape:cx="455.58272"
     inkscape:cy="213.37608"
     inkscape:document-units="px"
     inkscape:current-layer="g3346"
     showgrid="false"
     inkscape:window-width="1855"
     inkscape:window-height="1176"
     inkscape:window-x="1985"
     inkscape:window-y="24"
     inkscape:window-maximized="1" />
  <metadata
     id="metadata7">
    <rdf:RDF>
      <cc:Work
         rdf:about="">
        <dc:format>image/svg+xml</dc:format>
        <dc:type
           rdf:resource="http://purl.org/dc/dcmitype/StillImage" />
        <dc:title></dc:title>
      </cc:Work>
    </rdf:RDF>
  </metadata>
  <g
     inkscape:label="Layer 1"
     inkscape:groupmode="layer"
     id="layer1"
     transform="translate(0,-754.72441)">
    <g
       transform="matrix(1.25,0,0,-1.25,759.68752,921.63701)"
       inkscape:label="ink_ext_XXXXXX"
       id="g3344">
      <g
         transform="scale(0.1,0.1)"
         id="g3346">
        <rect
           style="opacity:1;fill:#ffffff;fill-opacity:1;stroke:none;stroke-width:32.56368256;stroke-miterlimit:4;stroke-dasharray:none;stroke-dashoffset:0;stroke-opacity:1"
           id="rect3536"
           width="7200"
           height="2381.1025"
           x="-6077.5005"
           y="-1335.3009"
           transform="scale(1,-1)"
           inkscape:export-xdpi="90"
           inkscape:export-ydpi="90" />
        <path
           inkscape:connector-curvature="0"
           id="path3348"
           style="fill:#5b4697;fill-opacity:1;fill-rule:nonzero;stroke:none"
           d="m -3273.5268,892.08192 15.4467,0 c 2.6133,0.45478 4.8963,-1.77071 4.5174,-4.42195 l 0,-230.60009 c 0.3789,-2.64157 -1.9041,-4.87674 -4.5174,-4.46067 l -15.4467,0 c -2.5841,-0.33866 -4.7797,1.8578 -4.4397,4.46067 l 0,103.53394 c 0.1555,1.01599 -0.68,1.84813 -1.6709,1.73202 l -108.8359,0 c -1.059,0.19352 -1.9333,-0.71603 -1.7876,-1.73202 l 0,-103.53394 c 0.3789,-2.60287 -1.8167,-4.79933 -4.4397,-4.46067 l -15.6312,0 c -2.6231,-0.33866 -4.8186,1.8578 -4.4786,4.46067 l 0,230.41624 c -0.5343,2.64157 1.7487,5.02188 4.4786,4.6058 l 15.4466,0 c 2.5745,0.37737 4.7798,-1.80942 4.4397,-4.42195 l 0,-102.4599 c -0.4566,-1.21919 0.7189,-2.41903 1.9722,-1.97392 l 108.7581,0 c 0.9521,-0.0677 1.7876,0.7257 1.671,1.70299 l 0,102.54698 c -0.5343,2.68027 1.7875,5.09929 4.5174,4.6058 z"
           inkscape:export-xdpi="90"
           inkscape:export-ydpi="90" />
        <path
           inkscape:connector-curvature="0"
           id="path3350"
           style="fill:#5b4697;fill-opacity:1;fill-rule:nonzero;stroke:none"
           d="m -3145.1445,659.85626 c -12.0659,6.31847 -22.0139,15.99454 -28.6104,27.89612 -6.985,12.70467 -10.4823,27.02525 -10.1326,41.50066 l 0,86.06863 c -0.3497,14.4754 3.1476,28.79599 10.1326,41.50066 6.5576,11.94027 16.5445,21.69375 28.6104,28.00255 13.2414,6.84097 28.008,10.28565 42.9204,9.94699 14.9512,0.29996 29.747,-3.10602 43.0661,-9.94699 12.1436,-6.27009 22.1305,-15.94616 28.7658,-27.85741 6.985,-12.69501 10.4823,-27.02526 10.1326,-41.50066 l 0,-86.29118 c 0.3497,-14.47541 -3.1476,-28.79598 -10.1326,-41.50066 -6.6353,-11.86287 -16.6514,-21.53894 -28.7658,-27.81871 -13.3191,-6.80228 -28.1149,-10.19857 -43.0661,-9.93732 -14.9124,-0.29996 -29.679,3.13504 -42.9204,9.93732 z m 84.5487,26.57049 c 10.7738,11.1565 16.5056,26.27053 15.7867,41.73288 l 0,87.53941 c 0.68,15.49138 -5.0129,30.65379 -15.7867,41.87803 -23.7141,21.20026 -59.6592,21.20026 -83.3732,0 -10.7738,-11.22424 -16.5056,-26.38665 -15.8256,-41.87803 l 0,-87.53941 c 0.5344,-23.13548 14.6501,-43.80356 36.052,-52.80231 21.4019,-8.99873 46.1069,-4.65418 63.1468,11.06943 z"
           inkscape:export-xdpi="90"
           inkscape:export-ydpi="90" />
        <path
           inkscape:connector-curvature="0"
           id="path3352"
           style="fill:#5b4697;fill-opacity:1;fill-rule:nonzero;stroke:none"
           d="m -2918.3213,658.91769 c -11.8036,5.97013 -21.635,15.23013 -28.28,26.64789 -6.8684,12.05638 -10.3561,25.73835 -10.1326,39.60415 l 0,94.34167 c -0.2623,13.79809 3.2253,27.40264 10.1326,39.35258 6.7615,11.14683 16.5833,20.18429 28.28,25.9609 13.1248,6.54102 27.6195,9.79217 42.2695,9.45351 14.5723,0.26125 29.0281,-2.87379 42.2015,-9.22129 11.6481,-5.70888 21.4408,-14.59151 28.2703,-25.63191 6.9073,-11.67901 10.395,-25.09005 10.0938,-38.66557 0,-2.04165 -1.4378,-3.25116 -4.4397,-3.70594 l -15.4467,-1.09339 -1.0201,0 c -0.8354,0 -1.6709,0.27093 -2.3898,0.75473 -0.6509,0.41607 -1.0298,0.87085 -1.0298,1.36433 l 0,2.04165 c 0.6509,14.51411 -4.974,28.61214 -15.4467,38.74298 -23.6752,19.53599 -57.9784,19.53599 -81.6633,0 -10.4338,-10.09214 -16.049,-24.11277 -15.4467,-38.59784 l 0,-95.88985 c -0.6023,-14.47539 5.0129,-28.49602 15.4467,-38.58816 23.6849,-19.50695 57.9881,-19.50695 81.6633,0 10.5115,10.13084 16.1267,24.26759 15.4467,38.82039 0,2.75768 1.4864,4.00589 4.4397,3.77367 l 15.4467,-0.71604 c 3.0019,0 4.4397,-0.5225 4.4397,-1.66428 l 0,-1.77072 c 0.34,-13.75936 -3.1476,-27.40263 -10.0938,-39.31387 -6.713,-11.22424 -16.5444,-20.29072 -28.2703,-26.11571 -26.7937,-12.39505 -57.687,-12.39505 -84.471,0 l 0,0.11612 z"
           inkscape:export-xdpi="90"
           inkscape:export-ydpi="90" />
        <path
           inkscape:connector-curvature="0"
           id="path3354"
           style="fill:#5b4697;fill-opacity:1;fill-rule:nonzero;stroke:none"
           d="m -2586.0818,892.08192 15.4856,0 c 2.5744,0.37737 4.7797,-1.80942 4.4397,-4.42195 l 0,-230.60009 c 0.34,-2.60287 -1.8653,-4.79933 -4.4397,-4.46067 l -15.4856,0 c -2.623,-0.41607 -4.8574,1.8191 -4.5174,4.46067 l 0,103.53394 c 0.1554,1.01599 -0.6509,1.84813 -1.671,1.73202 l -108.7581,0 c -1.0298,0.19352 -1.943,-0.71603 -1.7487,-1.73202 l 0,-103.53394 c 0.34,-2.60287 -1.8556,-4.79933 -4.4786,-4.46067 l -15.4467,0 c -2.5744,-0.33866 -4.7797,1.8578 -4.4397,4.46067 l 0,230.41624 c -0.34,2.56416 1.8653,4.76062 4.4397,4.42196 l 15.4467,0 c 2.623,0.33866 4.8186,-1.8578 4.4786,-4.42196 l 0,-102.27605 c -0.1166,-0.98696 0.7577,-1.8191 1.7487,-1.66429 l 108.7581,0 c 0.991,-0.0774 1.7876,0.71603 1.671,1.66429 l 0,102.27605 c -0.5343,2.68027 1.8167,5.09929 4.5174,4.6058 z"
           inkscape:export-xdpi="90"
           inkscape:export-ydpi="90" />
        <path
           inkscape:connector-curvature="0"
           id="path3356"
           style="fill:#5b4697;fill-opacity:1;fill-rule:nonzero;stroke:none"
           d="m -2462.7124,657.78558 c -11.687,4.45099 -21.8196,12.24023 -29.1447,22.33237 -6.8295,9.90829 -10.356,21.65505 -10.1326,33.6824 l 0,9.55996 c -0.34,2.60286 1.8556,4.79932 4.4397,4.46066 l 14.5723,0 c 2.6231,0.33866 4.8186,-1.8578 4.4398,-4.46066 l 0,-8.20531 c -0.1555,-12.6563 5.994,-24.56754 16.4667,-31.74718 13.0179,-8.84393 28.5812,-13.14978 44.329,-12.35634 14.2712,-0.98696 28.4258,2.94152 40.1517,11.10812 8.9862,7.14094 14.0768,18.14264 13.698,29.5991 0.1845,7.32479 -2.0499,14.55281 -6.3439,20.48424 -5.3043,6.60876 -11.9104,12.09509 -19.3909,16.10097 -12.0659,6.57974 -24.5495,12.39506 -37.3732,17.42661 -13.6688,5.2154 -27.0171,11.22424 -39.9962,17.9104 -9.0737,4.79933 -16.9719,11.57259 -23.0437,19.80692 -6.1009,9.03744 -9.1805,19.76821 -8.7239,30.61508 -0.9132,17.23308 6.6061,33.86624 20.1098,44.63571 13.3191,10.58562 31.8454,15.91713 55.3748,15.91713 25.1908,0 45.116,-5.93142 59.7272,-17.80396 14.3489,-11.41777 22.4317,-28.87339 21.8585,-47.17085 l 0,-6.54101 c 0.3789,-2.56417 -1.8556,-4.76063 -4.4397,-4.42197 l -15.0678,0 c -2.6133,-0.33866 -4.8186,1.8578 -4.4786,4.42197 l 0,5.18637 c 0.272,12.61759 -5.4209,24.63527 -15.4467,32.4245 -12.6293,9.18259 -28.076,13.68196 -43.717,12.70468 -13.1636,0.86118 -26.2593,-2.65124 -37.2274,-9.947 -8.8017,-6.98612 -13.6591,-17.83299 -12.9014,-29.0282 -0.2623,-7.29576 1.9721,-14.47541 6.3827,-20.32943 4.9254,-5.9411 11.1527,-10.70172 18.2057,-13.9916 7.8593,-4.00588 20.003,-9.18259 36.4308,-15.53008 13.8923,-5.48634 27.4057,-11.91124 40.4237,-19.1683 9.7149,-5.39925 18.1377,-12.81111 24.705,-21.77115 6.4118,-9.02777 9.7537,-19.83594 9.5594,-30.91504 0.5343,-17.68786 -7.2862,-34.58228 -21.1396,-45.66137 -14.0769,-11.4468 -33.6621,-17.27179 -58.8917,-17.27179 -14.8443,-0.26125 -29.6012,2.41902 -43.4158,7.94405 z"
           inkscape:export-xdpi="90"
           inkscape:export-ydpi="90" />
        <path
           inkscape:connector-curvature="0"
           id="path3358"
           style="fill:#5b4697;fill-opacity:1;fill-rule:nonzero;stroke:none"
           d="m -2243.253,658.91769 c -11.8425,5.97013 -21.674,15.23013 -28.3481,26.64789 -6.8296,12.09508 -10.3269,25.77705 -10.1326,39.60415 l 0,94.34167 c -0.2332,13.79809 3.2642,27.40264 10.1326,39.35258 6.7907,11.18554 16.6222,20.18429 28.3481,25.9609 13.0859,6.54102 27.5514,9.79217 42.2014,9.45351 14.5724,0.29996 29.0281,-2.87379 42.1529,-9.22129 11.7259,-5.82499 21.5962,-14.81406 28.3481,-25.97057 6.7615,-11.64031 10.1715,-24.9062 9.8703,-38.32691 0,-2.04165 -1.5544,-3.25116 -4.4785,-3.70594 l -15.4467,-1.09339 -0.9812,0 c -0.8744,-0.0387 -1.7487,0.23223 -2.4287,0.75473 -0.7287,0.41607 -1.0298,0.87085 -1.0298,1.36433 l 0,2.04165 c 0.68,14.51411 -4.9741,28.61214 -15.4467,38.74298 -23.6752,19.53599 -57.9785,19.53599 -81.6634,0 -10.4338,-10.09214 -16.049,-24.11277 -15.4466,-38.59784 l 0,-95.88985 c -0.6024,-14.47539 5.0128,-28.49602 15.4466,-38.58816 11.1236,-10.05344 25.8028,-15.26884 40.7929,-14.5141 15.0289,-0.67733 29.6789,4.53807 40.8705,14.5141 10.5115,10.13084 16.1267,24.26759 15.4467,38.82039 0,2.75768 1.4863,4.00589 4.4397,3.77367 l 15.4467,-0.71604 c 2.9241,0 4.4785,-0.5225 4.4785,-1.66428 l 0,-1.77072 c 0.3012,-13.68196 -3.2253,-27.25749 -10.1326,-39.08164 -6.7519,-11.26295 -16.5833,-20.3391 -28.3481,-26.15442 -26.7548,-12.36601 -57.6481,-12.36601 -84.3932,0 l 0.3012,-0.0774 z"
           inkscape:export-xdpi="90"
           inkscape:export-ydpi="90" />
        <path
           inkscape:connector-curvature="0"
           id="path3360"
           style="fill:#5b4697;fill-opacity:1;fill-rule:nonzero;stroke:none"
           d="m -1911.0913,892.08192 15.4467,0 c 2.623,0.37737 4.8186,-1.80942 4.4786,-4.42195 l 0,-230.60009 c 0.34,-2.60287 -1.8556,-4.79933 -4.4786,-4.46067 l -15.4467,0 c -2.5744,-0.33866 -4.7797,1.8578 -4.4397,4.46067 l 0,103.53394 c 0.1555,1.01599 -0.7189,1.92554 -1.7389,1.73202 l -108.6902,0 c -1.1755,0 -1.7098,-0.56122 -1.7098,-1.73202 l 0,-103.53394 c 0.3788,-2.64157 -1.8944,-4.87674 -4.5175,-4.46067 l -15.6312,0 c -2.623,-0.33866 -4.8186,1.8578 -4.4786,4.46067 l 0,230.41624 c -0.5343,2.64157 1.7487,5.02188 4.4786,4.6058 l 15.4467,0 c 2.6133,0.45478 4.8963,-1.77071 4.5174,-4.42195 l 0,-102.4599 c -0.6121,-1.21919 0.6412,-2.49643 1.8944,-1.97392 l 108.7582,0 c 0.9909,-0.10644 1.8652,0.687 1.7487,1.70299 l 0,102.54698 c -0.5344,2.60286 1.7098,4.98317 4.3619,4.6058 z"
           inkscape:export-xdpi="90"
           inkscape:export-ydpi="90" />
        <path
           inkscape:connector-curvature="0"
           id="path3362"
           style="fill:#5b4697;fill-opacity:1;fill-rule:nonzero;stroke:none"
           d="m -1777.5893,659.44019 c -12.0658,6.00885 -22.1985,15.30754 -29.1446,26.84142 -7.053,12.2112 -10.5795,26.07701 -10.2784,40.13633 l 0,161.05818 c -0.3789,2.56416 1.8556,4.76062 4.4397,4.42196 l 15.4467,0 c 2.6133,0.41607 4.8963,-1.8191 4.5174,-4.42196 l 0,-161.6968 c -0.5343,-14.77536 5.1586,-29.10562 15.7479,-39.49771 23.9374,-20.3004 59.1248,-20.3004 83.0623,0 10.5892,10.35339 16.3598,24.72235 15.7867,39.49771 l 0,161.6968 c -0.3401,2.56416 1.8652,4.76062 4.4785,4.42196 l 15.4467,0 c 2.5842,0.33866 4.7797,-1.8578 4.4397,-4.42196 l 0,-161.05818 c 0.3012,-14.02062 -3.1865,-27.8961 -10.1326,-40.13633 -6.7519,-11.53388 -16.6999,-20.83257 -28.6492,-26.84142 -27.0171,-12.77241 -58.406,-12.77241 -85.4619,0 l 0.3011,0 z"
           inkscape:export-xdpi="90"
           inkscape:export-ydpi="90" />
        <path
           inkscape:connector-curvature="0"
           id="path3364"
           style="fill:#5b4697;fill-opacity:1;fill-rule:nonzero;stroke:none"
           d="m -1577.8608,657.05988 0,230.41624 c -0.3789,2.60286 1.8944,4.83803 4.5174,4.42196 l 15.4467,0 c 2.5744,0.33866 4.7797,-1.8578 4.4397,-4.42196 l 0,-211.93494 c -0.1555,-0.97729 0.68,-1.84814 1.6709,-1.73203 l 119.7652,0 c 2.6133,0.37737 4.8186,-1.8578 4.4785,-4.42195 l 0,-12.32732 c 0.3401,-2.60287 -1.8652,-4.79933 -4.4785,-4.46067 l -141.3225,0 c -2.623,-0.41607 -4.8963,1.8191 -4.5174,4.46067 z"
           inkscape:export-xdpi="90"
           inkscape:export-ydpi="90" />
        <path
           inkscape:connector-curvature="0"
           id="path3366"
           style="fill:#5b4697;fill-opacity:1;fill-rule:nonzero;stroke:none"
           d="m -1218.2156,870.31077 -124.8947,0 c -1.02,0.19352 -1.9332,-0.71603 -1.7486,-1.73201 l 0,-83.37869 c -0.1069,-0.98696 0.7674,-1.8191 1.7486,-1.66429 l 87.434,0 c 2.5842,0.37737 4.8186,-1.8578 4.4397,-4.42196 l 0,-12.32732 c 0.3789,-2.60285 -1.8555,-4.79932 -4.4397,-4.46066 l -87.434,0 c -1.02,0.19352 -1.9332,-0.71603 -1.7486,-1.73202 l 0,-85.05264 c -0.1846,-1.016 0.7286,-1.88684 1.7486,-1.73203 l 124.8947,0 c 2.6133,0.41608 4.8865,-1.8191 4.5077,-4.42195 l 0,-12.32732 c 0.3788,-2.64157 -1.8944,-4.87674 -4.5077,-4.46067 l -146.5297,0 c -2.6133,-0.33866 -4.8186,1.8578 -4.4689,4.46067 l 0,230.41624 c -0.3497,2.56416 1.8556,4.76062 4.4689,4.42196 l 146.5297,0 c 2.6133,0.41607 4.8865,-1.8191 4.5077,-4.42196 l 0,-12.36601 c 0.6897,-2.75769 -1.739,-5.28314 -4.5077,-4.79934 z"
           inkscape:export-xdpi="90"
           inkscape:export-ydpi="90" />
        <path
           inkscape:connector-curvature="0"
           id="path3368"
           style="fill:#5b4697;fill-opacity:1;fill-rule:nonzero;stroke:none"
           d="m -3299.5238,243.40791 -42.2695,92.94833 c -0.3109,1.05469 -1.2921,1.77072 -2.3899,1.73201 l -31.1945,0 c -1.1755,0.15482 -2.2052,-0.82246 -2.1275,-2.03198 l 0,-91.28403 c 0.4954,-3.36727 -2.4288,-6.27009 -5.8095,-5.82499 l -36.4309,0 c -3.4099,-0.4451 -6.2952,2.45772 -5.8386,5.82499 l 0,228.02625 c -0.4566,3.36727 2.4287,6.27977 5.8386,5.78629 l 96.4689,0 c 13.4357,0.26126 26.7159,-2.83509 38.6361,-9.07615 10.8515,-5.81532 19.8087,-14.65925 25.6862,-25.46742 6.2272,-11.53387 9.3748,-24.49981 9.1125,-37.57218 0.3789,-14.21414 -3.7208,-28.19606 -11.6578,-39.99119 -7.8497,-11.18554 -19.1967,-19.50696 -32.2535,-23.58058 -0.6412,-0.15482 -1.1755,-0.6096 -1.4086,-1.24822 -0.2623,-0.53218 -0.1069,-1.1708 0.3886,-1.51914 l 45.2325,-94.34168 c 0.7189,-0.86116 1.0978,-1.92553 1.0978,-3.05763 0,-1.0934 -0.5343,-2.11906 -1.399,-2.75769 -1.1075,-0.71602 -2.4287,-1.06436 -3.7985,-1.02565 l -38.743,0 c -3.0796,-0.14515 -5.9649,1.62558 -7.1404,4.46066 z m -77.9814,191.47974 0,-57.36942 c -0.1555,-1.24821 0.9132,-2.27387 2.1275,-2.11906 l 44.5914,0 c 8.6462,-0.33866 17.069,2.68028 23.5197,8.42786 6.033,5.63148 9.336,13.52715 9.0349,21.77115 0.34,8.38916 -2.9631,16.55576 -9.0349,22.40979 -6.3341,5.9024 -14.8346,9.03744 -23.5197,8.69878 l -44.5914,0 c -1.3698,0.15482 -2.1275,-0.49348 -2.1275,-1.8191 z"
           inkscape:export-xdpi="90"
           inkscape:export-ydpi="90" />
        <path
           inkscape:connector-curvature="0"
           id="path3370"
           style="fill:#5b4697;fill-opacity:1;fill-rule:nonzero;stroke:none"
           d="m -3048.3745,243.74657 -9.5983,31.48593 c -0.078,1.06437 -1.0298,1.85781 -2.0498,1.7804 l -84.1018,0 c -1.0201,0.0774 -1.9722,-0.71603 -2.0499,-1.7804 l -9.5983,-31.78588 c -0.7966,-2.9125 -3.5265,-4.87675 -6.5673,-4.76063 l -39.763,0 c -1.7098,-0.15482 -3.3808,0.57089 -4.4397,1.88684 -0.9521,1.32562 -1.1075,3.10602 -0.3789,4.57678 l 72.8617,227.99722 c 0.7966,2.90282 3.5265,4.90576 6.5575,4.79933 l 50.4397,0 c 3.0311,0.10643 5.7318,-1.89651 6.5284,-4.79933 l 72.8617,-227.99722 c 0.3012,-0.63862 0.4178,-1.36433 0.3789,-2.04165 0.039,-1.20951 -0.4566,-2.41902 -1.4087,-3.21246 -1.02,-0.87085 -2.3898,-1.32563 -3.7596,-1.20951 l -39.8019,0 c -2.9631,0.11611 -5.4695,2.19647 -6.1107,5.06058 z m -84.0921,70.7611 60.7861,0 c 1.3698,0 1.9721,0.79344 1.6709,2.41902 l -30.8156,104.20159 c 0,0.94825 -0.68,1.36432 -1.2532,1.36432 -0.5635,0 -1.0978,-0.41607 -1.5155,-1.36432 l -30.5436,-104.20159 c -0.2332,-1.62558 0.68,-2.41902 1.6709,-2.41902 z"
           inkscape:export-xdpi="90"
           inkscape:export-ydpi="90" />
        <path
           inkscape:connector-curvature="0"
           id="path3372"
           style="fill:#5b4697;fill-opacity:1;fill-rule:nonzero;stroke:none"
           d="m -2933.7679,243.74657 -69.6364,228.03594 c -0.3108,0.63861 -0.4177,1.32562 -0.3789,2.04164 0,2.94152 1.739,4.42196 5.1587,4.42196 l 40.035,0 c 3.0311,0.11612 5.7318,-1.88683 6.5284,-4.79932 l 44.9702,-164.72541 c 0,-0.93858 0.6412,-1.39335 1.3601,-1.39335 0.7675,0 1.1075,0.45477 1.4087,1.39335 l 44.2124,164.34804 c 0.7189,3.05764 3.4488,5.2154 6.5576,5.17669 l 38.7915,0 c 1.7002,0.11612 3.3323,-0.57089 4.4398,-1.88683 0.9034,-1.36432 1.0589,-3.10601 0.34,-4.57677 l -70.6661,-228.03594 c -0.7967,-2.90282 -3.5265,-4.86706 -6.5576,-4.79932 l -39.7727,0 c -3.1088,-0.18385 -5.9553,1.81909 -6.7907,4.79932 z"
           inkscape:export-xdpi="90"
           inkscape:export-ydpi="90" />
        <path
           inkscape:connector-curvature="0"
           id="path3374"
           style="fill:#5b4697;fill-opacity:1;fill-rule:nonzero;stroke:none"
           d="m -2606.6871,436.86157 -110.5457,0 c -1.1755,0.22254 -2.2441,-0.83214 -2.011,-2.01263 l 0,-52.34753 c -0.2331,-1.20951 0.8355,-2.2642 2.011,-2.04165 l 71.9485,0 c 3.3808,0.49348 6.2661,-2.41902 5.8095,-5.77662 l 0,-29.74423 c 0.4566,-3.40598 -2.4287,-6.27977 -5.8095,-5.82499 l -71.8028,0 c -1.2143,0.22254 -2.2344,-0.83215 -2.0109,-2.04165 l 0,-54.58271 c -0.2235,-1.1708 0.7966,-2.2255 2.0109,-2.00295 l 110.4,0 c 3.41,0.45477 6.2953,-2.45772 5.8387,-5.81531 l 0,-29.74424 c 0.4566,-3.40598 -2.4287,-6.27978 -5.8387,-5.825 l -155.1759,0 c -3.4196,-0.45478 -6.2952,2.41902 -5.8483,5.825 l 0,227.49406 c -0.4469,3.36727 2.4287,6.27977 5.8483,5.82499 l 155.1759,0 c 3.41,0.45478 6.2953,-2.45772 5.8387,-5.82499 l 0,-29.74423 c 0.4566,-3.39631 -2.4287,-6.2701 -5.8387,-5.81532 z"
           inkscape:export-xdpi="90"
           inkscape:export-ydpi="90" />
        <path
           inkscape:connector-curvature="0"
           id="path3376"
           style="fill:#5b4697;fill-opacity:1;fill-rule:nonzero;stroke:none"
           d="m -2553.4883,244.77224 0,227.64888 c -0.4955,3.40598 2.4287,6.27977 5.8095,5.82499 l 35.3719,0 c 2.8076,0.14515 5.4598,-1.32562 6.8296,-3.78334 l 86.0642,-142.15113 c 0.4177,-0.94826 0.952,-1.24822 1.5155,-1.02567 0.5732,0.23223 0.8743,0.79344 0.8743,1.66428 l 0,139.47087 c -0.4566,3.36727 2.4288,6.27977 5.8095,5.82499 l 35.5177,0 c 3.4196,0.49348 6.3729,-2.41901 5.8775,-5.82499 l 0,-227.64888 c 0.4954,-3.40598 -2.4579,-6.3088 -5.8775,-5.82499 l -34.9931,0 c -2.8464,0.0774 -5.4597,1.66428 -6.8684,4.16071 l -86.1031,143.55416 c -0.4954,0.87085 -1.02,1.20951 -1.5932,0.98696 -0.6023,-0.19352 -0.7966,-0.79344 -0.7966,-1.7417 l 0,-141.13514 c 0.4566,-3.36727 -2.4676,-6.27009 -5.8484,-5.82499 l -36.4308,0 c -3.1476,0 -5.5764,2.72864 -5.1586,5.82499 z"
           inkscape:export-xdpi="90"
           inkscape:export-ydpi="90" />
        <path
           inkscape:connector-curvature="0"
           id="path3378"
           style="fill:#5b4697;fill-opacity:1;fill-rule:nonzero;stroke:none"
           d="m -2279.6839,245.14961 c -12.6002,5.13799 -23.4129,13.83677 -31.1945,24.9449 -7.4805,11.1178 -11.3081,24.22888 -11.007,37.61089 l 0,5.78628 c -0.4566,3.39631 2.4676,6.2701 5.8484,5.81532 l 36.052,0 c 3.8665,0 5.8386,-1.50946 5.8386,-4.42196 l 0,-4.79933 c 0.078,-9.29871 4.7797,-17.95878 12.5225,-23.09678 9.5983,-6.64746 21.1396,-9.97603 32.7878,-9.40514 9.5983,-0.76441 19.1674,2.00295 26.9102,7.67313 5.6152,4.72191 8.8405,11.70804 8.724,19.0038 0.1165,5.18637 -1.8167,10.13084 -5.4598,13.79807 -4.2163,4.19941 -9.1514,7.55701 -14.5723,9.947 -6.1884,2.82541 -16.1656,6.76357 -29.8733,11.74674 -13.426,4.38327 -26.5217,9.75348 -39.1219,16.13969 -10.4726,5.37022 -19.6532,13.00464 -26.8325,22.34205 -7.4708,10.13084 -11.3081,22.48718 -10.9293,35.03704 -0.2623,12.81111 3.4585,25.36098 10.667,35.94659 7.4416,10.50822 17.72,18.67482 29.6401,23.58059 13.8535,5.70888 28.7269,8.46656 43.717,8.20531 16.0102,0.22255 31.9134,-2.9125 46.6412,-9.22129 12.9014,-5.48634 24.0152,-14.4367 32.1369,-25.85447 7.7427,-11.30165 11.7647,-24.76106 11.5024,-38.44302 l 0,-3.435 c 0.4566,-3.36728 -2.4287,-6.24107 -5.8484,-5.78629 l -36.4308,0 c -3.8277,0 -5.7998,1.1708 -5.7998,3.40597 l 0,3.3963 c 0.029,9.56964 -4.3717,18.5587 -11.8813,24.4611 -9.2194,7.17965 -20.7607,10.73077 -32.4477,10.09214 -8.9572,0.56122 -17.8754,-1.85779 -25.3462,-6.80227 -5.8872,-4.43164 -9.2291,-11.45646 -8.9571,-18.82963 -0.1943,-5.29281 1.6709,-10.50821 5.1586,-14.5141 4.4397,-4.53808 9.7537,-8.16661 15.6021,-10.58562 7.0142,-3.17375 17.7977,-7.28608 32.438,-12.31764 16.0199,-5.97013 28.7269,-11.14684 38.1018,-15.53009 9.8315,-4.80901 18.4486,-11.75642 25.2004,-20.3391 7.7817,-10.09214 11.7648,-22.56459 11.2305,-35.26927 0.1943,-12.91756 -3.6043,-25.54483 -10.8516,-36.28527 -7.7039,-10.88557 -18.3708,-19.35213 -30.7379,-24.37401 -30.0967,-11.64031 -63.4868,-11.64031 -93.5835,0 l 0.1554,0.37737 z"
           inkscape:export-xdpi="90"
           inkscape:export-ydpi="90" />
        <path
           inkscape:connector-curvature="0"
           id="path3380"
           style="fill:#5b4697;fill-opacity:1;fill-rule:nonzero;stroke:none"
           d="m -1955.3717,362.84931 c 0.068,-0.67732 0.4857,-1.24821 1.0978,-1.50946 21.4796,-10.70174 32.1757,-29.18303 32.1757,-55.37615 1.2532,-19.42955 -7.2085,-38.17209 -22.6552,-50.08334 -17.3799,-11.97897 -38.2475,-17.9104 -59.3482,-16.93311 l -87.434,0 c -3.4197,-0.4451 -6.2953,2.45772 -5.8484,5.82499 l 0,227.64888 c -0.4469,3.36727 2.4287,6.27977 5.8484,5.82499 l 84.4321,0 c 54.1994,0 81.3233,-21.77115 81.3233,-65.31346 1.4475,-20.56165 -10.016,-39.91379 -28.7949,-48.57387 -0.612,-0.22255 -0.9521,-0.87084 -0.7966,-1.50947 z m -93.3213,72.03834 0,-52.60879 c -0.1457,-1.20951 0.8744,-2.23517 2.0887,-2.08035 l 39.7728,0 c 8.9571,-0.63862 17.8754,1.92553 25.0838,7.25705 5.9553,5.09928 9.2195,12.62727 8.8795,20.44553 0.3788,8.01179 -2.8854,15.72361 -8.8795,21.05513 -7.1404,5.51536 -16.0587,8.28271 -25.0838,7.71182 l -39.7728,0 c -1.2143,0.19353 -2.0887,-0.45477 -2.0887,-1.78039 z m 69.3352,-146.11832 c 11.8425,12.31763 11.8425,31.74718 0,44.10352 -7.0239,5.52504 -15.8255,8.24401 -24.7438,7.67312 l -42.2015,0 c -1.2144,0.15482 -2.2733,-0.86116 -2.1178,-2.07067 l 0,-55.98574 c 0,-1.35466 0.7189,-2.00295 2.1178,-2.00295 l 42.2015,0 c 8.996,-0.4838 17.8365,2.45773 24.7438,8.20531 l 0,0.0774 z"
           inkscape:export-xdpi="90"
           inkscape:export-ydpi="90" />
        <path
           inkscape:connector-curvature="0"
           id="path3382"
           style="fill:#5b4697;fill-opacity:1;fill-rule:nonzero;stroke:none"
           d="m -1829.9136,246.20429 c -13.018,6.46362 -23.8695,16.55576 -31.2334,29.02821 -7.6262,13.04335 -11.4636,27.85741 -11.1624,42.9037 l 0,154.28492 c -0.4469,3.40598 2.4287,6.27977 5.8095,5.82499 l 36.4308,0 c 3.4197,0.45478 6.2953,-2.41901 5.8484,-5.82499 l 0,-154.50747 c -0.039,-22.30334 18.0988,-40.40727 40.5305,-40.40727 22.3831,0 40.5208,18.10393 40.4819,40.40727 l 0,154.50747 c -0.4468,3.40598 2.4288,6.27977 5.8484,5.82499 l 36.4308,0 c 3.3808,0.45478 6.2953,-2.41901 5.8095,-5.82499 l 0,-154.1301 c 0.6024,-15.00759 -2.963,-29.89906 -10.2492,-43.05852 -7.4027,-12.47245 -18.2542,-22.56459 -31.2722,-29.02821 -29.4458,-13.75936 -63.5257,-13.75936 -92.9715,0 l -0.3011,0 z"
           inkscape:export-xdpi="90"
           inkscape:export-ydpi="90" />
        <path
           inkscape:connector-curvature="0"
           id="path3384"
           style="fill:#5b4697;fill-opacity:1;fill-rule:nonzero;stroke:none"
           d="m -1514.7141,243.40791 -42.2014,92.94833 c -0.3401,1.01598 -1.2921,1.73201 -2.3899,1.73201 l -31.2722,0 c -1.1755,0.15482 -2.1567,-0.82246 -2.011,-2.03198 l 0,-91.28403 c 0.4566,-3.36727 -2.4287,-6.27009 -5.8387,-5.82499 l -36.4308,0 c -3.3808,-0.4451 -6.305,2.45772 -5.8484,5.82499 l 0,228.02625 c -0.4566,3.36727 2.4676,6.27977 5.8484,5.78629 l 96.3911,0 c 13.426,0.29996 26.716,-2.83509 38.6264,-9.07615 10.8904,-5.81532 19.8475,-14.65925 25.8028,-25.46742 6.1884,-11.53387 9.3068,-24.49981 9.0348,-37.57218 0.3789,-14.21414 -3.6819,-28.19606 -11.687,-39.99119 -7.8205,-11.22425 -19.1675,-19.50696 -32.2534,-23.58058 -0.6121,-0.19353 -1.1075,-0.6483 -1.331,-1.24822 -0.34,-0.45477 -0.34,-1.06436 0,-1.51914 l 45.3491,-94.34168 c 0.6412,-0.86116 0.991,-1.96424 0.991,-3.05763 0.029,-1.0934 -0.4566,-2.11906 -1.3698,-2.75769 -1.1367,-0.71602 -2.4676,-1.06436 -3.7986,-1.02565 l -38.7429,0 c -3.0019,-0.0387 -5.693,1.70299 -6.8685,4.46066 z m -77.8745,191.47974 0,-57.36942 c 0,-1.40302 0.6509,-2.11906 2.011,-2.11906 l 44.6302,0 c 8.6171,-0.33866 17.0787,2.68028 23.5294,8.42786 6.033,5.59277 9.336,13.52715 9.1126,21.77115 0.2623,8.42786 -3.0408,16.55576 -9.1126,22.40979 -6.3729,5.9411 -14.8346,9.07614 -23.5294,8.69878 l -44.6302,0 c -1.0978,0.18385 -2.079,-0.67732 -2.011,-1.8191 z"
           inkscape:export-xdpi="90"
           inkscape:export-ydpi="90" />
        <path
           inkscape:connector-curvature="0"
           id="path3386"
           style="fill:#5b4697;fill-opacity:1;fill-rule:nonzero;stroke:none"
           d="m -1378.8222,246.81389 c -13.0471,6.68616 -23.9472,16.97183 -31.4179,29.58942 -7.5874,13.382 -11.4636,28.5444 -11.1236,43.92936 l 0,76.5377 c -0.3012,15.45268 3.5362,30.69249 11.1236,44.14223 7.4027,12.66598 18.2931,22.90326 31.4179,29.52169 14.4946,7.21834 30.5145,10.76947 46.7189,10.46951 15.9713,0.29996 31.7968,-3.21246 46.1069,-10.3147 12.7848,-6.27976 23.6072,-15.91713 31.2722,-27.85739 7.4319,-11.71772 11.3081,-25.29325 11.1138,-39.12036 l 0,-0.6483 c 0.4955,-3.39629 -2.4287,-6.27009 -5.7998,-5.81531 l -36.4308,0 c -1.4864,-0.0774 -2.963,0.22255 -4.294,0.79343 -1.02,0.56122 -1.5544,1.24822 -1.5544,1.88684 l 0,2.38031 c 0.2235,9.97603 -3.7596,19.62308 -11.0069,26.49308 -16.9622,14.66892 -42.2306,14.36897 -58.8528,-0.63861 -7.5971,-8.0892 -11.619,-18.85866 -11.1624,-29.89906 l 0,-79.48891 c -0.4178,-11.18554 3.9442,-22.07112 12.027,-29.88938 8.2382,-7.71183 19.2452,-11.83383 30.5533,-11.45647 10.327,-0.53218 20.4887,2.83509 28.4647,9.45353 7.2861,6.68616 11.1915,16.24612 10.6572,26.1157 l 0,15.00759 c 0,1.39335 -0.6801,2.10938 -2.0499,2.10938 l -36.4308,0 c -3.4099,-0.52251 -6.373,2.41901 -5.8386,5.825 l 0,28.00254 c -0.4566,3.36727 2.4287,6.27977 5.8386,5.78629 l 80.1479,0 c 3.3807,0.49348 6.3049,-2.41902 5.8095,-5.78629 l 0,-43.54232 c 0.4177,-15.76231 -3.3808,-31.33111 -11.007,-45.16789 -7.1696,-12.54018 -17.9823,-22.63233 -31.0002,-29.02821 -14.4946,-6.90871 -30.4368,-10.39209 -46.4858,-10.05343 -16.2433,-0.33866 -32.302,3.32856 -46.7966,10.66303 z"
           inkscape:export-xdpi="90"
           inkscape:export-ydpi="90" />
        <path
           inkscape:connector-curvature="0"
           id="path3388"
           style="fill:#5b4697;fill-opacity:1;fill-rule:nonzero;stroke:none"
           d="m -1205.8486,325.09329 0,29.96679 c -0.4566,3.40598 2.4287,6.27977 5.8484,5.82499 l 108.7582,0 c 3.4099,0.45478 6.2952,-2.41901 5.8386,-5.82499 l 0,-29.74424 c 0.5344,-3.3963 -2.4287,-6.3088 -5.8386,-5.78629 l -108.7582,0 c -3.3031,-0.4451 -6.1496,2.27387 -5.8484,5.56374 z"
           inkscape:export-xdpi="90"
           inkscape:export-ydpi="90" />
        <path
           inkscape:connector-curvature="0"
           id="path3390"
           style="fill:#5b4697;fill-opacity:1;fill-rule:nonzero;stroke:none"
           d="m -994.77318,244.13362 -60.37802,227.64889 c -0.1554,0.53218 -0.1554,1.09339 0,1.66428 0,3.17375 1.8167,4.79932 5.4598,4.79932 l 39.1315,0 c 3.1088,0.22255 5.8776,-2.04164 6.1787,-5.17669 l 32.26314,-136.33581 c 0,-0.94826 0.68004,-1.40304 1.39894,-1.40304 0.71891,0 1.09779,0.45478 1.3698,1.40304 l 30.85449,136.33581 c 0.34002,3.09634 3.06991,5.36055 6.17867,5.17669 l 38.8207,0 c 3.22534,0.33867 6.11067,-1.96424 6.48955,-5.17669 l 33.66209,-136.33581 c 0,-0.94826 0.57318,-1.40304 1.1755,-1.40304 0.57318,0 0.95206,0.45478 1.13664,1.40304 l 30.93221,136.33581 c 0.34002,3.09634 3.0699,5.36055 6.18838,5.17669 l 37.45051,0 c 1.6321,0.14515 3.22535,-0.57089 4.21626,-1.88683 0.83548,-1.40303 1.02007,-3.06731 0.49546,-4.57677 L -826.9679,244.13362 c -0.37888,-3.21246 -3.2642,-5.52504 -6.48954,-5.18637 l -37.72292,0 c -3.22534,-0.33867 -6.14952,1.97391 -6.56726,5.18637 l -34.34214,145.14104 c 0,0.93858 -0.64118,1.35465 -1.36008,1.35465 -0.72862,0 -1.1075,-0.41607 -1.40866,-1.35465 l -31.87455,-145.14104 c -0.30117,-3.10602 -3.04076,-5.40893 -6.14953,-5.18637 l -35.02217,0 c -3.34193,-0.52251 -6.48955,1.81909 -6.86843,5.18637 z"
           inkscape:export-xdpi="90"
           inkscape:export-ydpi="90" />
        <path
           inkscape:connector-curvature="0"
           id="path3392"
           style="fill:#5b4697;fill-opacity:1;fill-rule:nonzero;stroke:none"
           d="m -572.03016,436.86157 -110.46801,0 c -1.1755,0.22254 -2.23442,-0.83214 -2.01098,-2.01263 l 0,-52.34753 c -0.22344,-1.20951 0.83548,-2.2642 2.01098,-2.04165 l 71.72503,0 c 3.38078,0.49348 6.29525,-2.41902 5.8095,-5.77662 l 0,-29.74423 c 0.48575,-3.40598 -2.42872,-6.27977 -5.8095,-5.82499 l -71.72503,0 c -1.1755,0.22254 -2.23442,-0.83215 -2.01098,-2.04165 l 0,-54.58271 c -0.22344,-1.1708 0.83548,-2.2255 2.01098,-2.00295 l 110.46801,0 c 3.41964,0.45477 6.30496,-2.45772 5.84836,-5.81531 l 0,-29.74424 c 0.4566,-3.40598 -2.42872,-6.27978 -5.84836,-5.825 l -155.13707,0 c -3.37107,-0.45478 -6.25639,2.41902 -5.79979,5.825 l 0,227.49406 c -0.4566,3.36727 2.42872,6.27977 5.79979,5.82499 l 155.13707,0 c 3.41964,0.45478 6.30496,-2.45772 5.84836,-5.82499 l 0,-29.74423 c 0.4566,-3.39631 -2.42872,-6.2701 -5.84836,-5.81532 z"
           inkscape:export-xdpi="90"
           inkscape:export-ydpi="90" />
        <path
           inkscape:connector-curvature="0"
           id="path3394"
           style="fill:#5b4697;fill-opacity:1;fill-rule:nonzero;stroke:none"
           d="m -518.82171,244.77224 0,227.64888 c -0.49546,3.40598 2.46758,6.31847 5.8775,5.82499 l 36.43084,0 c 3.41964,0.45478 6.30496,-2.41901 5.84836,-5.82499 l 0,-227.64888 c 0.4566,-3.36727 -2.42872,-6.27009 -5.84836,-5.82499 l -36.43084,0 c -3.40992,-0.48381 -6.37296,2.41901 -5.8775,5.82499 z"
           inkscape:export-xdpi="90"
           inkscape:export-ydpi="90" />
        <path
           inkscape:connector-curvature="0"
           id="path3396"
           style="fill:#5b4697;fill-opacity:1;fill-rule:nonzero;stroke:none"
           d="m -414.80439,244.77224 0,227.64888 c -0.4566,3.40598 2.46758,6.27977 5.83864,5.82499 l 35.33306,0 c 2.8076,0.0774 5.43062,-1.36432 6.86842,-3.78334 l 85.76305,-142.15113 c 0.49546,-0.94826 0.99092,-1.24822 1.59324,-1.02567 0.57318,0.23223 0.79662,0.79344 0.79662,1.66428 l 0,139.47087 c -0.4566,3.36727 2.42872,6.27977 5.84836,5.82499 l 36.43084,0 c 3.37107,0.45478 6.25639,-2.45772 5.79979,-5.82499 l 0,-227.64888 c 0.4566,-3.36727 -2.42872,-6.27009 -5.79979,-5.82499 l -34.99303,0 c -2.88533,0.0774 -5.49863,1.62558 -6.90729,4.16071 l -86.48194,143.55416 c -0.4566,0.87085 -0.95206,1.20951 -1.55439,0.98696 -0.57318,-0.19352 -0.87434,-0.79344 -0.87434,-1.7417 l 0.37888,-141.13514 c 0.4566,-3.36727 -2.42872,-6.27009 -5.83864,-5.82499 l -36.43084,0 c -3.38078,-0.37738 -6.22724,2.45772 -5.77064,5.82499 z"
           inkscape:export-xdpi="90"
           inkscape:export-ydpi="90" />
        <path
           inkscape:connector-curvature="0"
           id="path3398"
           style="fill:#5b4697;fill-opacity:1;fill-rule:nonzero;stroke:none"
           d="m -137.55117,246.81389 c -13.05681,6.68616 -23.9472,16.97183 -31.3888,29.58942 -7.62619,13.382 -11.49272,28.5444 -11.1527,43.92936 l 0,76.5377 c -0.30116,15.45268 3.52651,30.69249 11.1527,44.14223 7.36388,12.66598 18.29313,22.90326 31.3888,29.52169 29.36811,13.83678 63.447948,13.83678 92.825773,0 12.784795,-6.27009 23.597467,-15.91714 31.262514,-27.8574 7.4416055,-11.67902 11.3081315,-25.28358 11.1624081,-39.12035 l 0,-0.63862 c 0.4565998,-3.40598 -2.4675819,-6.27977 -5.8483633,-5.82499 l -36.4308348,0 c -1.476663,-0.0388 -2.963041,0.23222 -4.284266,0.79343 -1.029779,0.60959 -1.554383,1.24822 -1.554383,1.88683 l 0,2.41902 c 0.223443,9.947 -3.759662,19.54566 -11.006969,26.46405 -16.962197,14.65924 -42.240339,14.35929 -58.862519,-0.64829 -7.58733,-8.05049 -11.60929,-18.85866 -11.15269,-29.88939 l 0,-79.34376 c -0.41774,-11.18554 3.94424,-22.07112 12.02703,-29.88938 8.23823,-7.71183 19.23548,-11.83383 30.553331,-11.45647 10.317213,-0.53218 20.488702,2.83509 28.454911,9.45353 7.286167,6.68616 11.201267,16.24612 10.666949,26.1157 l 0,15.00759 c 0,1.39335 -0.680043,2.10938 -2.049842,2.10938 l -36.430835,0 c -3.419641,-0.52251 -6.372966,2.41901 -5.848362,5.825 l 0,28.00254 c -0.4566,3.36727 2.428721,6.27977 5.848362,5.78629 l 80.1478369,0 c 3.3807815,0.49348 6.2952482,-2.41902 5.8095038,-5.78629 l 0,-43.54232 c 0.4177402,-15.76231 -3.3807815,-31.33111 -10.9681097,-45.16789 -7.208448,-12.54018 -18.030835,-22.63233 -31.048787,-29.02821 -14.494614,-6.90871 -30.427033,-10.39209 -46.485745,-10.05343 -16.243293,-0.33866 -32.292293,3.32856 -46.786913,10.66303 z"
           inkscape:export-xdpi="90"
           inkscape:export-ydpi="90" />
        <path
           inkscape:connector-curvature="0"
           id="path3400"
           style="fill:#5b4697;fill-opacity:1;fill-rule:nonzero;stroke:none"
           d="m 189.03427,243.74657 -9.49145,31.48593 c -0.068,1.06437 -0.9812,1.85781 -2.04984,1.7804 l -84.09208,0 c -1.020064,0.0774 -1.933263,-0.71603 -2.010983,-1.7804 l -9.63717,-31.78588 c -0.796621,-2.9125 -3.526505,-4.87675 -6.567265,-4.76063 l -39.763042,0 c -1.70982,-0.15482 -3.380781,0.57089 -4.449419,1.88684 -0.825766,1.40303 -0.825766,3.14472 0,4.57678 l 72.861669,227.99722 c 0.79662,2.90282 3.53622,4.90576 6.56726,4.79933 l 50.40085,0 c 3.03104,0.10643 5.77064,-1.89651 6.56726,-4.79933 l 72.86167,-227.99722 c 0.30116,-0.63862 0.40803,-1.36433 0.37888,-2.04165 0.0291,-1.20951 -0.4566,-2.41902 -1.40866,-3.21246 -1.02006,-0.87085 -2.38986,-1.32563 -3.75966,-1.20951 l -39.8019,0 c -3.15734,-0.11612 -5.92608,2.00295 -6.64498,5.06058 l 0.0389,0 z m -84.09209,70.7611 60.75692,0 c 1.39895,0 1.89441,0.79344 1.67096,2.41902 l -30.89335,104.20159 c 0,0.94825 -0.57317,1.36432 -1.13664,1.36432 -0.61204,0 -1.10749,-0.41607 -1.56409,-1.36432 L 103.27122,316.92669 c -0.15544,-1.62558 0.41774,-2.41902 1.81669,-2.41902 l -0.14573,0 z"
           inkscape:export-xdpi="90"
           inkscape:export-ydpi="90" />
        <path
           inkscape:connector-curvature="0"
           id="path3402"
           style="fill:#5b4697;fill-opacity:1;fill-rule:nonzero;stroke:none"
           d="m 411.52466,243.40791 -42.16262,92.94833 c -0.37888,1.01598 -1.32122,1.73201 -2.42872,1.73201 l -31.22366,0 c -1.21436,0.15482 -2.20528,-0.82246 -2.04984,-2.03198 l 0,-91.28403 c 0.4566,-3.36727 -2.42872,-6.27009 -5.84836,-5.82499 l -36.43084,0 c -3.37106,-0.4451 -6.29524,2.45772 -5.79978,5.82499 l 0,228.02625 c -0.49546,3.36727 2.42872,6.27977 5.79978,5.78629 l 96.39114,0 c 13.43569,0.29996 26.71594,-2.83509 38.63611,-9.07615 10.89039,-5.81532 19.84752,-14.65925 25.80275,-25.46742 6.18838,-11.53387 9.29715,-24.49981 9.03484,-37.57218 0.37888,-14.21414 -3.68194,-28.19606 -11.69672,-39.99119 -7.81077,-11.22425 -19.15776,-19.50696 -32.25344,-23.58058 -0.60232,-0.19353 -1.09778,-0.6483 -1.33094,-1.24822 -0.34002,-0.45477 -0.34002,-1.06436 0,-1.51914 l 45.34911,-94.34168 c 0.6509,-0.86116 0.99092,-1.96424 0.99092,-3.05763 0.0389,-1.0934 -0.4566,-2.11906 -1.3698,-2.75769 -1.13664,-0.71602 -2.46758,-1.06436 -3.78881,-1.02565 l -38.75269,0 c -2.99219,-0.0387 -5.69293,1.70299 -6.86843,4.46066 z m -77.86484,191.47974 0,-57.36942 c 0,-1.40302 0.64119,-2.11906 2.04984,-2.11906 l 44.59135,0 c 8.60739,-0.33866 17.06906,2.68028 23.51974,8.42786 6.03295,5.59277 9.33601,13.52715 9.11257,21.77115 0.2623,8.42786 -3.04076,16.55576 -9.11257,22.40979 -6.37296,5.9411 -14.83463,9.07614 -23.51974,8.69878 l -44.59135,0 c -1.14635,0.18385 -2.12756,-0.67732 -2.04984,-1.8191 z"
           inkscape:export-xdpi="90"
           inkscape:export-ydpi="90" />
        <path
           inkscape:connector-curvature="0"
           id="path3404"
           style="fill:#5b4697;fill-opacity:1;fill-rule:nonzero;stroke:none"
           d="m 679.21844,472.42112 0,-30.27642 c 0.49545,-3.3576 -2.42873,-6.23139 -5.80951,-5.77661 l -59.38712,0 c -1.21436,0.22254 -2.27328,-0.83214 -2.04984,-2.04165 l 0,-189.5542 c 0.4566,-3.36727 -2.42872,-6.27009 -5.79979,-5.82499 l -36.43083,0 c -3.41964,-0.4451 -6.30497,2.45772 -5.84837,5.82499 l 0,189.69934 c 0,1.36432 -0.7189,2.04164 -2.12756,2.04164 l -57.59958,0 c -3.41964,-0.48379 -6.30496,2.41903 -5.84836,5.7863 l 0,30.1216 c -0.4566,3.40598 2.42872,6.27977 5.84836,5.82499 l 169.51511,0 c 3.30306,0.26126 5.99408,-2.57383 5.53749,-5.82499 z"
           inkscape:export-xdpi="90"
           inkscape:export-ydpi="90" />
        <path
           inkscape:connector-curvature="0"
           id="path3406"
           style="fill:#5b4697;fill-opacity:1;fill-rule:nonzero;stroke:none"
           d="m 884.78556,436.86157 -110.46805,0 c -1.39895,0 -2.12756,-0.6483 -2.12756,-2.01263 l 0,-52.34753 c 0,-1.35465 0.72861,-2.04165 2.12756,-2.04165 l 71.68621,0 c 3.41964,0.49348 6.29525,-2.41902 5.84837,-5.77662 l 0,-29.74423 c 0.44688,-3.40598 -2.42873,-6.27977 -5.84837,-5.82499 l -71.68621,0 c -1.39895,0 -2.12756,-0.63862 -2.12756,-2.04165 l 0,-54.58271 c 0,-1.35466 0.72861,-2.00295 2.12756,-2.00295 l 110.46805,0 c 3.38078,0.45477 6.30496,-2.45772 5.8095,-5.81531 l 0,-29.74424 c 0.49546,-3.40598 -2.42872,-6.27978 -5.8095,-5.825 l -155.13712,0 c -3.37106,-0.45478 -6.29524,2.41902 -5.83864,5.825 l 0,227.49406 c -0.4566,3.36727 2.46758,6.27977 5.83864,5.82499 l 155.13712,0 c 3.38078,0.45478 6.30496,-2.45772 5.8095,-5.82499 l 0,-29.74423 c 0.49546,-3.39631 -2.42872,-6.2701 -5.8095,-5.81532 z"
           inkscape:export-xdpi="90"
           inkscape:export-ydpi="90" />
        <path
           inkscape:connector-curvature="0"
           id="path3408"
           style="fill:#5b4697;fill-opacity:1;fill-rule:nonzero;stroke:none"
           d="m 937.95515,244.77224 0,227.64888 c -0.4566,3.40598 2.42872,6.27977 5.83865,5.82499 l 35.33305,0 c 2.84646,0.0774 5.46948,-1.36432 6.90729,-3.78334 l 85.76306,-142.15113 c 0.4566,-0.94826 0.9521,-1.24822 1.5544,-1.02567 0.5732,0.23223 0.8743,0.79344 0.8743,1.66428 l 0,139.47087 c -0.4954,3.36727 2.4287,6.27977 5.8095,5.82499 l 36.4309,0 c 3.4099,0.45478 6.2952,-2.45772 5.8386,-5.82499 l 0,-227.64888 c 0.4566,-3.36727 -2.4287,-6.27009 -5.8386,-5.82499 l -35.0319,0 c -2.8854,0.0774 -5.4598,1.66428 -6.8685,4.16071 l -86.10304,143.55416 c -0.4566,0.87085 -0.95206,1.20951 -1.55438,0.98696 -0.57318,-0.19352 -0.87434,-0.79344 -0.87434,-1.7417 l 0,-141.13514 c 0.49546,-3.40598 -2.46758,-6.3088 -5.87751,-5.82499 l -36.43084,0 c -3.38078,-0.37738 -6.22724,2.45772 -5.77064,5.82499 z"
           inkscape:export-xdpi="90"
           inkscape:export-ydpi="90" />
        <path
           inkscape:connector-curvature="0"
           id="path3410"
           style="fill:#00a8d7;fill-opacity:1;fill-rule:nonzero;stroke:none"
           d="m -3385.2091,-167.44767 c -12.9791,6.50135 -23.8307,16.59253 -31.1945,29.02821 -7.5874,13.04334 -11.4636,27.85644 -11.1527,42.903691 l 0,154.284925 c -0.4566,3.405977 2.4578,6.27977 5.8386,5.824995 l 36.4308,0 c 3.3808,0.454775 6.305,-2.419018 5.8484,-5.824995 l 0,-154.508442 c -0.9909,-22.911964 17.4188,-42.029944 40.4528,-42.029944 23.0729,0 41.434,19.11798 40.4917,42.029944 l 0,154.508442 c -0.4955,3.405977 2.4287,6.27977 5.7998,5.824995 l 36.4308,0 c 3.4196,0.454775 6.305,-2.419018 5.8484,-5.824995 l 0,-154.130108 c 0.4954,-15.047248 -3.1477,-29.939698 -10.5504,-43.058508 -7.4028,-12.43568 -18.2154,-22.52686 -31.1945,-29.02821 -29.4847,-13.72067 -63.5645,-13.72067 -93.0492,0 z"
           inkscape:export-xdpi="90"
           inkscape:export-ydpi="90" />
        <path
           inkscape:connector-curvature="0"
           id="path3412"
           style="fill:#00a8d7;fill-opacity:1;fill-rule:nonzero;stroke:none"
           d="m -3196.3031,-168.88069 0,227.649846 c -0.4566,3.405977 2.4676,6.27977 5.8483,5.824995 l 35.1388,0 c 2.9242,0.222549 5.7706,-1.248214 7.2862,-3.783344 l 85.7242,-142.151135 c 0.4566,-0.948255 0.952,-1.248212 1.5543,-1.025663 0.5732,0.232225 0.8744,0.793437 0.8744,1.664284 l 0,139.470863 c -0.4566,3.405977 2.4287,6.27977 5.8095,5.824995 l 36.0908,0 c 3.3711,0.454775 6.2952,-2.419018 5.7998,-5.824995 l 0,-227.649846 c 0.4954,-3.36728 -2.4287,-6.2701 -5.7998,-5.78629 l -35.3331,0 c -2.8853,0.0794 -5.4597,1.62558 -6.8684,4.12393 l -86.103,143.553204 c -0.4566,0.870846 -0.9521,1.209509 -1.5544,1.015987 -0.5732,-0.22255 -0.8744,-0.822466 -0.8744,-1.770721 l 0.6801,-141.13611 c 0.4566,-3.40501 -2.5065,-6.30784 -5.9164,-5.82403 l -36.4308,0 c -3.4197,-0.48381 -6.3827,2.41902 -5.9261,5.82403 z"
           inkscape:export-xdpi="90"
           inkscape:export-ydpi="90" />
        <path
           inkscape:connector-curvature="0"
           id="path3414"
           style="fill:#00a8d7;fill-opacity:1;fill-rule:nonzero;stroke:none"
           d="m -2956.7339,-168.88069 0,227.649846 c -0.4469,3.405977 2.4675,6.27977 5.8483,5.824995 l 36.4309,0 c 3.3807,0.454775 6.2952,-2.419018 5.8483,-5.824995 l 0,-227.649846 c 0.4469,-3.36728 -2.4676,-6.2701 -5.8483,-5.82403 l -36.4309,0 c -3.3808,-0.44607 -6.2952,2.45675 -5.8483,5.82403 z"
           inkscape:export-xdpi="90"
           inkscape:export-ydpi="90" />
        <path
           inkscape:connector-curvature="0"
           id="path3416"
           style="fill:#00a8d7;fill-opacity:1;fill-rule:nonzero;stroke:none"
           d="m -2793.7375,-169.90443 -69.6364,228.034966 c -0.272,0.63862 -0.4177,1.325622 -0.3788,2.04165 0,2.941526 1.7389,4.421965 5.1974,4.421965 l 39.7728,0 c 3.031,0.116112 5.7221,-1.886834 6.4895,-4.799331 l 44.9703,-164.72638 c 0,-0.9376 0.7189,-1.39045 1.36,-1.39045 0.6509,0 1.1755,0.45285 1.4087,1.39045 l 44.2805,164.349013 c 0.6509,3.057638 3.3807,5.215401 6.4895,5.176698 l 38.7527,0 c 1.739,0.14514 3.4099,-0.570889 4.5077,-1.886834 0.8355,-1.441734 0.8355,-3.183427 0,-4.576781 L -2741.18,-169.90443 c -0.7577,-2.90281 -3.4585,-4.90673 -6.4895,-4.80029 l -39.8505,0 c -2.9145,0.0378 -5.4598,2.00295 -6.1787,4.80029 l -0.039,0 z"
           inkscape:export-xdpi="90"
           inkscape:export-ydpi="90" />
        <path
           inkscape:connector-curvature="0"
           id="path3418"
           style="fill:#00a8d7;fill-opacity:1;fill-rule:nonzero;stroke:none"
           d="m -2466.7344,23.209602 -110.4291,0 c -1.2144,0.22255 -2.283,-0.832142 -2.0498,-2.012623 l 0,-52.347535 c -0.2332,-1.209509 0.8354,-2.2642 2.0498,-2.04165 l 71.6862,0 c 3.371,0.493479 6.2952,-2.419018 5.8386,-5.776614 l 0,-29.744237 c 0.4566,-3.405977 -2.4676,-6.279769 -5.8386,-5.824994 l -71.6862,0 c -1.2144,0.222549 -2.283,-0.832142 -2.0498,-2.041651 l 0,-54.582708 c -0.2332,-1.17177 0.8354,-2.22647 2.0498,-2.00294 l 110.4291,0 c 3.4488,0.49444 6.4119,-2.41903 5.9164,-5.81339 l 0,-29.74617 c 0.4955,-3.44371 -2.4676,-6.32041 -5.9164,-5.82499 l -155.0204,0 c -3.4197,-0.49542 -6.373,2.38128 -5.9261,5.82499 l 0,227.494066 c -0.4469,3.405977 2.5064,6.318474 5.9261,5.824995 l 155.0204,0 c 3.4488,0.493479 6.4119,-2.419018 5.9164,-5.824995 l 0,-29.744236 c 0.4955,-3.435005 -2.4676,-6.308798 -5.9164,-5.815318 z"
           inkscape:export-xdpi="90"
           inkscape:export-ydpi="90" />
        <path
           inkscape:connector-curvature="0"
           id="path3420"
           style="fill:#00a8d7;fill-opacity:1;fill-rule:nonzero;stroke:none"
           d="m -2287.2032,-170.24502 -42.1529,92.949289 c -0.3497,1.015987 -1.3309,1.732016 -2.4287,1.732016 l -31.2334,0 c -1.2144,0.154817 -2.2053,-0.822465 -2.0498,-2.031974 l 0,-91.285001 c 0.4566,-3.36728 -2.4288,-6.2701 -5.8484,-5.82403 l -36.4308,0 c -3.3711,-0.44607 -6.2953,2.45675 -5.7998,5.82403 l 0,228.027213 c -0.4955,3.367273 2.4287,6.279769 5.7998,5.78629 l 96.3911,0 c 13.4357,0.299958 26.7548,-2.835089 38.6361,-9.076153 10.8904,-5.815318 19.8087,-14.659246 25.725,-25.467415 6.1884,-11.533875 9.336,-24.4998078 9.1126,-37.5721771 0.3789,-14.2141459 -3.6819,-28.1960659 -11.6579,-39.9911949 -7.8496,-11.22424 -19.1966,-19.506955 -32.2923,-23.580581 -0.6411,-0.193522 -1.1366,-0.648296 -1.3698,-1.248212 -0.34,-0.454776 -0.34,-1.064368 0,-1.519144 l 45.32,-94.341676 c 0.6412,-0.86117 0.9812,-1.96521 1.0201,-3.05764 0,-1.09242 -0.4955,-2.12002 -1.399,-2.75962 -1.1463,-0.71409 -2.4287,-1.06146 -3.7985,-1.02372 l -38.743,0 c -2.963,0 -5.6249,1.74266 -6.8004,4.4597 z m -77.8648,191.480704 0,-57.369416 c 0,-1.40303 0.6411,-2.119059 2.0498,-2.119059 l 44.5913,0 c 8.6074,-0.338663 17.0691,2.680272 23.5198,8.427857 6.0427,5.592768 9.336,13.527144 9.1126,21.7711556 0.2623,8.42785643 -3.0408,16.5557552 -9.1126,22.4097774 -6.373,5.941106 -14.8346,9.076153 -23.5198,8.698786 l -44.5913,0 c -1.1366,0.183845 -2.1276,-0.677325 -2.0498,-1.819101 z"
           inkscape:export-xdpi="90"
           inkscape:export-ydpi="90" />
        <path
           inkscape:connector-curvature="0"
           id="path3422"
           style="fill:#00a8d7;fill-opacity:1;fill-rule:nonzero;stroke:none"
           d="m -2154.7213,-168.50236 c -12.6002,5.17863 -23.4517,13.83774 -31.2722,24.94588 -7.393,11.11683 -11.2304,24.26564 -10.9292,37.60797 l 0,5.78726 c -0.4566,3.398235 2.4287,6.270092 5.8483,5.817253 l 35.9743,0 c 3.9442,0 5.8483,-1.512371 5.8483,-4.422932 l 0,-4.800301 c 0.068,-9.29773 4.7798,-17.91911 12.5225,-23.09774 9.5983,-6.64455 21.1008,-9.9741 32.7878,-9.40321 9.6371,-0.76441 19.1966,2.00295 26.9782,7.67216 5.6152,4.72095 8.8406,11.70998 8.724,19.00477 0.1166,5.1854 -1.8556,10.171481 -5.5375,13.800007 -4.2065,4.198447 -9.1417,7.555075 -14.5723,9.945065 -6.1884,2.825411 -16.0879,6.763572 -29.8636,11.746747 -13.4357,4.421965 -26.5314,9.792182 -39.1219,16.139685 -10.4823,5.408922 -19.5852,13.004637 -26.7548,22.342043 -7.5582,10.092141 -11.4247,22.448481 -11.0069,35.03704759 -0.2721,12.77241141 3.4487,25.32227341 10.6669,35.94659741 7.4319,10.508212 17.7588,18.703843 29.7081,23.580581 13.8535,5.708882 28.727,8.505266 43.717,8.205307 16.049,0.22255 31.9523,-2.912496 46.7189,-9.221294 12.8626,-5.515359 23.9472,-14.436695 32.03,-25.854457 7.8108,-11.301649 11.8328,-24.7610616 11.5316,-38.4430239 l 0,-3.4350046 c 0.4566,-3.3672725 -2.4287,-6.2410645 -5.8386,-5.7862895 l -35.984,0 c -3.9442,0 -5.9164,1.170804 -5.9164,3.405976 l 0,3.3963008 c 0.039,9.53092836 -4.3231,18.5587014 -11.8035,24.4611032 -9.2195,7.140939 -20.7608,10.730761 -32.4089,10.092141 -8.996,0.561211 -17.9434,-1.857806 -25.4239,-6.802277 -5.8775,-4.460668 -9.1806,-11.4951707 -8.9183,-18.82963129 -0.1845,-5.29280991 1.6322,-10.46950671 5.1198,-14.51410371 4.4397,-4.538077 9.7537,-8.166603 15.6798,-10.58562 6.9753,-3.173751 17.7977,-7.286081 32.4089,-12.317637 16.0101,-5.970135 28.7269,-11.146831 38.1018,-15.530091 9.8217,-4.838035 18.4389,-11.756424 25.1907,-20.339098 7.7816,-10.09214 11.7259,-22.564593 11.1624,-35.268304 0.1846,-12.88949 -3.5751,-25.54773 -10.7835,-36.28526 -7.6651,-10.81011 -18.2834,-19.23506 -30.5825,-24.22017 -14.7666,-6.01755 -30.5922,-8.92037 -46.4857,-8.58461 -16.2822,-0.45284 -32.4866,2.53706 -47.5156,8.80716 z"
           inkscape:export-xdpi="90"
           inkscape:export-ydpi="90" />
        <path
           inkscape:connector-curvature="0"
           id="path3424"
           style="fill:#00a8d7;fill-opacity:1;fill-rule:nonzero;stroke:none"
           d="m -1972.1493,-168.88069 0,227.649846 c -0.4566,3.405977 2.4675,6.27977 5.8483,5.824995 l 36.4309,0 c 3.371,0.454775 6.2952,-2.419018 5.8386,-5.824995 l 0,-227.649846 c 0.4566,-3.36728 -2.4676,-6.2701 -5.8386,-5.82403 l -36.4309,0 c -3.3808,-0.44607 -6.3049,2.45675 -5.8483,5.82403 z"
           inkscape:export-xdpi="90"
           inkscape:export-ydpi="90" />
        <path
           inkscape:connector-curvature="0"
           id="path3426"
           style="fill:#00a8d7;fill-opacity:1;fill-rule:nonzero;stroke:none"
           d="m -1698.0826,58.769156 0,-30.27642 c 0.4566,-3.357597 -2.4676,-6.231389 -5.8484,-5.776614 l -59.7271,0 c -1.2144,0.222549 -2.2733,-0.832142 -2.0498,-2.041651 l 0,-189.555161 c 0.4566,-3.36728 -2.4288,-6.2701 -5.8387,-5.82403 l -36.4308,0 c -3.3808,-0.44607 -6.305,2.45675 -5.8095,5.82403 l 0,189.700303 c 0.1457,1.170804 -0.8744,2.196467 -2.0499,2.04165 l -57.8716,0 c -3.3808,-0.483803 -6.3049,2.419018 -5.8095,5.78629 l 0,30.121603 c -0.4954,3.405977 2.4287,6.27977 5.8095,5.824995 l 169.554,0 c 3.4876,0.599916 6.5673,-2.341609 6.0718,-5.824995 z"
           inkscape:export-xdpi="90"
           inkscape:export-ydpi="90" />
        <path
           inkscape:connector-curvature="0"
           id="path3428"
           style="fill:#00a8d7;fill-opacity:1;fill-rule:nonzero;stroke:none"
           d="m -1592.9675,-168.50236 0,84.404352 -0.6412,2.75768 -69.374,138.861272 c -0.6023,0.948255 -0.9424,1.973918 -1.0201,3.067314 -0.039,1.093396 0.4955,2.119059 1.399,2.757679 1.1075,0.71603 2.4287,1.093397 3.7596,1.015987 l 39.8117,0 c 2.9533,0.0387 5.6929,-1.693311 6.8295,-4.421963 l 41.8906,-88.894049 c 0.3109,-0.609593 0.8744,-0.98696 1.5544,-1.025663 0.5732,0 0.9521,0.348338 1.2241,1.025663 l 41.8129,88.894049 c 1.1755,2.728652 3.8762,4.460668 6.8684,4.421963 l 40.2293,0 c 3.41,0 5.0809,-1.393354 5.0809,-4.073624 0.039,-0.948255 -0.1845,-1.89651 -0.6411,-2.767356 l -70.0153,-139.093498 -0.7577,-2.757679 0,-84.394677 c 0.5634,-3.40597 -2.3899,-6.35814 -5.8095,-5.82499 l -36.4309,0 c -3.4876,-0.45381 -6.3729,2.61156 -5.7706,6.04754 z"
           inkscape:export-xdpi="90"
           inkscape:export-ydpi="90" />
        <path
           inkscape:connector-curvature="0"
           id="path3430"
           style="fill:#00a8d7;fill-opacity:1;fill-rule:nonzero;stroke:none"
           d="m -3383.3147,-581.09963 c -12.0659,6.35717 -22.0043,16.03324 -28.6492,27.89804 -6.9462,12.70371 -10.4338,27.02526 -10.1327,41.49776 l 0,86.07154 c -0.3011,14.4725 3.1865,28.79404 10.1327,41.49679 6.6449,11.8648 16.5833,21.54087 28.6492,27.89804 27.0948,13.22525 58.8625,13.22525 85.9573,0 12.2602,-6.28171 22.3928,-15.95778 29.1447,-27.89804 6.9461,-12.74145 10.4338,-27.02429 10.1326,-41.49679 l 0,-86.14799 c 0.3012,-14.47539 -3.1865,-28.75533 -10.1326,-41.50066 -6.7519,-11.94027 -16.8845,-21.61634 -29.1447,-27.85643 -27.0948,-13.26686 -58.8625,-13.26686 -85.9573,0 l 0,0.0378 z m 84.8207,26.64692 c 10.7349,11.19522 16.4278,26.27247 15.7089,41.73579 l 0,87.45812 c 0.7189,15.49332 -4.974,30.61605 -15.7089,41.87996 -23.7627,21.16254 -59.698,21.16254 -83.4509,0 -10.7447,-11.26391 -16.4668,-26.38664 -15.7867,-41.87996 l 0,-87.53746 c 0.5634,-23.13548 14.6889,-43.76584 36.0908,-52.76554 21.4019,-8.99487 46.1068,-4.68999 63.1468,11.03361 l 0,0.0755 z"
           inkscape:export-xdpi="90"
           inkscape:export-ydpi="90" />
        <path
           inkscape:connector-curvature="0"
           id="path3432"
           style="fill:#00a8d7;fill-opacity:1;fill-rule:nonzero;stroke:none"
           d="m -3036.7263,-370.64513 -124.5061,0 c -1.0297,0.19256 -1.9041,-0.71409 -1.7486,-1.73104 l 0,-83.728 c -0.1166,-1.01696 0.7577,-1.81136 1.7486,-1.69331 l 86.7831,0 c 2.5842,0.37736 4.7798,-1.81814 4.4397,-4.42293 l 0,-12.32538 c 0.3401,-2.57383 -1.8555,-4.8003 -4.4397,-4.42197 l -86.7831,0 c -1.0297,0.15482 -1.9041,-0.71893 -1.7486,-1.74266 l 0,-103.56394 c 0.3788,-2.56318 -1.8556,-4.79642 -4.4397,-4.42292 l -15.4467,0 c -2.5842,-0.3735 -4.8186,1.85974 -4.4397,4.42292 l 0,230.79265 c -0.3789,2.56609 1.8555,4.76256 4.4397,4.42196 l 146.1411,0 c 2.623,0.41607 4.8963,-1.81716 4.5174,-4.42196 l 0,-12.36311 c 0.68,-2.75962 -1.7098,-5.28411 -4.5174,-4.80031 z"
           inkscape:export-xdpi="90"
           inkscape:export-ydpi="90" />
        <path
           inkscape:connector-curvature="0"
           id="path3434"
           style="fill:#00a8d7;fill-opacity:1;fill-rule:nonzero;stroke:none"
           d="m -2758.0256,-584.57335 -13.7757,41.65645 c -0.4178,0.93761 -1.0298,1.39045 -1.671,1.39045 l -102.0063,0 c -0.6509,0 -1.2144,-0.45284 -1.671,-1.39045 l -13.3968,-41.65645 c -0.3789,-2.30193 -2.4676,-3.92751 -4.8186,-3.78334 l -16.4764,0 c -1.2824,-0.14417 -2.5745,0.37737 -3.41,1.40207 -0.7577,1.13403 -0.8743,2.53609 -0.3788,3.78334 l 75.4749,230.32818 c 0.4178,2.30581 2.5065,3.93139 4.8283,3.78335 l 21.8585,0 c 2.351,0.14804 4.4009,-1.47754 4.8186,-3.78335 l 75.9316,-230.32818 c 0.1166,-0.57089 0.1166,-1.17952 0,-1.74266 0,-0.94439 -0.4566,-1.81717 -1.1755,-2.41901 -0.8355,-0.64637 -1.8556,-1.02374 -2.9242,-1.02374 l -16.4667,0 c -2.3122,-0.10643 -4.362,1.51915 -4.7409,3.78334 z m -110.5069,62.85672 88.2307,0 c 1.2823,0 1.8166,0.71409 1.2823,2.11616 l -44.5816,139.77469 c 0,0.94439 -0.5732,1.36432 -1.0298,1.36432 -0.4177,0 -0.7966,-0.41993 -0.9812,-1.36432 l -44.329,-139.77469 c -0.2235,-1.40207 0.2234,-2.11616 1.4086,-2.11616 z"
           inkscape:export-xdpi="90"
           inkscape:export-ydpi="90" />
        <path
           inkscape:connector-curvature="0"
           id="path3436"
           style="fill:#00a8d7;fill-opacity:1;fill-rule:nonzero;stroke:none"
           d="m -2534.4763,-367.20238 c 12.5225,-13.00174 19.1675,-30.498 18.3709,-48.49355 0.7966,-17.84365 -5.9941,-35.22283 -18.672,-47.88881 -13.3192,-12.35538 -31.078,-18.85672 -49.2545,-18.06329 l -66.6053,0 c -1.0201,0.14417 -1.8944,-0.71796 -1.739,-1.74266 l 0,-100.5063 c 0.3789,-2.59996 -1.8652,-4.80029 -4.4494,-4.4597 l -15.437,0 c -2.5841,-0.34059 -4.8185,1.85974 -4.4397,4.4597 l 0,230.75587 c -0.3788,2.57383 1.8556,4.8003 4.4397,4.42197 l 89.2507,0 c 18.0697,0.7557 35.5954,-5.93047 48.5356,-18.48323 z m -18.3611,-81.86826 c 8.6462,8.76942 13.2802,20.71647 12.7459,33.03507 0.5343,12.39311 -4.0608,24.4882 -12.7459,33.45018 -8.7337,8.58363 -20.683,13.18751 -32.9432,12.69596 l -64.8566,0 c -1.0201,0.15482 -1.8944,-0.71796 -1.739,-1.73492 l 0,-88.17704 c -0.1554,-1.02374 0.7189,-1.93522 1.739,-1.74266 l 64.8566,0 c 12.2213,-0.45285 24.0929,4.04459 32.9432,12.47341 z"
           inkscape:export-xdpi="90"
           inkscape:export-ydpi="90" />
        <path
           inkscape:connector-curvature="0"
           id="path3438"
           style="fill:#00a8d7;fill-opacity:1;fill-rule:nonzero;stroke:none"
           d="m -2317.4068,-367.20238 c 12.4836,-13.00174 19.1286,-30.498 18.332,-48.49355 0.7966,-17.88138 -5.9941,-35.22283 -18.7109,-47.88881 -13.3191,-12.39408 -31.0779,-18.89446 -49.2545,-18.06329 l -66.9453,0 c -1.02,0.14417 -1.9332,-0.71796 -1.7875,-1.74266 l 0,-100.5063 c 0.3789,-2.59996 -1.8167,-4.80029 -4.4397,-4.4597 l -15.437,0 c -2.5841,-0.34059 -4.7894,1.85974 -4.4494,4.4597 l 0,230.75587 c -0.34,2.57383 1.8653,4.8003 4.4494,4.42197 l 89.2507,0 c 18.2154,0.86891 35.9354,-5.825 48.9922,-18.48323 z m -18.3708,-81.86826 c 8.6171,8.76942 13.2122,20.74646 12.6779,33.03507 0.5732,12.39311 -4.022,24.4882 -12.6779,33.45018 -8.7629,8.58363 -20.683,13.18751 -32.9335,12.69596 l -65.2744,0 c -1.02,0.15482 -1.9332,-0.71796 -1.7875,-1.73492 l 0,-88.17704 c -0.1457,-1.02374 0.7675,-1.93522 1.7875,-1.74266 l 64.8178,0 c 12.3282,-0.56993 24.3261,3.96911 33.2443,12.47341 l 0.1458,0 z"
           inkscape:export-xdpi="90"
           inkscape:export-ydpi="90" />
        <path
           inkscape:connector-curvature="0"
           id="path3440"
           style="fill:#00a8d7;fill-opacity:1;fill-rule:nonzero;stroke:none"
           d="m -2240.562,-583.89699 0,230.41528 c -0.3789,2.6048 1.8944,4.83803 4.5174,4.42196 l 15.4467,0 c 2.5744,0.3406 4.8186,-1.85587 4.4397,-4.42196 l 0,-211.93205 c -0.1555,-0.97921 0.68,-1.84813 1.7098,-1.73105 l 119.7652,0 c 2.5744,0.37349 4.8185,-1.85974 4.4397,-4.42293 l 0,-12.32925 c 0.3788,-2.59996 -1.8653,-4.80029 -4.4397,-4.4597 l -141.3614,0 c -2.623,-0.41607 -4.8963,1.81814 -4.5174,4.4597 z"
           inkscape:export-xdpi="90"
           inkscape:export-ydpi="90" />
        <path
           inkscape:connector-curvature="0"
           id="path3442"
           style="fill:#00a8d7;fill-opacity:1;fill-rule:nonzero;stroke:none"
           d="m -2031.8765,-583.89699 0,230.41528 c -0.3789,2.56609 1.8556,4.76256 4.4397,4.42196 l 15.4467,0 c 2.5744,0.3406 4.8186,-1.85587 4.4397,-4.42196 l 0,-230.41528 c 0.3789,-2.59996 -1.8653,-4.80029 -4.4397,-4.4597 l -15.4467,0 c -2.5841,-0.34059 -4.8186,1.85974 -4.4397,4.4597 z"
           inkscape:export-xdpi="90"
           inkscape:export-ydpi="90" />
        <path
           inkscape:connector-curvature="0"
           id="path3444"
           style="fill:#00a8d7;fill-opacity:1;fill-rule:nonzero;stroke:none"
           d="m -1778.2304,-370.64513 -124.9627,0 c -1.0297,0.11708 -1.8264,-0.75569 -1.6709,-1.73104 l 0,-83.728 c -0.1166,-0.97534 0.68,-1.76976 1.6709,-1.69331 l 87.434,0 c 2.5745,0.37736 4.7798,-1.81814 4.4397,-4.42293 l 0,-12.32538 c 0.3401,-2.57383 -1.8652,-4.8003 -4.4397,-4.42197 l -87.434,0 c -1.0297,0.11709 -1.8264,-0.75666 -1.6709,-1.74266 l 0,-85.04394 c -0.1555,-1.01696 0.6412,-1.84812 1.6709,-1.76878 l 124.9627,0 c 2.5841,0.37833 4.7797,-1.82201 4.4397,-4.42197 l 0,-12.32925 c 0.34,-2.56318 -1.8556,-4.79642 -4.4397,-4.42292 l -146.5589,0 c -2.6133,-0.41511 -4.8963,1.822 -4.5174,4.42292 l 0,230.79265 c -0.3789,2.6048 1.9041,4.83803 4.5174,4.42196 l 146.5589,0 c 2.5841,0.3406 4.7797,-1.85587 4.4397,-4.42196 l 0,-12.36311 c 0.6411,-2.72188 -1.671,-5.21638 -4.4397,-4.80031 z"
           inkscape:export-xdpi="90"
           inkscape:export-ydpi="90" />
        <path
           inkscape:connector-curvature="0"
           id="path3446"
           style="fill:#00a8d7;fill-opacity:1;fill-rule:nonzero;stroke:none"
           d="m -1707.9529,-583.89699 0,230.41528 c -0.34,2.56609 1.8652,4.76256 4.4397,4.42196 l 80.1478,0 c 19.6241,1.01696 38.9373,-5.32862 54.0828,-17.80203 13.5426,-12.28765 20.8676,-29.93873 20.0321,-48.1878 l 0,-107.30567 c 0.8743,-18.25971 -6.4895,-35.90789 -20.0321,-48.19941 -15.1455,-12.46857 -34.4587,-18.78125 -54.0828,-17.80203 l -80.1478,0 c -2.5745,-0.34059 -4.7797,1.85974 -4.4397,4.4597 z m 26.1136,16.75218 59.3483,0 c 13.1345,-0.65023 25.9193,4.04363 35.5273,13.00174 9.064,9.26096 13.8437,21.87759 13.2414,34.80772 l 0,100.88076 c 0.68,13.04334 -4.0608,25.73932 -13.0568,35.19284 -9.5983,8.9881 -22.4997,13.68196 -35.7119,12.99399 l -59.3483,0 c -1.1755,0 -1.671,-0.56315 -1.671,-1.73104 l 0,-193.41496 c 0,-1.17177 0.4955,-1.73105 1.671,-1.73105 z"
           inkscape:export-xdpi="90"
           inkscape:export-ydpi="90" />
        <path
           inkscape:connector-curvature="0"
           id="path3448"
           style="fill:#00a8d7;fill-opacity:1;fill-rule:nonzero;stroke:none"
           d="m -1373.5081,-583.17128 c -11.6871,4.49066 -21.7808,12.24313 -29.1447,22.33431 -6.7519,9.93732 -10.2784,21.69181 -10.0549,33.68142 l 0,9.55899 c -0.34,2.60383 1.8555,4.8003 4.4397,4.4597 l 14.5723,0 c 2.623,0.41994 4.8963,-1.81813 4.5174,-4.4597 l 0,-8.20627 c -0.1554,-12.65437 5.9941,-24.56367 16.4668,-31.74525 13.0179,-8.84489 28.5423,-13.14978 44.2513,-12.35635 14.2712,-0.98598 28.4258,2.94057 40.1516,11.1091 9.0252,7.13998 14.1158,18.1049 13.7369,29.59813 0.2234,7.32576 -2.011,14.55281 -6.3438,20.4823 -5.3044,6.61069 -11.9105,12.09509 -19.4298,16.10195 -12.0659,6.61069 -24.5495,12.43568 -37.3732,17.42854 -13.6591,5.25314 -26.988,11.22133 -39.9962,17.90846 -9.0737,4.8003 -16.933,11.57355 -22.966,19.80886 -6.1107,9.03744 -9.1806,19.7682 -8.724,30.61605 -0.9132,17.23114 6.5284,33.82463 20.0321,44.63474 13.3969,10.58271 31.8454,15.91616 55.4429,15.91616 25.1616,0 45.048,-5.93045 59.6591,-17.80203 14.3489,-11.41872 22.4317,-28.87339 21.8585,-47.17084 l 0,-6.54296 c 0.3789,-2.56318 -1.8555,-4.75869 -4.4397,-4.42196 l -15.1455,0 c -2.6133,-0.33673 -4.8186,1.85878 -4.4397,4.42196 l 0,5.18541 c 0.272,12.61663 -5.4597,24.63624 -15.4466,32.42644 -12.6294,9.18066 -28.1149,13.68293 -43.7171,12.70372 -13.2025,0.86116 -26.2593,-2.64931 -37.2566,-9.94797 -8.8114,-6.98516 -13.6299,-17.833 -12.8722,-29.02821 -0.3011,-7.29479 1.943,-14.4725 6.3438,-20.32749 4.9644,-5.90433 11.1916,-10.70463 18.2155,-13.99256 7.8496,-4.00686 19.9932,-9.18066 36.4308,-15.53106 13.8826,-5.4844 27.4348,-11.91027 40.4917,-19.16732 9.7148,-5.43892 18.0988,-12.8508 24.7049,-21.77116 6.373,-9.14292 9.5983,-20.14557 9.2583,-31.2537 0.5635,-17.6898 -7.2473,-34.62291 -21.1396,-45.66331 -14.0769,-11.48259 -33.6621,-17.26888 -58.7848,-17.26888 -14.8346,-0.15578 -29.5624,2.6493 -43.2992,8.28078 z"
           inkscape:export-xdpi="90"
           inkscape:export-ydpi="90" />
        <path
           inkscape:connector-curvature="0"
           id="path3450"
           style="fill:#00a8d7;fill-opacity:1;fill-rule:nonzero;stroke:none"
           d="m -1154.0488,-582.03725 c -11.8036,5.96821 -21.6351,15.2282 -28.2703,26.64693 -6.8685,12.05735 -10.3658,25.74028 -10.1327,39.60415 l 0,94.34168 c -0.2623,13.80001 3.2254,27.40263 10.1327,39.35451 6.6741,11.33842 16.5056,20.56165 28.2703,26.49211 13.0957,6.50039 27.5515,9.75154 42.2015,9.41481 14.6112,0.29899 29.1058,-2.87669 42.2306,-9.19226 11.7259,-5.81726 21.5185,-14.85373 28.2801,-26.00056 6.8975,-11.71676 10.4338,-25.1007 10.1326,-38.66655 0,-2.04068 -1.4475,-3.25019 -4.4397,-3.704 l -15.4467,-1.0963 -1.0298,0 c -0.8354,-0.0377 -1.7098,0.22353 -2.3898,0.71797 -0.6412,0.4538 -1.0201,0.86987 -1.0201,1.40302 l 0,2.03295 c 0.6412,14.51411 -4.974,28.61988 -15.4467,38.74202 -23.6849,19.54468 -57.9881,19.54468 -81.6633,0 -10.4435,-10.09214 -16.0588,-24.15245 -15.4467,-38.5872 l 0,-95.736 c -0.6121,-14.47637 5.0032,-28.54441 15.4467,-38.59881 23.6752,-19.49534 57.9396,-19.49534 81.6633,0 10.5116,10.13374 16.1268,24.26952 15.4467,38.82136 0,2.75961 1.4378,3.96913 4.4397,3.78334 l 15.4467,-0.7557 c 2.9922,0 4.4397,-0.49154 4.4397,-1.66331 l 0,-1.74169 c 0.3012,-13.72068 -3.1962,-27.24782 -10.1326,-39.12036 -6.6839,-11.22618 -16.5153,-20.30039 -28.2412,-26.11377 -13.1637,-6.38814 -27.6583,-9.53286 -42.2695,-9.22324 -14.5723,-0.45283 -29.0378,2.5632 -42.2015,8.88264 l 0,-0.0377 z"
           inkscape:export-xdpi="90"
           inkscape:export-ydpi="90" />
        <path
           inkscape:connector-curvature="0"
           id="path3452"
           style="fill:#00a8d7;fill-opacity:1;fill-rule:nonzero;stroke:none"
           d="m -962.85977,-583.89699 0,230.41528 c -0.34002,2.56609 1.85554,4.76256 4.4397,4.42196 l 15.44668,0 c 2.6133,0.3406 4.81858,-1.85587 4.47856,-4.42196 l 0,-230.41528 c 0.34002,-2.59996 -1.86526,-4.80029 -4.47856,-4.4597 l -15.44668,0 c -2.58416,-0.34059 -4.77972,1.85974 -4.4397,4.4597 z"
           inkscape:export-xdpi="90"
           inkscape:export-ydpi="90" />
        <path
           inkscape:connector-curvature="0"
           id="path3454"
           style="fill:#00a8d7;fill-opacity:1;fill-rule:nonzero;stroke:none"
           d="m -709.29183,-370.64513 -124.88452,0 c -1.02977,0.19256 -1.90411,-0.71409 -1.74868,-1.73104 l 0,-83.728 c -0.11657,-1.01696 0.75777,-1.81136 1.74868,-1.69331 l 87.43362,0 c 2.57444,0.37736 4.81858,-1.81814 4.4397,-4.42293 l 0,-12.32538 c 0.37888,-2.57383 -1.86526,-4.8003 -4.4397,-4.42197 l -87.43362,0 c -1.02977,0.15482 -1.90411,-0.71893 -1.74868,-1.74266 l 0,-85.04394 c -0.15543,-1.01696 0.71891,-1.9236 1.74868,-1.76878 l 124.88452,0 c 2.58416,0.37833 4.81858,-1.82201 4.4397,-4.42197 l 0,-12.32925 c 0.37888,-2.56318 -1.85554,-4.79642 -4.4397,-4.42292 l -146.51957,0 c -2.61331,-0.3735 -4.81859,1.85974 -4.43971,4.42292 l 0,230.79265 c -0.37888,2.56609 1.8264,4.76256 4.43971,4.42196 l 146.51957,0 c 2.58416,0.3406 4.81858,-1.85587 4.4397,-4.42196 l 0,-12.36311 c 0.6509,-2.72188 -1.67096,-5.21638 -4.4397,-4.80031 z"
           inkscape:export-xdpi="90"
           inkscape:export-ydpi="90" />
        <path
           inkscape:connector-curvature="0"
           id="path3456"
           style="fill:#00a8d7;fill-opacity:1;fill-rule:nonzero;stroke:none"
           d="m -638.89775,-583.89699 0,230.41528 c -0.56346,2.72188 1.8264,5.14089 4.59515,4.60774 l 15.44667,0 c 2.12756,0 4.06083,-1.17177 5.08089,-3.0199 l 115.32545,-186.00406 c 0.4566,-0.63861 0.95206,-0.93664 1.40866,-0.78956 0.41774,0.11321 0.64118,0.57089 0.64118,1.50753 l 0,183.69825 c -0.37888,2.6048 1.90412,4.83803 4.51742,4.42196 l 15.44668,0 c 2.58416,0.3406 4.81858,-1.85587 4.4397,-4.42196 l 0,-230.41528 c 0.37888,-2.59996 -1.85554,-4.80029 -4.4397,-4.4597 l -15.44668,0 c -2.12756,0.0377 -4.09968,1.20951 -5.1586,3.06925 L -612.4441,-398.6496 c -0.53432,0.68118 -0.95206,0.94922 -1.40866,0.87374 -0.41774,-0.0794 -0.7189,-0.65023 -0.7189,-1.52011 l 0.34002,-184.60102 c 0.37888,-2.59996 -1.81669,-4.80029 -4.43971,-4.4597 l -15.67011,0 c -2.61331,-0.44607 -4.97403,1.7804 -4.55629,4.4597 z"
           inkscape:export-xdpi="90"
           inkscape:export-ydpi="90" />
        <path
           inkscape:connector-curvature="0"
           id="path3458"
           style="fill:#00a8d7;fill-opacity:1;fill-rule:nonzero;stroke:none"
           d="m -363.34462,-582.03725 c -11.84245,5.96821 -21.67392,15.2282 -28.34805,26.64693 -6.86843,12.13283 -10.36579,25.88349 -10.13263,39.83444 l 0,94.11139 c -0.23316,13.80001 3.2642,27.40263 10.13263,39.35451 6.71299,11.37712 16.54445,20.56165 28.34805,26.49211 13.08595,6.53812 27.55142,9.75154 42.19176,9.41481 14.57233,0.29899 29.0378,-2.83508 42.16262,-9.19226 11.72587,-5.81726 21.55734,-14.816 28.34805,-26.00056 6.90728,-11.71676 10.43379,-25.1007 10.13263,-38.66655 0,-2.04068 -1.51553,-3.25019 -4.43971,-3.704 l -15.44667,-1.0963 -1.02007,0 c -0.87434,-0.0377 -1.70982,0.22353 -2.38986,0.71797 -0.72862,0.4538 -1.02978,0.86987 -1.02978,1.40302 l 0,2.03295 c 0.6509,14.51411 -4.96431,28.61988 -15.44667,38.74202 -23.67519,19.54468 -57.97846,19.54468 -81.66336,0 -10.47265,-10.09214 -16.08786,-24.15245 -15.44667,-38.5872 l 0,-95.736 c -0.64119,-14.47637 4.97402,-28.54441 15.44667,-38.59881 11.12355,-10.05344 25.80275,-15.26593 40.79282,-14.5141 14.99007,-0.67636 29.67899,4.54001 40.87054,14.5141 10.51151,10.13374 16.13643,24.26952 15.44667,38.82136 0,2.75961 1.44752,3.96913 4.43971,3.78334 l 15.44667,-0.7557 c 2.92418,0 4.43971,-0.49154 4.43971,-1.66331 l 0,-1.74169 c 0.30116,-13.72068 -3.18649,-27.24782 -10.13263,-39.12036 -6.71299,-11.22618 -16.54446,-20.30039 -28.34805,-26.11377 -26.71595,-12.36796 -57.59958,-12.36796 -84.35438,0 l 0,-0.37834 z"
           inkscape:export-xdpi="90"
           inkscape:export-ydpi="90" />
        <path
           inkscape:connector-curvature="0"
           id="path3460"
           style="fill:#00a8d7;fill-opacity:1;fill-rule:nonzero;stroke:none"
           d="m -21.20565,-370.64513 -124.92376,0 c -1.17551,0 -1.70982,-0.55927 -1.70982,-1.73104 l 0,-83.728 c -0.14573,-0.97534 0.7189,-1.8491 1.70982,-1.69331 l 87.434003,0 c 2.58416,0.37736 4.779725,-1.81814 4.439704,-4.42293 l 0,-12.32538 c 0.340021,-2.57383 -1.855544,-4.8003 -4.439704,-4.42197 l -87.434003,0 c -1.17551,0 -1.70982,-0.60088 -1.70982,-1.74266 l 0,-85.04394 c 0,-1.17177 0.53431,-1.76878 1.70982,-1.76878 l 124.92376,0 c 2.623021,0.37833 4.818586,-1.82201 4.439705,-4.42197 l 0,-12.32925 c 0.378881,-2.56318 -1.816684,-4.79642 -4.439705,-4.42292 l -146.78227,0 c -2.62302,-0.41511 -4.8963,1.822 -4.55628,4.42292 l 0,230.79265 c -0.5246,2.68414 1.8264,5.10315 4.55628,4.60774 l 146.519968,0 c 2.584161,0.37737 4.779726,-1.8104 4.439705,-4.42196 l 0,-12.31861 c 0.796621,-2.6793 -1.398944,-5.29184 -4.177403,-5.03059 z"
           inkscape:export-xdpi="90"
           inkscape:export-ydpi="90" />
        <path
           inkscape:connector-curvature="0"
           id="path3462"
           style="fill:#00a8d7;fill-opacity:1;fill-rule:nonzero;stroke:none"
           d="m 75.34092,-583.17128 c -11.541288,4.49066 -21.557339,12.28087 -28.765787,22.33431 -6.829567,9.90732 -10.356072,21.65407 -10.132629,33.68142 l 0,9.55899 c -0.378881,2.60383 1.855543,4.8003 4.439704,4.4597 l 14.572334,0 c 2.58416,0.3406 4.818585,-1.85587 4.439704,-4.4597 l 0,-8.20627 c -0.155438,-12.65437 5.994087,-24.56367 16.466738,-31.74525 13.017951,-8.84489 28.581196,-13.14978 44.329036,-12.35635 14.23231,-0.98598 28.42577,2.94057 40.11278,11.1091 9.02513,7.13998 14.11573,18.14264 13.69799,29.59813 0.22344,7.32576 -2.01098,14.55281 -6.33411,20.4823 -5.27518,6.61069 -11.88131,12.09509 -19.36177,16.10195 -12.10475,6.58069 -24.62725,12.39795 -37.4509,17.42854 -13.62027,5.25314 -26.949098,11.22133 -39.918475,17.90846 -9.112566,4.7616 -16.971912,11.53485 -23.043718,19.80886 -6.10095,9.03744 -9.18057,19.7682 -8.72397,30.61605 -0.9132,17.23114 6.567265,33.86624 20.070961,44.63474 13.357973,10.58271 31.845407,15.91616 55.413722,15.91616 25.19071,0 45.11595,-5.93045 59.72714,-17.80203 14.34889,-11.41872 22.43168,-28.87339 21.8585,-47.17084 l 0,-6.54296 c 0.37888,-2.56318 -1.85554,-4.75869 -4.4397,-4.42196 l -15.10665,0 c -2.61331,-0.41607 -4.85745,1.81717 -4.51743,4.42196 l 0,5.18541 c 0.31088,12.61663 -5.42091,24.67398 -15.43696,32.42644 -12.60021,9.18066 -28.08574,13.68293 -43.717,12.70372 -13.17339,0.86116 -26.269055,-2.64931 -37.227451,-9.94797 -8.772545,-6.98516 -13.55227,-17.833 -12.833368,-29.02821 -0.262302,-7.29479 1.972122,-14.4725 6.343822,-20.32749 4.964309,-5.90433 11.152693,-10.70463 18.137699,-13.99256 7.966209,-4.00686 19.993238,-9.14292 36.430828,-15.53106 13.92144,-5.4844 27.47371,-11.87156 40.53052,-19.16732 9.67603,-5.43892 18.09884,-12.8508 24.70496,-21.77116 6.37297,-9.14292 9.59831,-20.14557 9.25829,-31.2537 0.56347,-17.6898 -7.20844,-34.58131 -21.06188,-45.66331 -14.07687,-11.48259 -33.73981,-17.26888 -58.90137,-17.26888 -14.91236,-0.18578 -29.708128,2.6493 -43.56156,8.28078 z"
           inkscape:export-xdpi="90"
           inkscape:export-ydpi="90" />
        <path
           inkscape:connector-curvature="0"
           id="path3464"
           style="fill:#5b4697;fill-opacity:1;fill-rule:nonzero;stroke:none"
           d="m -5490.5325,260.7184 -169.7104,389.95527 c -2.4287,6.34751 -8.994,10.20826 -15.7449,9.18259 l -56.6203,0 c -7.3241,1.06437 -13.6193,-5.2154 -12.5225,-12.54019 l 0,-378.80844 c 0,-19.80691 -9.9393,-29.70553 -29.8626,-29.74423 l -235.7833,0 c -19.9233,0.14514 -29.8616,10.13084 -29.8616,29.96678 l 0,1036.28772 c 0,19.8455 9.9383,29.7442 29.8616,29.7442 l 469.9578,0 c 71.2305,0 133.8537,-14.5141 187.8092,-43.5423 52.9384,-28.2735 96.5864,-71.0901 125.7699,-123.3699 29.8238,-52.7636 44.7371,-113.5777 44.7371,-182.40358 0,-67.73249 -16.4658,-127.23064 -49.4469,-178.4751 -33.1297,-51.07029 -81.1309,-90.86797 -137.5647,-114.00345 -6.7927,-1.88683 -9.9083,-9.67607 -6.2574,-15.6849 l 191.7554,-403.85979 c 2.2315,-4.91545 3.3011,-10.28566 3.1457,-15.6462 0,-12.54986 -8.383,-18.82963 -25.1596,-18.82963 l -249.8893,0 c -15.1077,-1.0547 -29.1146,7.78923 -34.6132,21.77115 z m -254.5981,809.471 0,-173.71454 c -1.0968,-7.33445 5.1984,-13.61423 12.5225,-12.58856 l 143.0333,0 c 33.5843,0 60.7938,9.14388 81.741,27.44133 20.7889,17.76526 32.371,43.95838 31.4938,71.2062 1.021,27.66387 -10.5494,54.35047 -31.4938,72.57047 -20.9472,18.2975 -48.1567,27.4414 -81.741,27.4414 l -143.0333,0 c -7.2483,0.9869 -13.4755,-5.138 -12.5225,-12.3563 z"
           inkscape:export-xdpi="90"
           inkscape:export-ydpi="90" />
        <path
           inkscape:connector-curvature="0"
           id="path3466"
           style="fill:#5b4697;fill-opacity:1;fill-rule:nonzero;stroke:none"
           d="m -4777.4402,264.00827 -308.0689,1037.75843 c -1.1366,3.6285 -1.7001,7.4506 -1.5932,11.2243 0,14.514 8.9571,21.7711 26.7159,21.7711 l 254.5981,0 c 15.8256,1.4805 30.1356,-9.4051 32.9432,-25.0223 l 128.9458,-494.71809 c 2.1275,-5.22508 4.9351,-7.82794 8.6559,-7.82794 3.7208,0 6.0718,2.60286 7.2862,7.82794 l 119.5028,493.13119 c 5.0421,17.7653 15.9713,26.6092 32.7101,26.6092 l 183.7863,0 c 15.8644,1.5191 30.2035,-9.3664 32.982,-25.0223 l 125.7592,-494.71809 c 2.1276,-5.22508 4.9741,-7.82794 8.6852,-7.82794 3.7208,0 5.9649,2.60286 7.2861,7.82794 l 116.5787,493.13119 c 2.1664,16.0333 16.4376,27.6349 32.642,26.6092 l 255.0159,0 c 8.2673,0.8322 16.389,-2.3803 21.8585,-8.6117 4.4008,-7.2958 5.5375,-16.0623 3.1087,-24.2289 L -3963.0896,264.16308 c -2.8173,-15.6075 -17.1176,-26.49308 -32.9821,-25.06102 l -240.4435,0 c -18.8566,0 -29.8635,8.88263 -33.0112,26.6479 l -108.4278,518.16319 c -2.1179,5.2154 -4.7409,8.05048 -7.8497,8.6117 -3.1476,0.60959 -5.2752,-2.38032 -6.3049,-8.6117 l -95.8569,-518.16319 c -1.292,-15.98487 -15.3689,-27.93482 -31.4179,-26.6479 l -223.5202,0 c -16.0878,-1.20951 -30.699,9.33741 -34.5364,24.90621 z"
           inkscape:export-xdpi="90"
           inkscape:export-ydpi="90" />
        <path
           inkscape:connector-curvature="0"
           id="path3468"
           style="fill:#00a8d7;fill-opacity:1;fill-rule:nonzero;stroke:none"
           d="m -4594.0717,-996.89863 c -63.1468,30.08271 -116.0055,78.00548 -151.902,137.8839 -35.7119,59.56491 -53.5485,128.54464 -53.5485,206.97016 l 0,687.00092 c 0,19.884322 9.9384,29.821646 29.8636,29.821646 l 236.237,0 c 19.8475,0 29.8247,-9.937324 29.8636,-29.821646 l 0,-686.84611 c 0,-42.94143 12.3281,-77.14827 36.9943,-102.69115 24.6661,-25.5545 57.4927,-38.36852 98.4409,-38.48174 39.8505,0 72.1039,13.08205 96.8478,39.27517 24.7049,26.15151 37.0331,60.01775 37.004,101.59873 l 0,687.1451 c 0,19.884322 9.8994,29.821646 29.8635,29.821646 l 236.2273,0 c 19.9252,0 29.8636,-9.937324 29.8636,-29.821646 l 0,-686.84611 c 0,-78.39552 -17.8366,-147.3675 -53.4708,-206.9808 -35.8188,-59.682 -88.3763,-107.60892 -151.1831,-137.88447 -65.08,-32.42237 -140.147,-48.64117 -225.1523,-48.64117 -85.0053,0 -160.3345,16.1773 -225.9489,48.49757 z"
           inkscape:export-xdpi="90"
           inkscape:export-ydpi="90" />
        <path
           inkscape:connector-curvature="0"
           id="path3470"
           style="fill:#00a8d7;fill-opacity:1;fill-rule:nonzero;stroke:none"
           d="m -5049.7194,6.7215797 c -17.4188,0 -34.0798,-6.87968547 -46.3692,-19.1199137 -12.3,-12.249903 -19.2063,-28.844362 -19.2063,-46.193555 l 0,-56.158941 c -0.039,-5.56374 -3.2632,-10.66302 -8.3072,-13.04431 l -149.0245,-70.98268 c -15.5632,17.91912 -33.7786,33.37083 -53.9672,45.84426 28.1538,0 51.0032,22.75715 51.0032,50.79936 l 0,21.771155 -116.5787,0 c -25.9572,0.07741 -43.5236,26.347937 -33.6222,50.199448 9.9383,23.8515111 41.026,30.04419545 59.3861,11.795129 l 18.2951,-18.074898 c 10.5115,-10.353394 25.0421,-15.646204 39.7699,-14.514104 27.1336,2.573834 47.702,25.438387 47.3221,52.5410567 l 0,55.9373573 c 0,4.005893 -3.2632,7.257052 -7.2861,7.257052 l -211.2989,0 c -27.2891,-0.03871 -54.3042,-5.283134 -79.5746,-15.452683 -17.8744,25.206161 -57.1508,18.103925 -65.0101,-11.756424 -2.5084,-9.637366 -0.8763,-19.961732 4.5155,-28.3508839 -29.1447,-30.4989701 -47.4398,-74.2348031 -42.0849,-133.1233551 9.677,-107.60854 73.4348,-184.4462 87.434,-253.99683 9.8324,-45.6517 -0.7967,-93.35568 -29.1447,-130.62693 -26.0748,-32.65673 -60.9415,-57.30072 -100.4918,-71.01365 -57.7171,20.74743 -96.1968,75.2508 -96.2347,136.32711 l 0,246.73978 c -0.7587,45.85489 -24.3251,88.33186 -62.8845,113.355146 -38.5866,25.022314 -87.1231,29.328165 -129.5199,11.456466 -42.3851,-17.879442 -73.086,-55.559992 -81.8858,-100.583712 -8.8503,-44.97534 5.3811,-91.3895 37.9065,-123.85369 11.1158,-11.07813 29.0272,-11.37712 40.5296,-0.7257 11.8055,11.7961 11.8055,30.88795 0,42.67243 -16.4357,16.74831 -24.5874,39.91379 -22.3141,63.20506 2.0498,44.06384 39.5396,78.16038 83.7918,76.16131 44.2514,-2.00392 78.5158,-39.35451 76.5048,-83.41837 l 0,-245.00872 c 0,-81.33607 48.7299,-154.88484 123.8648,-186.86521 -0.4177,-48.53517 -4.8195,-119.74137 -30.0977,-148.76958 -17.1069,-19.96075 -39.7319,-34.47486 -65.0402,-41.73191 l 119.6865,-217.71175 c 2.622,-4.4903 7.5213,-7.2948 12.7547,-7.257 l 166.2917,0 c 4.0229,0 7.2861,3.2505 7.2861,7.257 l 0,14.5141 c 0,36.10006 -29.3681,65.31347 -65.5755,65.31347 l -42.4268,0 c -5.2334,-0.0377 -10.1327,2.76658 -12.7547,7.25724 l -32.2525,58.05642 c 0,0 53.2386,8.12596 87.434,36.28526 34.1576,28.16606 43.717,79.82757 43.717,79.82757 0,0 72.8617,-38.09565 75.0971,-74.38092 0.5732,-17.30758 -8.7628,-33.48887 -24.0939,-41.73191 l 141.4012,-147.90033 c 2.7658,-2.8727 6.5575,-4.4979 10.5873,-4.4979 l 154.0305,0 c 4.023,0 7.2862,3.2505 7.2862,7.257 l 0,14.5141 c 0,36.10006 -29.3681,65.31347 -65.5755,65.31347 l -58.2894,0 c -4.7398,0 -9.1417,2.27503 -11.8813,6.12707 l -31.8357,44.67248 c 0,0 43.717,43.54231 43.717,101.59873 0,50.79937 -87.434,159.65514 -87.434,159.65514 37.4218,29.56136 71.6095,62.93219 102.0064,99.67513 l 36.4308,-48.87576 216.8752,90.64542 c 5.4306,2.26323 8.9571,7.51733 8.996,13.37232 l 0,157.23613 c 0,4.0059 -3.2642,7.25705 -7.2862,7.25705 l -14.5723,0 c -17.4188,0 -34.0798,-6.87968 -46.3692,-19.12184 -12.3,-12.24604 -19.2063,-28.84243 -19.2063,-46.19162 l 0,-29.02821 c 0,-4.00687 -3.2632,-7.25706 -7.2862,-7.25706 l -98.8985,0 c 7.324,21.01546 11.2022,43.09625 11.4645,65.31348 0,2.41901 0,4.7316 0,7.25704 l 177.9768,177.31398 c 2.7687,2.71704 4.294,6.42491 4.294,10.31469 l 0,167.96688751 c 0,4.00589279 -3.2642,7.25705219 -7.2862,7.25705219 l -14.6889,0 z"
           inkscape:export-xdpi="90"
           inkscape:export-ydpi="90" />
      </g>
    </g>
  </g>
</svg>
