<?xml version="1.0" encoding="UTF-8" standalone="no"?>
<!-- Created with Inkscape (http://www.inkscape.org/) -->

<svg
   xmlns:dc="http://purl.org/dc/elements/1.1/"
   xmlns:cc="http://creativecommons.org/ns#"
   xmlns:rdf="http://www.w3.org/1999/02/22-rdf-syntax-ns#"
   xmlns:svg="http://www.w3.org/2000/svg"
   xmlns="http://www.w3.org/2000/svg"
   xmlns:sodipodi="http://sodipodi.sourceforge.net/DTD/sodipodi-0.dtd"
   xmlns:inkscape="http://www.inkscape.org/namespaces/inkscape"
   width="210mm"
   height="297mm"
   viewBox="0 0 744.09448819 1052.3622047"
   id="svg2"
   version="1.1"
   inkscape:version="0.91 r13725"
   inkscape:export-filename="/home/iki/codefiles/k_thesis/01_latex_thesis/media/rwulogo.png"
   inkscape:export-xdpi="145.02786"
   inkscape:export-ydpi="145.02786"
   sodipodi:docname="rwulogo.svg">
  <defs
     id="defs4" />
  <sodipodi:namedview
     id="base"
     pagecolor="#ffffff"
     bordercolor="#666666"
     borderopacity="1.0"
     inkscape:pageopacity="0.0"
     inkscape:pageshadow="2"
     inkscape:zoom="0.7"
     inkscape:cx="792.9317"
     inkscape:cy="376.94995"
     inkscape:document-units="px"
     inkscape:current-layer="g3346"
     showgrid="false"
     inkscape:window-width="1855"
     inkscape:window-height="1176"
     inkscape:window-x="1985"
     inkscape:window-y="24"
     inkscape:window-maximized="1" />
  <metadata
     id="metadata7">
    <rdf:RDF>
      <cc:Work
         rdf:about="">
        <dc:format>image/svg+xml</dc:format>
        <dc:type
           rdf:resource="http://purl.org/dc/dcmitype/StillImage" />
        <dc:title></dc:title>
      </cc:Work>
    </rdf:RDF>
  </metadata>
  <g
     inkscape:label="Layer 1"
     inkscape:groupmode="layer"
     id="layer1">
    <g
       transform="matrix(1.25,0,0,-1.25,759.68752,921.63701)"
       inkscape:label="ink_ext_XXXXXX"
       id="g3344">
      <g
         transform="scale(0.1,0.1)"
         id="g3346">
        <g
           id="g3538">
          <rect
             inkscape:export-ydpi="90"
             inkscape:export-xdpi="90"
             transform="scale(1,-1)"
             y="-1450.8081"
             x="-6077.8252"
             height="2489.0159"
             width="7446.8447"
             id="rect3536"
             style="opacity:1;fill:#ffffff;fill-opacity:1;stroke:none;stroke-width:32.56368256;stroke-miterlimit:4;stroke-dasharray:none;stroke-dashoffset:0;stroke-opacity:1" />
          <path
             inkscape:export-ydpi="90"
             inkscape:export-xdpi="90"
             d="m -3175.132,972.4096 15.9,0 c 2.69,0.47 5.04,-1.83 4.65,-4.57 l 0,-238.32 c 0.39,-2.73 -1.96,-5.04 -4.65,-4.61 l -15.9,0 c -2.66,-0.35 -4.92,1.92 -4.57,4.61 l 0,107 c 0.16,1.05 -0.7,1.91 -1.72,1.79 l -112.03,0 c -1.09,0.2 -1.99,-0.74 -1.84,-1.79 l 0,-107 c 0.39,-2.69 -1.87,-4.96 -4.57,-4.61 l -16.09,0 c -2.7,-0.35 -4.96,1.92 -4.61,4.61 l 0,238.13 c -0.55,2.73 1.8,5.19 4.61,4.76 l 15.9,0 c 2.65,0.39 4.92,-1.87 4.57,-4.57 l 0,-105.89 c -0.47,-1.26 0.74,-2.5 2.03,-2.04 l 111.95,0 c 0.98,-0.07 1.84,0.75 1.72,1.76 l 0,105.98 c -0.55,2.77 1.84,5.27 4.65,4.76 z"
             style="fill:#5b4697;fill-opacity:1;fill-rule:nonzero;stroke:none"
             id="path3348"
             inkscape:connector-curvature="0" />
          <path
             inkscape:export-ydpi="90"
             inkscape:export-xdpi="90"
             d="m -3042.982,732.4096 c -12.42,6.53 -22.66,16.53 -29.45,28.83 -7.19,13.13 -10.79,27.93 -10.43,42.89 l 0,88.95 c -0.36,14.96 3.24,29.76 10.43,42.89 6.75,12.34 17.03,22.42 29.45,28.94 13.63,7.07 28.83,10.63 44.18,10.28 15.39,0.31 30.62,-3.21 44.33,-10.28 12.5,-6.48 22.78,-16.48 29.61,-28.79 7.19,-13.12 10.79,-27.93 10.43,-42.89 l 0,-89.18 c 0.36,-14.96 -3.24,-29.76 -10.43,-42.89 -6.83,-12.26 -17.14,-22.26 -29.61,-28.75 -13.71,-7.03 -28.94,-10.54 -44.33,-10.27 -15.35,-0.31 -30.55,3.24 -44.18,10.27 z m 87.03,27.46 c 11.09,11.53 16.99,27.15 16.25,43.13 l 0,90.47 c 0.7,16.01 -5.16,31.68 -16.25,43.28 -24.41,21.91 -61.41,21.91 -85.82,0 -11.09,-11.6 -16.99,-27.27 -16.29,-43.28 l 0,-90.47 c 0.55,-23.91 15.08,-45.27 37.11,-54.57 22.03,-9.3 47.46,-4.81 65,11.44 z"
             style="fill:#5b4697;fill-opacity:1;fill-rule:nonzero;stroke:none"
             id="path3350"
             inkscape:connector-curvature="0" />
          <path
             inkscape:export-ydpi="90"
             inkscape:export-xdpi="90"
             d="m -2809.502,731.4396 c -12.15,6.17 -22.27,15.74 -29.11,27.54 -7.07,12.46 -10.66,26.6 -10.43,40.93 l 0,97.5 c -0.27,14.26 3.32,28.32 10.43,40.67 6.96,11.52 17.07,20.86 29.11,26.83 13.51,6.76 28.43,10.12 43.51,9.77 15,0.27 29.88,-2.97 43.44,-9.53 11.99,-5.9 22.07,-15.08 29.1,-26.49 7.11,-12.07 10.7,-25.93 10.39,-39.96 0,-2.11 -1.48,-3.36 -4.57,-3.83 l -15.9,-1.13 -1.05,0 c -0.86,0 -1.72,0.28 -2.46,0.78 -0.67,0.43 -1.06,0.9 -1.06,1.41 l 0,2.11 c 0.67,15 -5.12,29.57 -15.9,40.04 -24.37,20.19 -59.68,20.19 -84.06,0 -10.74,-10.43 -16.52,-24.92 -15.9,-39.89 l 0,-99.1 c -0.62,-14.96 5.16,-29.45 15.9,-39.88 24.38,-20.16 59.69,-20.16 84.06,0 10.82,10.47 16.6,25.08 15.9,40.12 0,2.85 1.53,4.14 4.57,3.9 l 15.9,-0.74 c 3.09,0 4.57,-0.54 4.57,-1.72 l 0,-1.83 c 0.35,-14.22 -3.24,-28.32 -10.39,-40.63 -6.91,-11.6 -17.03,-20.97 -29.1,-26.99 -27.58,-12.81 -59.38,-12.81 -86.95,0 l 0,0.12 z"
             style="fill:#5b4697;fill-opacity:1;fill-rule:nonzero;stroke:none"
             id="path3352"
             inkscape:connector-curvature="0" />
          <path
             inkscape:export-ydpi="90"
             inkscape:export-xdpi="90"
             d="m -2467.512,972.4096 15.94,0 c 2.65,0.39 4.92,-1.87 4.57,-4.57 l 0,-238.32 c 0.35,-2.69 -1.92,-4.96 -4.57,-4.61 l -15.94,0 c -2.7,-0.43 -5,1.88 -4.65,4.61 l 0,107 c 0.16,1.05 -0.67,1.91 -1.72,1.79 l -111.95,0 c -1.06,0.2 -2,-0.74 -1.8,-1.79 l 0,-107 c 0.35,-2.69 -1.91,-4.96 -4.61,-4.61 l -15.9,0 c -2.65,-0.35 -4.92,1.92 -4.57,4.61 l 0,238.13 c -0.35,2.65 1.92,4.92 4.57,4.57 l 15.9,0 c 2.7,0.35 4.96,-1.92 4.61,-4.57 l 0,-105.7 c -0.12,-1.02 0.78,-1.88 1.8,-1.72 l 111.95,0 c 1.02,-0.08 1.84,0.74 1.72,1.72 l 0,105.7 c -0.55,2.77 1.87,5.27 4.65,4.76 z"
             style="fill:#5b4697;fill-opacity:1;fill-rule:nonzero;stroke:none"
             id="path3354"
             inkscape:connector-curvature="0" />
          <path
             inkscape:export-ydpi="90"
             inkscape:export-xdpi="90"
             d="m -2340.522,730.2696 c -12.03,4.6 -22.46,12.65 -30,23.08 -7.03,10.24 -10.66,22.38 -10.43,34.81 l 0,9.88 c -0.35,2.69 1.91,4.96 4.57,4.61 l 15,0 c 2.7,0.35 4.96,-1.92 4.57,-4.61 l 0,-8.48 c -0.16,-13.08 6.17,-25.39 16.95,-32.81 13.4,-9.14 29.42,-13.59 45.63,-12.77 14.69,-1.02 29.26,3.04 41.33,11.48 9.25,7.38 14.49,18.75 14.1,30.59 0.19,7.57 -2.11,15.04 -6.53,21.17 -5.46,6.83 -12.26,12.5 -19.96,16.64 -12.42,6.8 -25.27,12.81 -38.47,18.01 -14.07,5.39 -27.81,11.6 -41.17,18.51 -9.34,4.96 -17.47,11.96 -23.72,20.47 -6.28,9.34 -9.45,20.43 -8.98,31.64 -0.94,17.81 6.8,35 20.7,46.13 13.71,10.94 32.78,16.45 57,16.45 25.93,0 46.44,-6.13 61.48,-18.4 14.77,-11.8 23.09,-29.84 22.5,-48.75 l 0,-6.76 c 0.39,-2.65 -1.91,-4.92 -4.57,-4.57 l -15.51,0 c -2.69,-0.35 -4.96,1.92 -4.61,4.57 l 0,5.36 c 0.28,13.04 -5.58,25.46 -15.9,33.51 -13,9.49 -28.9,14.14 -45,13.13 -13.55,0.89 -27.03,-2.74 -38.32,-10.28 -9.06,-7.22 -14.06,-18.43 -13.28,-30 -0.27,-7.54 2.03,-14.96 6.57,-21.01 5.07,-6.14 11.48,-11.06 18.74,-14.46 8.09,-4.14 20.59,-9.49 37.5,-16.05 14.3,-5.67 28.21,-12.31 41.61,-19.81 10,-5.58 18.67,-13.24 25.43,-22.5 6.6,-9.33 10.04,-20.5 9.84,-31.95 0.55,-18.28 -7.5,-35.74 -21.76,-47.19 -14.49,-11.83 -34.65,-17.85 -60.62,-17.85 -15.28,-0.27 -30.47,2.5 -44.69,8.21 z"
             style="fill:#5b4697;fill-opacity:1;fill-rule:nonzero;stroke:none"
             id="path3356"
             inkscape:connector-curvature="0" />
          <path
             inkscape:export-ydpi="90"
             inkscape:export-xdpi="90"
             d="m -2114.622,731.4396 c -12.19,6.17 -22.31,15.74 -29.18,27.54 -7.03,12.5 -10.63,26.64 -10.43,40.93 l 0,97.5 c -0.24,14.26 3.36,28.32 10.43,40.67 6.99,11.56 17.11,20.86 29.18,26.83 13.47,6.76 28.36,10.12 43.44,9.77 15,0.31 29.88,-2.97 43.39,-9.53 12.07,-6.02 22.23,-15.31 29.18,-26.84 6.96,-12.03 10.47,-25.74 10.16,-39.61 0,-2.11 -1.6,-3.36 -4.61,-3.83 l -15.9,-1.13 -1.01,0 c -0.9,-0.04 -1.8,0.24 -2.5,0.78 -0.75,0.43 -1.06,0.9 -1.06,1.41 l 0,2.11 c 0.7,15 -5.12,29.57 -15.9,40.04 -24.37,20.19 -59.68,20.19 -84.06,0 -10.74,-10.43 -16.52,-24.92 -15.9,-39.89 l 0,-99.1 c -0.62,-14.96 5.16,-29.45 15.9,-39.88 11.45,-10.39 26.56,-15.78 41.99,-15 15.47,-0.7 30.55,4.69 42.07,15 10.82,10.47 16.6,25.08 15.9,40.12 0,2.85 1.53,4.14 4.57,3.9 l 15.9,-0.74 c 3.01,0 4.61,-0.54 4.61,-1.72 l 0,-1.83 c 0.31,-14.14 -3.32,-28.17 -10.43,-40.39 -6.95,-11.64 -17.07,-21.02 -29.18,-27.03 -27.54,-12.78 -59.34,-12.78 -86.87,0 l 0.31,-0.08 z"
             style="fill:#5b4697;fill-opacity:1;fill-rule:nonzero;stroke:none"
             id="path3358"
             inkscape:connector-curvature="0" />
          <path
             inkscape:export-ydpi="90"
             inkscape:export-xdpi="90"
             d="m -1772.712,972.4096 15.9,0 c 2.7,0.39 4.96,-1.87 4.61,-4.57 l 0,-238.32 c 0.35,-2.69 -1.91,-4.96 -4.61,-4.61 l -15.9,0 c -2.65,-0.35 -4.92,1.92 -4.57,4.61 l 0,107 c 0.16,1.05 -0.74,1.99 -1.79,1.79 l -111.88,0 c -1.21,0 -1.76,-0.58 -1.76,-1.79 l 0,-107 c 0.39,-2.73 -1.95,-5.04 -4.65,-4.61 l -16.09,0 c -2.7,-0.35 -4.96,1.92 -4.61,4.61 l 0,238.13 c -0.55,2.73 1.8,5.19 4.61,4.76 l 15.9,0 c 2.69,0.47 5.04,-1.83 4.65,-4.57 l 0,-105.89 c -0.63,-1.26 0.66,-2.58 1.95,-2.04 l 111.95,0 c 1.02,-0.11 1.92,0.71 1.8,1.76 l 0,105.98 c -0.55,2.69 1.76,5.15 4.49,4.76 z"
             style="fill:#5b4697;fill-opacity:1;fill-rule:nonzero;stroke:none"
             id="path3360"
             inkscape:connector-curvature="0" />
          <path
             inkscape:export-ydpi="90"
             inkscape:export-xdpi="90"
             d="m -1635.292,731.9796 c -12.42,6.21 -22.85,15.82 -30,27.74 -7.26,12.62 -10.89,26.95 -10.58,41.48 l 0,166.45 c -0.39,2.65 1.91,4.92 4.57,4.57 l 15.9,0 c 2.69,0.43 5.04,-1.88 4.65,-4.57 l 0,-167.11 c -0.55,-15.27 5.31,-30.08 16.21,-40.82 24.64,-20.98 60.86,-20.98 85.5,0 10.9,10.7 16.84,25.55 16.25,40.82 l 0,167.11 c -0.35,2.65 1.92,4.92 4.61,4.57 l 15.9,0 c 2.66,0.35 4.92,-1.92 4.57,-4.57 l 0,-166.45 c 0.31,-14.49 -3.28,-28.83 -10.43,-41.48 -6.95,-11.92 -17.19,-21.53 -29.49,-27.74 -27.81,-13.2 -60.12,-13.2 -87.97,0 l 0.31,0 z"
             style="fill:#5b4697;fill-opacity:1;fill-rule:nonzero;stroke:none"
             id="path3362"
             inkscape:connector-curvature="0" />
          <path
             inkscape:export-ydpi="90"
             inkscape:export-xdpi="90"
             d="m -1429.702,729.5196 0,238.13 c -0.39,2.69 1.95,5 4.65,4.57 l 15.9,0 c 2.65,0.35 4.92,-1.92 4.57,-4.57 l 0,-219.03 c -0.16,-1.01 0.7,-1.91 1.72,-1.79 l 123.28,0 c 2.69,0.39 4.96,-1.92 4.61,-4.57 l 0,-12.74 c 0.35,-2.69 -1.92,-4.96 -4.61,-4.61 l -145.47,0 c -2.7,-0.43 -5.04,1.88 -4.65,4.61 z"
             style="fill:#5b4697;fill-opacity:1;fill-rule:nonzero;stroke:none"
             id="path3364"
             inkscape:connector-curvature="0" />
          <path
             inkscape:export-ydpi="90"
             inkscape:export-xdpi="90"
             d="m -1059.502,949.9096 -128.56,0 c -1.05,0.2 -1.99,-0.74 -1.8,-1.79 l 0,-86.17 c -0.11,-1.02 0.79,-1.88 1.8,-1.72 l 90,0 c 2.66,0.39 4.96,-1.92 4.57,-4.57 l 0,-12.74 c 0.39,-2.69 -1.91,-4.96 -4.57,-4.61 l -90,0 c -1.05,0.2 -1.99,-0.74 -1.8,-1.79 l 0,-87.9 c -0.19,-1.05 0.75,-1.95 1.8,-1.79 l 128.56,0 c 2.69,0.43 5.03,-1.88 4.64,-4.57 l 0,-12.74 c 0.39,-2.73 -1.95,-5.04 -4.64,-4.61 l -150.83,0 c -2.69,-0.35 -4.96,1.92 -4.6,4.61 l 0,238.13 c -0.36,2.65 1.91,4.92 4.6,4.57 l 150.83,0 c 2.69,0.43 5.03,-1.88 4.64,-4.57 l 0,-12.78 c 0.71,-2.85 -1.79,-5.46 -4.64,-4.96 z"
             style="fill:#5b4697;fill-opacity:1;fill-rule:nonzero;stroke:none"
             id="path3366"
             inkscape:connector-curvature="0" />
          <path
             inkscape:export-ydpi="90"
             inkscape:export-xdpi="90"
             d="m -3201.892,302.0196 -43.51,96.06 c -0.32,1.09 -1.33,1.83 -2.46,1.79 l -32.11,0 c -1.21,0.16 -2.27,-0.85 -2.19,-2.1 l 0,-94.34 c 0.51,-3.48 -2.5,-6.48 -5.98,-6.02 l -37.5,0 c -3.51,-0.46 -6.48,2.54 -6.01,6.02 l 0,235.66 c -0.47,3.48 2.5,6.49 6.01,5.98 l 99.3,0 c 13.83,0.27 27.5,-2.93 39.77,-9.38 11.17,-6.01 20.39,-15.15 26.44,-26.32 6.41,-11.92 9.65,-25.32 9.38,-38.83 0.39,-14.69 -3.83,-29.14 -12,-41.33 -8.08,-11.56 -19.76,-20.16 -33.2,-24.37 -0.66,-0.16 -1.21,-0.63 -1.45,-1.29 -0.27,-0.55 -0.11,-1.21 0.4,-1.57 l 46.56,-97.5 c 0.74,-0.89 1.13,-1.99 1.13,-3.16 0,-1.13 -0.55,-2.19 -1.44,-2.85 -1.14,-0.74 -2.5,-1.1 -3.91,-1.06 l -39.88,0 c -3.17,-0.15 -6.14,1.68 -7.35,4.61 z m -80.27,197.89 0,-59.29 c -0.16,-1.29 0.94,-2.35 2.19,-2.19 l 45.9,0 c 8.9,-0.35 17.57,2.77 24.21,8.71 6.21,5.82 9.61,13.98 9.3,22.5 0.35,8.67 -3.05,17.11 -9.3,23.16 -6.52,6.1 -15.27,9.34 -24.21,8.99 l -45.9,0 c -1.41,0.16 -2.19,-0.51 -2.19,-1.88 z"
             style="fill:#5b4697;fill-opacity:1;fill-rule:nonzero;stroke:none"
             id="path3368"
             inkscape:connector-curvature="0" />
          <path
             inkscape:export-ydpi="90"
             inkscape:export-xdpi="90"
             d="m -2943.372,302.3696 -9.88,32.54 c -0.08,1.1 -1.06,1.92 -2.11,1.84 l -86.57,0 c -1.05,0.08 -2.03,-0.74 -2.11,-1.84 l -9.88,-32.85 c -0.82,-3.01 -3.63,-5.04 -6.76,-4.92 l -40.93,0 c -1.76,-0.16 -3.48,0.59 -4.57,1.95 -0.98,1.37 -1.14,3.21 -0.39,4.73 l 75,235.63 c 0.82,3 3.63,5.07 6.75,4.96 l 51.92,0 c 3.12,0.11 5.9,-1.96 6.72,-4.96 l 75,-235.63 c 0.31,-0.66 0.43,-1.41 0.39,-2.11 0.04,-1.25 -0.47,-2.5 -1.45,-3.32 -1.05,-0.9 -2.46,-1.37 -3.87,-1.25 l -40.97,0 c -3.05,0.12 -5.63,2.27 -6.29,5.23 z m -86.56,73.13 62.57,0 c 1.41,0 2.03,0.82 1.72,2.5 l -31.72,107.69 c 0,0.98 -0.7,1.41 -1.29,1.41 -0.58,0 -1.13,-0.43 -1.56,-1.41 l -31.44,-107.69 c -0.24,-1.68 0.7,-2.5 1.72,-2.5 z"
             style="fill:#5b4697;fill-opacity:1;fill-rule:nonzero;stroke:none"
             id="path3370"
             inkscape:connector-curvature="0" />
          <path
             inkscape:export-ydpi="90"
             inkscape:export-xdpi="90"
             d="m -2825.402,302.3696 -71.68,235.67 c -0.32,0.66 -0.43,1.37 -0.39,2.11 0,3.04 1.79,4.57 5.31,4.57 l 41.21,0 c 3.12,0.12 5.9,-1.95 6.72,-4.96 l 46.29,-170.24 c 0,-0.97 0.66,-1.44 1.4,-1.44 0.79,0 1.14,0.47 1.45,1.44 l 45.51,169.85 c 0.74,3.16 3.55,5.39 6.75,5.35 l 39.93,0 c 1.75,0.12 3.43,-0.59 4.57,-1.95 0.93,-1.41 1.09,-3.21 0.35,-4.73 l -72.74,-235.67 c -0.82,-3 -3.63,-5.03 -6.75,-4.96 l -40.94,0 c -3.2,-0.19 -6.13,1.88 -6.99,4.96 z"
             style="fill:#5b4697;fill-opacity:1;fill-rule:nonzero;stroke:none"
             id="path3372"
             inkscape:connector-curvature="0" />
          <path
             inkscape:export-ydpi="90"
             inkscape:export-xdpi="90"
             d="m -2488.722,501.9496 -113.79,0 c -1.21,0.23 -2.31,-0.86 -2.07,-2.08 l 0,-54.1 c -0.24,-1.25 0.86,-2.34 2.07,-2.11 l 74.06,0 c 3.48,0.51 6.45,-2.5 5.98,-5.97 l 0,-30.74 c 0.47,-3.52 -2.5,-6.49 -5.98,-6.02 l -73.91,0 c -1.25,0.23 -2.3,-0.86 -2.07,-2.11 l 0,-56.41 c -0.23,-1.21 0.82,-2.3 2.07,-2.07 l 113.64,0 c 3.51,0.47 6.48,-2.54 6.01,-6.01 l 0,-30.74 c 0.47,-3.52 -2.5,-6.49 -6.01,-6.02 l -159.73,0 c -3.52,-0.47 -6.48,2.5 -6.02,6.02 l 0,235.11 c -0.46,3.48 2.5,6.49 6.02,6.02 l 159.73,0 c 3.51,0.47 6.48,-2.54 6.01,-6.02 l 0,-30.74 c 0.47,-3.51 -2.5,-6.48 -6.01,-6.01 z"
             style="fill:#5b4697;fill-opacity:1;fill-rule:nonzero;stroke:none"
             id="path3374"
             inkscape:connector-curvature="0" />
          <path
             inkscape:export-ydpi="90"
             inkscape:export-xdpi="90"
             d="m -2433.962,303.4296 0,235.27 c -0.51,3.52 2.5,6.49 5.98,6.02 l 36.41,0 c 2.89,0.15 5.62,-1.37 7.03,-3.91 l 88.59,-146.91 c 0.43,-0.98 0.98,-1.29 1.56,-1.06 0.59,0.24 0.9,0.82 0.9,1.72 l 0,144.14 c -0.47,3.48 2.5,6.49 5.98,6.02 l 36.56,0 c 3.52,0.51 6.56,-2.5 6.05,-6.02 l 0,-235.27 c 0.51,-3.52 -2.53,-6.52 -6.05,-6.02 l -36.02,0 c -2.93,0.08 -5.62,1.72 -7.07,4.3 l -88.63,148.36 c -0.51,0.9 -1.05,1.25 -1.64,1.02 -0.62,-0.2 -0.82,-0.82 -0.82,-1.8 l 0,-145.86 c 0.47,-3.48 -2.54,-6.48 -6.02,-6.02 l -37.5,0 c -3.24,0 -5.74,2.82 -5.31,6.02 z"
             style="fill:#5b4697;fill-opacity:1;fill-rule:nonzero;stroke:none"
             id="path3376"
             inkscape:connector-curvature="0" />
          <path
             inkscape:export-ydpi="90"
             inkscape:export-xdpi="90"
             d="m -2152.122,303.8196 c -12.97,5.31 -24.1,14.3 -32.11,25.78 -7.7,11.49 -11.64,25.04 -11.33,38.87 l 0,5.98 c -0.47,3.51 2.54,6.48 6.02,6.01 l 37.11,0 c 3.98,0 6.01,-1.56 6.01,-4.57 l 0,-4.96 c 0.08,-9.61 4.92,-18.56 12.89,-23.87 9.88,-6.87 21.76,-10.31 33.75,-9.72 9.88,-0.79 19.73,2.07 27.7,7.93 5.78,4.88 9.1,12.1 8.98,19.64 0.12,5.36 -1.87,10.47 -5.62,14.26 -4.34,4.34 -9.42,7.81 -15,10.28 -6.37,2.92 -16.64,6.99 -30.75,12.14 -13.82,4.53 -27.3,10.08 -40.27,16.68 -10.78,5.55 -20.23,13.44 -27.62,23.09 -7.69,10.47 -11.64,23.24 -11.25,36.21 -0.27,13.24 3.56,26.21 10.98,37.15 7.66,10.86 18.24,19.3 30.51,24.37 14.26,5.9 29.57,8.75 45,8.48 16.48,0.23 32.85,-3.01 48.01,-9.53 13.28,-5.67 24.72,-14.92 33.08,-26.72 7.97,-11.68 12.11,-25.59 11.84,-39.73 l 0,-3.55 c 0.47,-3.48 -2.5,-6.45 -6.02,-5.98 l -37.5,0 c -3.94,0 -5.97,1.21 -5.97,3.52 l 0,3.51 c 0.03,9.89 -4.5,19.18 -12.23,25.28 -9.49,7.42 -21.37,11.09 -33.4,10.43 -9.22,0.58 -18.4,-1.92 -26.09,-7.03 -6.06,-4.58 -9.5,-11.84 -9.22,-19.46 -0.2,-5.47 1.72,-10.86 5.31,-15 4.57,-4.69 10.04,-8.44 16.06,-10.94 7.22,-3.28 18.32,-7.53 33.39,-12.73 16.49,-6.17 29.57,-11.52 39.22,-16.05 10.12,-4.97 18.99,-12.15 25.94,-21.02 8.01,-10.43 12.11,-23.32 11.56,-36.45 0.2,-13.35 -3.71,-26.4 -11.17,-37.5 -7.93,-11.25 -18.91,-20 -31.64,-25.19 -30.98,-12.03 -65.35,-12.03 -96.33,0 l 0.16,0.39 z"
             style="fill:#5b4697;fill-opacity:1;fill-rule:nonzero;stroke:none"
             id="path3378"
             inkscape:connector-curvature="0" />
          <path
             inkscape:export-ydpi="90"
             inkscape:export-xdpi="90"
             d="m -1818.292,425.4596 c 0.07,-0.7 0.5,-1.29 1.13,-1.56 22.11,-11.06 33.12,-30.16 33.12,-57.23 1.29,-20.08 -7.42,-39.45 -23.32,-51.76 -17.89,-12.38 -39.37,-18.51 -61.09,-17.5 l -90,0 c -3.52,-0.46 -6.48,2.54 -6.02,6.02 l 0,235.27 c -0.46,3.48 2.5,6.49 6.02,6.02 l 86.91,0 c 55.79,0 83.71,-22.5 83.71,-67.5 1.49,-21.25 -10.31,-41.25 -29.64,-50.2 -0.63,-0.23 -0.98,-0.9 -0.82,-1.56 z m -96.06,74.45 0,-54.37 c -0.15,-1.25 0.9,-2.31 2.15,-2.15 l 40.94,0 c 9.22,-0.66 18.4,1.99 25.82,7.5 6.13,5.27 9.49,13.05 9.14,21.13 0.39,8.28 -2.97,16.25 -9.14,21.76 -7.35,5.7 -16.53,8.56 -25.82,7.97 l -40.94,0 c -1.25,0.2 -2.15,-0.47 -2.15,-1.84 z m 71.37,-151.01 c 12.19,12.73 12.19,32.81 0,45.58 -7.23,5.71 -16.29,8.52 -25.47,7.93 l -43.44,0 c -1.25,0.16 -2.34,-0.89 -2.18,-2.14 l 0,-57.86 c 0,-1.4 0.74,-2.07 2.18,-2.07 l 43.44,0 c 9.26,-0.5 18.36,2.54 25.47,8.48 l 0,0.08 z"
             style="fill:#5b4697;fill-opacity:1;fill-rule:nonzero;stroke:none"
             id="path3380"
             inkscape:connector-curvature="0" />
          <path
             inkscape:export-ydpi="90"
             inkscape:export-xdpi="90"
             d="m -1689.152,304.9096 c -13.4,6.68 -24.57,17.11 -32.15,30 -7.85,13.48 -11.8,28.79 -11.49,44.34 l 0,159.45 c -0.46,3.52 2.5,6.49 5.98,6.02 l 37.5,0 c 3.52,0.47 6.48,-2.5 6.02,-6.02 l 0,-159.68 c -0.04,-23.05 18.63,-41.76 41.72,-41.76 23.04,0 41.71,18.71 41.67,41.76 l 0,159.68 c -0.46,3.52 2.5,6.49 6.02,6.02 l 37.5,0 c 3.48,0.47 6.48,-2.5 5.98,-6.02 l 0,-159.29 c 0.62,-15.51 -3.05,-30.9 -10.55,-44.5 -7.62,-12.89 -18.79,-23.32 -32.19,-30 -30.31,-14.22 -65.39,-14.22 -95.7,0 l -0.31,0 z"
             style="fill:#5b4697;fill-opacity:1;fill-rule:nonzero;stroke:none"
             id="path3382"
             inkscape:connector-curvature="0" />
          <path
             inkscape:export-ydpi="90"
             inkscape:export-xdpi="90"
             d="m -1364.702,302.0196 -43.44,96.06 c -0.35,1.05 -1.33,1.79 -2.46,1.79 l -32.19,0 c -1.21,0.16 -2.22,-0.85 -2.07,-2.1 l 0,-94.34 c 0.47,-3.48 -2.5,-6.48 -6.01,-6.02 l -37.5,0 c -3.48,-0.46 -6.49,2.54 -6.02,6.02 l 0,235.66 c -0.47,3.48 2.54,6.49 6.02,5.98 l 99.22,0 c 13.82,0.31 27.5,-2.93 39.76,-9.38 11.21,-6.01 20.43,-15.15 26.56,-26.32 6.37,-11.92 9.58,-25.32 9.3,-38.83 0.39,-14.69 -3.79,-29.14 -12.03,-41.33 -8.05,-11.6 -19.73,-20.16 -33.2,-24.37 -0.63,-0.2 -1.14,-0.67 -1.37,-1.29 -0.35,-0.47 -0.35,-1.1 0,-1.57 l 46.68,-97.5 c 0.66,-0.89 1.02,-2.03 1.02,-3.16 0.03,-1.13 -0.47,-2.19 -1.41,-2.85 -1.17,-0.74 -2.54,-1.1 -3.91,-1.06 l -39.88,0 c -3.09,-0.04 -5.86,1.76 -7.07,4.61 z m -80.16,197.89 0,-59.29 c 0,-1.45 0.67,-2.19 2.07,-2.19 l 45.94,0 c 8.87,-0.35 17.58,2.77 24.22,8.71 6.21,5.78 9.61,13.98 9.38,22.5 0.27,8.71 -3.13,17.11 -9.38,23.16 -6.56,6.14 -15.27,9.38 -24.22,8.99 l -45.94,0 c -1.13,0.19 -2.14,-0.7 -2.07,-1.88 z"
             style="fill:#5b4697;fill-opacity:1;fill-rule:nonzero;stroke:none"
             id="path3384"
             inkscape:connector-curvature="0" />
          <path
             inkscape:export-ydpi="90"
             inkscape:export-xdpi="90"
             d="m -1224.822,305.5396 c -13.43,6.91 -24.65,17.54 -32.34,30.58 -7.81,13.83 -11.8,29.5 -11.45,45.4 l 0,79.1 c -0.31,15.97 3.64,31.72 11.45,45.62 7.62,13.09 18.83,23.67 32.34,30.51 14.92,7.46 31.41,11.13 48.09,10.82 16.44,0.31 32.73,-3.32 47.46,-10.66 13.16,-6.49 24.3,-16.45 32.19,-28.79 7.65,-12.11 11.64,-26.14 11.44,-40.43 l 0,-0.67 c 0.51,-3.51 -2.5,-6.48 -5.97,-6.01 l -37.5,0 c -1.53,-0.08 -3.05,0.23 -4.42,0.82 -1.05,0.58 -1.6,1.29 -1.6,1.95 l 0,2.46 c 0.23,10.31 -3.87,20.28 -11.33,27.38 -17.46,15.16 -43.47,14.85 -60.58,-0.66 -7.82,-8.36 -11.96,-19.49 -11.49,-30.9 l 0,-82.15 c -0.43,-11.56 4.06,-22.81 12.38,-30.89 8.48,-7.97 19.81,-12.23 31.45,-11.84 10.63,-0.55 21.09,2.93 29.3,9.77 7.5,6.91 11.52,16.79 10.97,26.99 l 0,15.51 c 0,1.44 -0.7,2.18 -2.11,2.18 l -37.5,0 c -3.51,-0.54 -6.56,2.5 -6.01,6.02 l 0,28.94 c -0.47,3.48 2.5,6.49 6.01,5.98 l 82.5,0 c 3.48,0.51 6.49,-2.5 5.98,-5.98 l 0,-45 c 0.43,-16.29 -3.48,-32.38 -11.33,-46.68 -7.38,-12.96 -18.51,-23.39 -31.91,-30 -14.92,-7.14 -31.33,-10.74 -47.85,-10.39 -16.72,-0.35 -33.25,3.44 -48.17,11.02 z"
             style="fill:#5b4697;fill-opacity:1;fill-rule:nonzero;stroke:none"
             id="path3386"
             inkscape:connector-curvature="0" />
          <path
             inkscape:export-ydpi="90"
             inkscape:export-xdpi="90"
             d="m -1046.772,386.4396 0,30.97 c -0.47,3.52 2.5,6.49 6.02,6.02 l 111.95003,0 c 3.51,0.47 6.48,-2.5 6.01,-6.02 l 0,-30.74 c 0.55,-3.51 -2.5,-6.52 -6.01,-5.98 l -111.95003,0 c -3.4,-0.46 -6.33,2.35 -6.02,5.75 z"
             style="fill:#5b4697;fill-opacity:1;fill-rule:nonzero;stroke:none"
             id="path3388"
             inkscape:connector-curvature="0" />
          <path
             inkscape:export-ydpi="90"
             inkscape:export-xdpi="90"
             d="m -829.50197,302.7696 -62.15,235.27 c -0.16,0.55 -0.16,1.13 0,1.72 0,3.28 1.87,4.96 5.62,4.96 l 40.28,0 c 3.2,0.23 6.05,-2.11 6.36,-5.35 l 33.21,-140.9 c 0,-0.98 0.7,-1.45 1.44,-1.45 0.74,0 1.13,0.47 1.41,1.45 l 31.76,140.9 c 0.35,3.2 3.16,5.54 6.36,5.35 l 39.96,0 c 3.32,0.35 6.29,-2.03 6.68,-5.35 l 34.65,-140.9 c 0,-0.98 0.59,-1.45 1.21,-1.45 0.59,0 0.98,0.47 1.17,1.45 l 31.84,140.9 c 0.35,3.2 3.16,5.54 6.37,5.35 l 38.5496,0 c 1.68,0.15 3.32,-0.59 4.34,-1.95 0.86,-1.45 1.05,-3.17 0.51,-4.73 l -56.8396,-235.27 c -0.39,-3.32 -3.36,-5.71 -6.68,-5.36 l -38.83,0 c -3.32,-0.35 -6.33,2.04 -6.76,5.36 l -35.35,150 c 0,0.97 -0.66,1.4 -1.4,1.4 -0.75,0 -1.14,-0.43 -1.45,-1.4 l -32.81,-150 c -0.31,-3.21 -3.13,-5.59 -6.33,-5.36 l -36.05,0 c -3.44,-0.54 -6.68,1.88 -7.07,5.36 z"
             style="fill:#5b4697;fill-opacity:1;fill-rule:nonzero;stroke:none"
             id="path3390"
             inkscape:connector-curvature="0" />
          <path
             inkscape:export-ydpi="90"
             inkscape:export-xdpi="90"
             d="m -394.35237,501.9496 -113.71,0 c -1.21,0.23 -2.3,-0.86 -2.07,-2.08 l 0,-54.1 c -0.23,-1.25 0.86,-2.34 2.07,-2.11 l 73.83,0 c 3.48,0.51 6.48,-2.5 5.98,-5.97 l 0,-30.74 c 0.5,-3.52 -2.5,-6.49 -5.98,-6.02 l -73.83,0 c -1.21,0.23 -2.3,-0.86 -2.07,-2.11 l 0,-56.41 c -0.23,-1.21 0.86,-2.3 2.07,-2.07 l 113.71,0 c 3.52,0.47 6.49,-2.54 6.02,-6.01 l 0,-30.74 c 0.47,-3.52 -2.5,-6.49 -6.02,-6.02 l -159.69,0 c -3.47,-0.47 -6.44,2.5 -5.97,6.02 l 0,235.11 c -0.47,3.48 2.5,6.49 5.97,6.02 l 159.69,0 c 3.52,0.47 6.49,-2.54 6.02,-6.02 l 0,-30.74 c 0.47,-3.51 -2.5,-6.48 -6.02,-6.01 z"
             style="fill:#5b4697;fill-opacity:1;fill-rule:nonzero;stroke:none"
             id="path3392"
             inkscape:connector-curvature="0" />
          <path
             inkscape:export-ydpi="90"
             inkscape:export-xdpi="90"
             d="m -339.58237,303.4296 0,235.27 c -0.51,3.52 2.54,6.53 6.05,6.02 l 37.5,0 c 3.52,0.47 6.49,-2.5 6.02,-6.02 l 0,-235.27 c 0.47,-3.48 -2.5,-6.48 -6.02,-6.02 l -37.5,0 c -3.51,-0.5 -6.56,2.5 -6.05,6.02 z"
             style="fill:#5b4697;fill-opacity:1;fill-rule:nonzero;stroke:none"
             id="path3394"
             inkscape:connector-curvature="0" />
          <path
             inkscape:export-ydpi="90"
             inkscape:export-xdpi="90"
             d="m -232.51237,303.4296 0,235.27 c -0.47,3.52 2.54,6.49 6.01,6.02 l 36.37,0 c 2.89,0.08 5.59,-1.41 7.07,-3.91 l 88.28,-146.91 c 0.51,-0.98 1.02,-1.29 1.64,-1.06 0.59,0.24 0.82,0.82 0.82,1.72 l 0,144.14 c -0.47,3.48 2.5,6.49 6.02,6.02 l 37.500001,0 c 3.47,0.47 6.44,-2.54 5.97,-6.02 l 0,-235.27 c 0.47,-3.48 -2.5,-6.48 -5.97,-6.02 l -36.020001,0 c -2.97,0.08 -5.66,1.68 -7.11,4.3 l -89.02,148.36 c -0.47,0.9 -0.98,1.25 -1.6,1.02 -0.59,-0.2 -0.9,-0.82 -0.9,-1.8 l 0.39,-145.86 c 0.47,-3.48 -2.5,-6.48 -6.01,-6.02 l -37.5,0 c -3.48,-0.39 -6.41,2.54 -5.94,6.02 z"
             style="fill:#5b4697;fill-opacity:1;fill-rule:nonzero;stroke:none"
             id="path3396"
             inkscape:connector-curvature="0" />
          <path
             inkscape:export-ydpi="90"
             inkscape:export-xdpi="90"
             d="m 52.877631,305.5396 c -13.440001,6.91 -24.65,17.54 -32.31,30.58 -7.85,13.83 -11.83,29.5 -11.48,45.4 l 0,79.1 c -0.31,15.97 3.63,31.72 11.48,45.62 7.579999,13.09 18.829999,23.67 32.31,30.51 30.23,14.3 65.309999,14.3 95.549999,0 13.16,-6.48 24.29,-16.45 32.18,-28.79 7.66,-12.07 11.64,-26.13 11.49,-40.43 l 0,-0.66 c 0.47,-3.52 -2.54,-6.49 -6.02,-6.02 l -37.5,0 c -1.52,-0.04 -3.05,0.24 -4.41,0.82 -1.06,0.63 -1.6,1.29 -1.6,1.95 l 0,2.5 c 0.23,10.28 -3.87,20.2 -11.33,27.35 -17.46,15.15 -43.479999,14.84 -60.589999,-0.67 -7.81,-8.32 -11.95,-19.49 -11.48,-30.89 l 0,-82 c -0.43,-11.56 4.06,-22.81 12.38,-30.89 8.48,-7.97 19.8,-12.23 31.449999,-11.84 10.62,-0.55 21.09,2.93 29.29,9.77 7.5,6.91 11.53,16.79 10.98,26.99 l 0,15.51 c 0,1.44 -0.7,2.18 -2.11,2.18 l -37.5,0 c -3.52,-0.54 -6.559999,2.5 -6.019999,6.02 l 0,28.94 c -0.47,3.48 2.499999,6.49 6.019999,5.98 l 82.5,0 c 3.48,0.51 6.48,-2.5 5.98,-5.98 l 0,-45 c 0.43,-16.29 -3.48,-32.38 -11.29,-46.68 -7.42,-12.96 -18.56,-23.39 -31.96,-30 -14.92,-7.14 -31.32,-10.74 -47.85,-10.39 -16.719999,-0.35 -33.239999,3.44 -48.159999,11.02 z"
             style="fill:#5b4697;fill-opacity:1;fill-rule:nonzero;stroke:none"
             id="path3398"
             inkscape:connector-curvature="0" />
          <path
             inkscape:export-ydpi="90"
             inkscape:export-xdpi="90"
             d="m 389.04763,302.3696 -9.77,32.54 c -0.07,1.1 -1.01,1.92 -2.11,1.84 l -86.56,0 c -1.05,0.08 -1.99,-0.74 -2.07,-1.84 l -9.92,-32.85 c -0.82,-3.01 -3.63,-5.04 -6.76,-4.92 l -40.93,0 c -1.76,-0.16 -3.48,0.59 -4.58,1.95 -0.85,1.45 -0.85,3.25 0,4.73 l 75,235.63 c 0.82,3 3.64,5.07 6.76,4.96 l 51.88,0 c 3.12,0.11 5.94,-1.96 6.76,-4.96 l 75,-235.63 c 0.31,-0.66 0.42,-1.41 0.39,-2.11 0.03,-1.25 -0.47,-2.5 -1.45,-3.32 -1.05,-0.9 -2.46,-1.37 -3.87,-1.25 l -40.97,0 c -3.25,-0.12 -6.1,2.07 -6.84,5.23 l 0.04,0 z m -86.56,73.13 62.54,0 c 1.44,0 1.95,0.82 1.72,2.5 l -31.8,107.69 c 0,0.98 -0.59,1.41 -1.17,1.41 -0.63,0 -1.14,-0.43 -1.61,-1.41 l -31.4,-107.69 c -0.16,-1.68 0.43,-2.5 1.87,-2.5 l -0.15,0 z"
             style="fill:#5b4697;fill-opacity:1;fill-rule:nonzero;stroke:none"
             id="path3400"
             inkscape:connector-curvature="0" />
          <path
             inkscape:export-ydpi="90"
             inkscape:export-xdpi="90"
             d="m 618.06763,302.0196 -43.4,96.06 c -0.39,1.05 -1.36,1.79 -2.5,1.79 l -32.14,0 c -1.25,0.16 -2.27,-0.85 -2.11,-2.1 l 0,-94.34 c 0.47,-3.48 -2.5,-6.48 -6.02,-6.02 l -37.5,0 c -3.47,-0.46 -6.48,2.54 -5.97,6.02 l 0,235.66 c -0.51,3.48 2.5,6.49 5.97,5.98 l 99.22,0 c 13.83,0.31 27.5,-2.93 39.77,-9.38 11.21,-6.01 20.43,-15.15 26.56,-26.32 6.37,-11.92 9.57,-25.32 9.3,-38.83 0.39,-14.69 -3.79,-29.14 -12.04,-41.33 -8.04,-11.6 -19.72,-20.16 -33.2,-24.37 -0.62,-0.2 -1.13,-0.67 -1.37,-1.29 -0.35,-0.47 -0.35,-1.1 0,-1.57 l 46.68,-97.5 c 0.67,-0.89 1.02,-2.03 1.02,-3.16 0.04,-1.13 -0.47,-2.19 -1.41,-2.85 -1.17,-0.74 -2.54,-1.1 -3.9,-1.06 l -39.89,0 c -3.08,-0.04 -5.86,1.76 -7.07,4.61 z m -80.15,197.89 0,-59.29 c 0,-1.45 0.66,-2.19 2.11,-2.19 l 45.9,0 c 8.86,-0.35 17.57,2.77 24.21,8.71 6.21,5.78 9.61,13.98 9.38,22.5 0.27,8.71 -3.13,17.11 -9.38,23.16 -6.56,6.14 -15.27,9.38 -24.21,8.99 l -45.9,0 c -1.18,0.19 -2.19,-0.7 -2.11,-1.88 z"
             style="fill:#5b4697;fill-opacity:1;fill-rule:nonzero;stroke:none"
             id="path3402"
             inkscape:connector-curvature="0" />
          <path
             inkscape:export-ydpi="90"
             inkscape:export-xdpi="90"
             d="m 893.61763,538.6996 0,-31.29 c 0.51,-3.47 -2.5,-6.44 -5.98,-5.97 l -61.13,0 c -1.25,0.23 -2.34,-0.86 -2.11,-2.11 l 0,-195.9 c 0.47,-3.48 -2.5,-6.48 -5.97,-6.02 l -37.5,0 c -3.52,-0.46 -6.49,2.54 -6.02,6.02 l 0,196.05 c 0,1.41 -0.74,2.11 -2.19,2.11 l -59.29,0 c -3.52,-0.5 -6.49,2.5 -6.02,5.98 l 0,31.13 c -0.47,3.52 2.5,6.49 6.02,6.02 l 174.49,0 c 3.4,0.27 6.17,-2.66 5.7,-6.02 z"
             style="fill:#5b4697;fill-opacity:1;fill-rule:nonzero;stroke:none"
             id="path3404"
             inkscape:connector-curvature="0" />
          <path
             inkscape:export-ydpi="90"
             inkscape:export-xdpi="90"
             d="m 1105.2177,501.9496 -113.71005,0 c -1.44,0 -2.19,-0.67 -2.19,-2.08 l 0,-54.1 c 0,-1.4 0.75,-2.11 2.19,-2.11 l 73.79005,0 c 3.52,0.51 6.48,-2.5 6.02,-5.97 l 0,-30.74 c 0.46,-3.52 -2.5,-6.49 -6.02,-6.02 l -73.79005,0 c -1.44,0 -2.19,-0.66 -2.19,-2.11 l 0,-56.41 c 0,-1.4 0.75,-2.07 2.19,-2.07 l 113.71005,0 c 3.48,0.47 6.49,-2.54 5.98,-6.01 l 0,-30.74 c 0.51,-3.52 -2.5,-6.49 -5.98,-6.02 l -159.69005,0 c -3.47,-0.47 -6.48,2.5 -6.01,6.02 l 0,235.11 c -0.47,3.48 2.54,6.49 6.01,6.02 l 159.69005,0 c 3.48,0.47 6.49,-2.54 5.98,-6.02 l 0,-30.74 c 0.51,-3.51 -2.5,-6.48 -5.98,-6.01 z"
             style="fill:#5b4697;fill-opacity:1;fill-rule:nonzero;stroke:none"
             id="path3406"
             inkscape:connector-curvature="0" />
          <path
             inkscape:export-ydpi="90"
             inkscape:export-xdpi="90"
             d="m 1159.9477,303.4296 0,235.27 c -0.47,3.52 2.5,6.49 6.01,6.02 l 36.37,0 c 2.93,0.08 5.63,-1.41 7.11,-3.91 l 88.28,-146.91 c 0.47,-0.98 0.98,-1.29 1.6,-1.06 0.59,0.24 0.9,0.82 0.9,1.72 l 0,144.14 c -0.51,3.48 2.5,6.49 5.98,6.02 l 37.5,0 c 3.51,0.47 6.48,-2.54 6.01,-6.02 l 0,-235.27 c 0.47,-3.48 -2.5,-6.48 -6.01,-6.02 l -36.06,0 c -2.97,0.08 -5.62,1.72 -7.07,4.3 l -88.63,148.36 c -0.47,0.9 -0.98,1.25 -1.6,1.02 -0.59,-0.2 -0.9,-0.82 -0.9,-1.8 l 0,-145.86 c 0.51,-3.52 -2.54,-6.52 -6.05,-6.02 l -37.5,0 c -3.48,-0.39 -6.41,2.54 -5.94,6.02 z"
             style="fill:#5b4697;fill-opacity:1;fill-rule:nonzero;stroke:none"
             id="path3408"
             inkscape:connector-curvature="0" />
          <path
             inkscape:export-ydpi="90"
             inkscape:export-xdpi="90"
             d="m -3290.092,-122.5904 c -13.36,6.719 -24.53,17.148 -32.11,30 -7.81,13.48 -11.8,28.789 -11.48,44.34 l 0,159.45 c -0.47,3.52 2.53,6.49 6.01,6.02 l 37.5,0 c 3.48,0.47 6.49,-2.5 6.02,-6.02 l 0,-159.681 c -1.02,-23.679 17.93,-43.437 41.64,-43.437 23.75,0 42.65,19.758 41.68,43.437 l 0,159.681 c -0.51,3.52 2.5,6.49 5.97,6.02 l 37.5,0 c 3.52,0.47 6.49,-2.5 6.02,-6.02 l 0,-159.29 c 0.51,-15.551 -3.24,-30.942 -10.86,-44.5 -7.62,-12.852 -18.75,-23.281 -32.11,-30 -30.35,-14.18 -65.43,-14.18 -95.78,0 z"
             style="fill:#00a8d7;fill-opacity:1;fill-rule:nonzero;stroke:none"
             id="path3410"
             inkscape:connector-curvature="0" />
          <path
             inkscape:export-ydpi="90"
             inkscape:export-xdpi="90"
             d="m -3095.642,-124.0714 0,235.271 c -0.47,3.52 2.54,6.49 6.02,6.02 l 36.17,0 c 3.01,0.23 5.94,-1.29 7.5,-3.91 l 88.24,-146.91 c 0.47,-0.98 0.98,-1.29 1.6,-1.06 0.59,0.24 0.9,0.82 0.9,1.72 l 0,144.14 c -0.47,3.52 2.5,6.49 5.98,6.02 l 37.15,0 c 3.47,0.47 6.48,-2.5 5.97,-6.02 l 0,-235.271 c 0.51,-3.48 -2.5,-6.48 -5.97,-5.98 l -36.37,0 c -2.97,0.082 -5.62,1.68 -7.07,4.262 l -88.63,148.359 c -0.47,0.9 -0.98,1.25 -1.6,1.05 -0.59,-0.23 -0.9,-0.85 -0.9,-1.83 l 0.7,-145.861 c 0.47,-3.519 -2.58,-6.519 -6.09,-6.019 l -37.5,0 c -3.52,-0.5 -6.57,2.5 -6.1,6.019 z"
             style="fill:#00a8d7;fill-opacity:1;fill-rule:nonzero;stroke:none"
             id="path3412"
             inkscape:connector-curvature="0" />
          <path
             inkscape:export-ydpi="90"
             inkscape:export-xdpi="90"
             d="m -2849.042,-124.0714 0,235.271 c -0.46,3.52 2.54,6.49 6.02,6.02 l 37.5,0 c 3.48,0.47 6.48,-2.5 6.02,-6.02 l 0,-235.271 c 0.46,-3.48 -2.54,-6.48 -6.02,-6.019 l -37.5,0 c -3.48,-0.461 -6.48,2.539 -6.02,6.019 z"
             style="fill:#00a8d7;fill-opacity:1;fill-rule:nonzero;stroke:none"
             id="path3414"
             inkscape:connector-curvature="0" />
          <path
             inkscape:export-ydpi="90"
             inkscape:export-xdpi="90"
             d="m -2681.262,-125.1294 -71.68,235.669 c -0.28,0.66 -0.43,1.37 -0.39,2.11 0,3.04 1.79,4.57 5.35,4.57 l 40.94,0 c 3.12,0.12 5.89,-1.95 6.68,-4.96 l 46.29,-170.241 c 0,-0.969 0.74,-1.437 1.4,-1.437 0.67,0 1.21,0.468 1.45,1.437 l 45.58,169.851 c 0.67,3.16 3.48,5.39 6.68,5.35 l 39.89,0 c 1.79,0.15 3.51,-0.59 4.64,-1.95 0.86,-1.49 0.86,-3.29 0,-4.73 l -72.73,-235.669 c -0.78,-3 -3.56,-5.071 -6.68,-4.961 l -41.02,0 c -3,0.039 -5.62,2.07 -6.36,4.961 l -0.04,0 z"
             style="fill:#00a8d7;fill-opacity:1;fill-rule:nonzero;stroke:none"
             id="path3416"
             inkscape:connector-curvature="0" />
          <path
             inkscape:export-ydpi="90"
             inkscape:export-xdpi="90"
             d="m -2344.662,74.4496 -113.67,0 c -1.25,0.23 -2.35,-0.86 -2.11,-2.08 l 0,-54.1 c -0.24,-1.25 0.86,-2.34 2.11,-2.11 l 73.79,0 c 3.47,0.51 6.48,-2.5 6.01,-5.97 l 0,-30.74 c 0.47,-3.52 -2.54,-6.49 -6.01,-6.02 l -73.79,0 c -1.25,0.23 -2.35,-0.86 -2.11,-2.11 l 0,-56.41 c -0.24,-1.211 0.86,-2.301 2.11,-2.07 l 113.67,0 c 3.55,0.511 6.6,-2.5 6.09,-6.008 l 0,-30.742 c 0.51,-3.559 -2.54,-6.532 -6.09,-6.02 l -159.57,0 c -3.52,-0.512 -6.56,2.461 -6.1,6.02 l 0,235.11 c -0.46,3.52 2.58,6.53 6.1,6.02 l 159.57,0 c 3.55,0.51 6.6,-2.5 6.09,-6.02 l 0,-30.74 c 0.51,-3.55 -2.54,-6.52 -6.09,-6.01 z"
             style="fill:#00a8d7;fill-opacity:1;fill-rule:nonzero;stroke:none"
             id="path3418"
             inkscape:connector-curvature="0" />
          <path
             inkscape:export-ydpi="90"
             inkscape:export-xdpi="90"
             d="m -2159.862,-125.4814 -43.39,96.061 c -0.36,1.05 -1.37,1.79 -2.5,1.79 l -32.15,0 c -1.25,0.16 -2.27,-0.85 -2.11,-2.1 l 0,-94.341 c 0.47,-3.48 -2.5,-6.48 -6.02,-6.019 l -37.5,0 c -3.47,-0.461 -6.48,2.539 -5.97,6.019 l 0,235.661 c -0.51,3.48 2.5,6.49 5.97,5.98 l 99.22,0 c 13.83,0.31 27.54,-2.93 39.77,-9.38 11.21,-6.01 20.39,-15.15 26.48,-26.32 6.37,-11.92 9.61,-25.32 9.38,-38.83 0.39,-14.69 -3.79,-29.14 -12,-41.33 -8.08,-11.6 -19.76,-20.16 -33.24,-24.37 -0.66,-0.2 -1.17,-0.67 -1.41,-1.29 -0.35,-0.47 -0.35,-1.1 0,-1.57 l 46.65,-97.5 c 0.66,-0.89 1.01,-2.031 1.05,-3.16 0,-1.129 -0.51,-2.191 -1.44,-2.852 -1.18,-0.738 -2.5,-1.097 -3.91,-1.058 l -39.88,0 c -3.05,0 -5.79,1.801 -7,4.609 z m -80.15,197.891 0,-59.29 c 0,-1.45 0.66,-2.19 2.11,-2.19 l 45.9,0 c 8.86,-0.35 17.57,2.77 24.21,8.71 6.22,5.78 9.61,13.98 9.38,22.5 0.27,8.71 -3.13,17.11 -9.38,23.16 -6.56,6.14 -15.27,9.38 -24.21,8.99 l -45.9,0 c -1.17,0.19 -2.19,-0.7 -2.11,-1.88 z"
             style="fill:#00a8d7;fill-opacity:1;fill-rule:nonzero;stroke:none"
             id="path3420"
             inkscape:connector-curvature="0" />
          <path
             inkscape:export-ydpi="90"
             inkscape:export-xdpi="90"
             d="m -2023.492,-123.6804 c -12.97,5.352 -24.14,14.301 -32.19,25.781 -7.61,11.489 -11.56,25.078 -11.25,38.867 l 0,5.981 c -0.47,3.512 2.5,6.48 6.02,6.012 l 37.03,0 c 4.06,0 6.02,-1.563 6.02,-4.571 l 0,-4.961 c 0.07,-9.609 4.92,-18.519 12.89,-23.871 9.88,-6.867 21.72,-10.308 33.75,-9.718 9.92,-0.79 19.76,2.07 27.77,7.929 5.78,4.879 9.1,12.102 8.98,19.641 0.12,5.359 -1.91,10.512 -5.7,14.262 -4.33,4.339 -9.41,7.808 -15,10.278 -6.37,2.92 -16.56,6.99 -30.74,12.14 -13.83,4.57 -27.31,10.12 -40.27,16.68 -10.79,5.59 -20.16,13.44 -27.54,23.09 -7.78,10.43 -11.76,23.2 -11.33,36.21 -0.28,13.2 3.55,26.17 10.98,37.15 7.65,10.86 18.28,19.33 30.58,24.37 14.26,5.9 29.57,8.79 45,8.48 16.52,0.23 32.89,-3.01 48.09,-9.53 13.24,-5.7 24.65,-14.92 32.97,-26.72 8.04,-11.68 12.18,-25.59 11.87,-39.73 l 0,-3.55 c 0.47,-3.48 -2.5,-6.45 -6.01,-5.98 l -37.04,0 c -4.06,0 -6.09,1.21 -6.09,3.52 l 0,3.51 c 0.04,9.85 -4.45,19.18 -12.15,25.28 -9.49,7.38 -21.37,11.09 -33.36,10.43 -9.26,0.58 -18.47,-1.92 -26.17,-7.03 -6.05,-4.61 -9.45,-11.88 -9.18,-19.46 -0.19,-5.47 1.68,-10.82 5.27,-15 4.57,-4.69 10.04,-8.44 16.14,-10.94 7.18,-3.28 18.32,-7.53 33.36,-12.73 16.48,-6.17 29.57,-11.52 39.22,-16.05 10.11,-5 18.98,-12.15 25.93,-21.02 8.01,-10.43 12.07,-23.32 11.49,-36.449 0.19,-13.321 -3.68,-26.403 -11.1,-37.5 -7.89,-11.172 -18.82,-19.879 -31.48,-25.031 -15.2,-6.219 -31.49,-9.219 -47.85,-8.872 -16.76,-0.468 -33.44,2.622 -48.91,9.102 z"
             style="fill:#00a8d7;fill-opacity:1;fill-rule:nonzero;stroke:none"
             id="path3422"
             inkscape:connector-curvature="0" />
          <path
             inkscape:export-ydpi="90"
             inkscape:export-xdpi="90"
             d="m -1835.562,-124.0714 0,235.271 c -0.47,3.52 2.54,6.49 6.02,6.02 l 37.5,0 c 3.47,0.47 6.48,-2.5 6.01,-6.02 l 0,-235.271 c 0.47,-3.48 -2.54,-6.48 -6.01,-6.019 l -37.5,0 c -3.48,-0.461 -6.49,2.539 -6.02,6.019 z"
             style="fill:#00a8d7;fill-opacity:1;fill-rule:nonzero;stroke:none"
             id="path3424"
             inkscape:connector-curvature="0" />
          <path
             inkscape:export-ydpi="90"
             inkscape:export-xdpi="90"
             d="m -1553.452,111.1996 0,-31.29 c 0.47,-3.47 -2.54,-6.44 -6.02,-5.97 l -61.48,0 c -1.25,0.23 -2.34,-0.86 -2.11,-2.11 l 0,-195.901 c 0.47,-3.48 -2.5,-6.48 -6.01,-6.019 l -37.5,0 c -3.48,-0.461 -6.49,2.539 -5.98,6.019 l 0,196.051 c 0.15,1.21 -0.9,2.27 -2.11,2.11 l -59.57,0 c -3.48,-0.5 -6.49,2.5 -5.98,5.98 l 0,31.13 c -0.51,3.52 2.5,6.49 5.98,6.02 l 174.53,0 c 3.59,0.62 6.76,-2.42 6.25,-6.02 z"
             style="fill:#00a8d7;fill-opacity:1;fill-rule:nonzero;stroke:none"
             id="path3426"
             inkscape:connector-curvature="0" />
          <path
             inkscape:export-ydpi="90"
             inkscape:export-xdpi="90"
             d="m -1445.252,-123.6804 0,87.23 -0.66,2.85 -71.41,143.51 c -0.62,0.98 -0.97,2.04 -1.05,3.17 -0.04,1.13 0.51,2.19 1.44,2.85 1.14,0.74 2.5,1.13 3.87,1.05 l 40.98,0 c 3.04,0.04 5.86,-1.75 7.03,-4.57 l 43.12,-91.87 c 0.32,-0.63 0.9,-1.02 1.6,-1.06 0.59,0 0.98,0.36 1.26,1.06 l 43.04,91.87 c 1.21,2.82 3.99,4.61 7.07,4.57 l 41.41,0 c 3.51,0 5.23,-1.44 5.23,-4.21 0.04,-0.98 -0.19,-1.96 -0.66,-2.86 l -72.07,-143.75 -0.78,-2.85 0,-87.22 c 0.58,-3.52 -2.46,-6.571 -5.98,-6.02 l -37.5,0 c -3.59,-0.469 -6.56,2.699 -5.94,6.25 z"
             style="fill:#00a8d7;fill-opacity:1;fill-rule:nonzero;stroke:none"
             id="path3428"
             inkscape:connector-curvature="0" />
          <path
             inkscape:export-ydpi="90"
             inkscape:export-xdpi="90"
             d="m -3288.142,-550.0904 c -12.42,6.57 -22.65,16.57 -29.49,28.832 -7.15,13.129 -10.74,27.93 -10.43,42.887 l 0,88.953 c -0.31,14.957 3.28,29.758 10.43,42.886 6.84,12.262 17.07,22.262 29.49,28.832 27.89,13.668 60.59,13.668 88.48,0 12.62,-6.492 23.05,-16.492 30,-28.832 7.15,-13.168 10.74,-27.929 10.43,-42.886 l 0,-89.032 c 0.31,-14.96 -3.28,-29.718 -10.43,-42.89 -6.95,-12.34 -17.38,-22.34 -30,-28.789 -27.89,-13.711 -60.59,-13.711 -88.48,0 l 0,0.039 z m 87.31,27.539 c 11.05,11.57 16.91,27.152 16.17,43.133 l 0,90.386 c 0.74,16.012 -5.12,31.641 -16.17,43.282 -24.46,21.871 -61.45,21.871 -85.9,0 -11.06,-11.641 -16.95,-27.27 -16.25,-43.282 l 0,-90.468 c 0.58,-23.91 15.12,-45.231 37.15,-54.532 22.03,-9.296 47.46,-4.847 65,11.403 l 0,0.078 z"
             style="fill:#00a8d7;fill-opacity:1;fill-rule:nonzero;stroke:none"
             id="path3430"
             inkscape:connector-curvature="0" />
          <path
             inkscape:export-ydpi="90"
             inkscape:export-xdpi="90"
             d="m -2931.382,-332.5904 -128.16,0 c -1.06,0.199 -1.96,-0.738 -1.8,-1.789 l 0,-86.531 c -0.12,-1.051 0.78,-1.872 1.8,-1.75 l 89.33,0 c 2.66,0.39 4.92,-1.879 4.57,-4.571 l 0,-12.738 c 0.35,-2.66 -1.91,-4.961 -4.57,-4.57 l -89.33,0 c -1.06,0.16 -1.96,-0.743 -1.8,-1.801 l 0,-107.031 c 0.39,-2.649 -1.91,-4.957 -4.57,-4.571 l -15.9,0 c -2.66,-0.386 -4.96,1.922 -4.57,4.571 l 0,238.519 c -0.39,2.652 1.91,4.922 4.57,4.57 l 150.43,0 c 2.7,0.43 5.04,-1.878 4.65,-4.57 l 0,-12.777 c 0.7,-2.852 -1.76,-5.461 -4.65,-4.961 z"
             style="fill:#00a8d7;fill-opacity:1;fill-rule:nonzero;stroke:none"
             id="path3432"
             inkscape:connector-curvature="0" />
          <path
             inkscape:export-ydpi="90"
             inkscape:export-xdpi="90"
             d="m -2644.502,-553.6804 -14.18,43.051 c -0.43,0.969 -1.06,1.437 -1.72,1.437 l -105,0 c -0.67,0 -1.25,-0.468 -1.72,-1.437 l -13.79,-43.051 c -0.39,-2.379 -2.54,-4.059 -4.96,-3.91 l -16.96,0 c -1.32,-0.149 -2.65,0.39 -3.51,1.449 -0.78,1.172 -0.9,2.621 -0.39,3.91 l 77.69,238.039 c 0.43,2.383 2.58,4.063 4.97,3.91 l 22.5,0 c 2.42,0.153 4.53,-1.527 4.96,-3.91 l 78.16,-238.039 c 0.12,-0.59 0.12,-1.219 0,-1.801 0,-0.976 -0.47,-1.878 -1.21,-2.5 -0.86,-0.668 -1.91,-1.058 -3.01,-1.058 l -16.95,0 c -2.38,-0.11 -4.49,1.57 -4.88,3.91 z m -113.75,64.961 90.82,0 c 1.32,0 1.87,0.738 1.32,2.187 l -45.89,144.454 c 0,0.976 -0.59,1.41 -1.06,1.41 -0.43,0 -0.82,-0.434 -1.01,-1.41 l -45.63,-144.454 c -0.23,-1.449 0.23,-2.187 1.45,-2.187 z"
             style="fill:#00a8d7;fill-opacity:1;fill-rule:nonzero;stroke:none"
             id="path3434"
             inkscape:connector-curvature="0" />
          <path
             inkscape:export-ydpi="90"
             inkscape:export-xdpi="90"
             d="m -2414.392,-329.0324 c 12.89,-13.437 19.73,-31.519 18.91,-50.117 0.82,-18.441 -6.17,-36.402 -19.22,-49.492 -13.71,-12.769 -31.99,-19.488 -50.7,-18.668 l -68.56,0 c -1.05,0.149 -1.95,-0.742 -1.79,-1.801 l 0,-103.871 c 0.39,-2.687 -1.92,-4.961 -4.58,-4.609 l -15.89,0 c -2.66,-0.352 -4.96,1.922 -4.57,4.609 l 0,238.481 c -0.39,2.66 1.91,4.961 4.57,4.57 l 91.87,0 c 18.6,0.781 36.64,-6.129 49.96,-19.102 z m -18.9,-84.609 c 8.9,9.063 13.67,21.41 13.12,34.141 0.55,12.808 -4.18,25.308 -13.12,34.57 -8.99,8.871 -21.29,13.629 -33.91,13.121 l -66.76,0 c -1.05,0.16 -1.95,-0.742 -1.79,-1.793 l 0,-91.129 c -0.16,-1.058 0.74,-2 1.79,-1.801 l 66.76,0 c 12.58,-0.468 24.8,4.18 33.91,12.891 z"
             style="fill:#00a8d7;fill-opacity:1;fill-rule:nonzero;stroke:none"
             id="path3436"
             inkscape:connector-curvature="0" />
          <path
             inkscape:export-ydpi="90"
             inkscape:export-xdpi="90"
             d="m -2190.952,-329.0324 c 12.85,-13.437 19.69,-31.519 18.87,-50.117 0.82,-18.48 -6.17,-36.402 -19.26,-49.492 -13.71,-12.809 -31.99,-19.527 -50.7,-18.668 l -68.91,0 c -1.05,0.149 -1.99,-0.742 -1.84,-1.801 l 0,-103.871 c 0.39,-2.687 -1.87,-4.961 -4.57,-4.609 l -15.89,0 c -2.66,-0.352 -4.93,1.922 -4.58,4.609 l 0,238.481 c -0.35,2.66 1.92,4.961 4.58,4.57 l 91.87,0 c 18.75,0.898 36.99,-6.02 50.43,-19.102 z m -18.91,-84.609 c 8.87,9.063 13.6,21.441 13.05,34.141 0.59,12.808 -4.14,25.308 -13.05,34.57 -9.02,8.871 -21.29,13.629 -33.9,13.121 l -67.19,0 c -1.05,0.16 -1.99,-0.742 -1.84,-1.793 l 0,-91.129 c -0.15,-1.058 0.79,-2 1.84,-1.801 l 66.72,0 c 12.69,-0.589 25.04,4.102 34.22,12.891 l 0.15,0 z"
             style="fill:#00a8d7;fill-opacity:1;fill-rule:nonzero;stroke:none"
             id="path3438"
             inkscape:connector-curvature="0" />
          <path
             inkscape:export-ydpi="90"
             inkscape:export-xdpi="90"
             d="m -2111.852,-552.9814 0,238.129 c -0.39,2.692 1.95,5 4.65,4.57 l 15.9,0 c 2.65,0.352 4.96,-1.918 4.57,-4.57 l 0,-219.027 c -0.16,-1.012 0.7,-1.91 1.76,-1.789 l 123.28,0 c 2.65,0.386 4.96,-1.922 4.57,-4.571 l 0,-12.742 c 0.39,-2.687 -1.92,-4.961 -4.57,-4.609 l -145.51,0 c -2.7,-0.43 -5.04,1.879 -4.65,4.609 z"
             style="fill:#00a8d7;fill-opacity:1;fill-rule:nonzero;stroke:none"
             id="path3440"
             inkscape:connector-curvature="0" />
          <path
             inkscape:export-ydpi="90"
             inkscape:export-xdpi="90"
             d="m -1897.042,-552.9814 0,238.129 c -0.39,2.652 1.91,4.922 4.57,4.57 l 15.9,0 c 2.65,0.352 4.96,-1.918 4.57,-4.57 l 0,-238.129 c 0.39,-2.687 -1.92,-4.961 -4.57,-4.609 l -15.9,0 c -2.66,-0.352 -4.96,1.922 -4.57,4.609 z"
             style="fill:#00a8d7;fill-opacity:1;fill-rule:nonzero;stroke:none"
             id="path3442"
             inkscape:connector-curvature="0" />
          <path
             inkscape:export-ydpi="90"
             inkscape:export-xdpi="90"
             d="m -1635.952,-332.5904 -128.63,0 c -1.06,0.121 -1.88,-0.781 -1.72,-1.789 l 0,-86.531 c -0.12,-1.008 0.7,-1.829 1.72,-1.75 l 90,0 c 2.65,0.39 4.92,-1.879 4.57,-4.571 l 0,-12.738 c 0.35,-2.66 -1.92,-4.961 -4.57,-4.57 l -90,0 c -1.06,0.121 -1.88,-0.782 -1.72,-1.801 l 0,-87.891 c -0.16,-1.051 0.66,-1.91 1.72,-1.828 l 128.63,0 c 2.66,0.391 4.92,-1.883 4.57,-4.57 l 0,-12.742 c 0.35,-2.649 -1.91,-4.957 -4.57,-4.571 l -150.86,0 c -2.69,-0.429 -5.04,1.883 -4.65,4.571 l 0,238.519 c -0.39,2.692 1.96,5 4.65,4.57 l 150.86,0 c 2.66,0.352 4.92,-1.918 4.57,-4.57 l 0,-12.777 c 0.66,-2.813 -1.72,-5.391 -4.57,-4.961 z"
             style="fill:#00a8d7;fill-opacity:1;fill-rule:nonzero;stroke:none"
             id="path3444"
             inkscape:connector-curvature="0" />
          <path
             inkscape:export-ydpi="90"
             inkscape:export-xdpi="90"
             d="m -1563.612,-552.9814 0,238.129 c -0.35,2.652 1.92,4.922 4.57,4.57 l 82.5,0 c 20.2,1.051 40.08,-5.507 55.67,-18.398 13.94,-12.699 21.48,-30.941 20.62,-49.801 l 0,-110.898 c 0.9,-18.871 -6.68,-37.11 -20.62,-49.813 -15.59,-12.886 -35.47,-19.41 -55.67,-18.398 l -82.5,0 c -2.65,-0.352 -4.92,1.922 -4.57,4.609 z m 26.88,17.313 61.09,0 c 13.52,-0.672 26.68,4.179 36.57,13.437 9.33,9.571 14.25,22.61 13.63,35.973 l 0,104.258 c 0.7,13.48 -4.18,26.601 -13.44,36.371 -9.88,9.289 -23.16,14.14 -36.76,13.429 l -61.09,0 c -1.21,0 -1.72,-0.582 -1.72,-1.789 l 0,-199.89 c 0,-1.211 0.51,-1.789 1.72,-1.789 z"
             style="fill:#00a8d7;fill-opacity:1;fill-rule:nonzero;stroke:none"
             id="path3446"
             inkscape:connector-curvature="0" />
          <path
             inkscape:export-ydpi="90"
             inkscape:export-xdpi="90"
             d="m -1219.352,-552.2314 c -12.03,4.641 -22.42,12.653 -30,23.082 -6.95,10.27 -10.58,22.418 -10.35,34.809 l 0,9.879 c -0.35,2.691 1.91,4.961 4.57,4.609 l 15,0 c 2.7,0.434 5.04,-1.879 4.65,-4.609 l 0,-8.481 c -0.16,-13.078 6.17,-25.386 16.95,-32.808 13.4,-9.141 29.38,-13.59 45.55,-12.77 14.69,-1.019 29.26,3.039 41.33,11.481 9.29,7.379 14.53,18.711 14.14,30.589 0.23,7.571 -2.07,15.04 -6.53,21.168 -5.46,6.832 -12.26,12.5 -20,16.641 -12.42,6.832 -25.27,12.852 -38.47,18.012 -14.06,5.429 -27.78,11.597 -41.17,18.508 -9.34,4.961 -17.43,11.961 -23.64,20.472 -6.29,9.34 -9.45,20.43 -8.98,31.641 -0.94,17.808 6.72,34.957 20.62,46.129 13.79,10.937 32.78,16.449 57.07,16.449 25.9,0 46.37,-6.129 61.41,-18.398 14.77,-11.801 23.09,-29.84 22.5,-48.75 l 0,-6.762 c 0.39,-2.649 -1.91,-4.918 -4.57,-4.57 l -15.59,0 c -2.69,-0.348 -4.96,1.921 -4.57,4.57 l 0,5.359 c 0.28,13.039 -5.62,25.461 -15.9,33.512 -13,9.488 -28.94,14.141 -45,13.129 -13.59,0.89 -27.03,-2.738 -38.35,-10.281 -9.07,-7.219 -14.03,-18.43 -13.25,-30 -0.31,-7.539 2,-14.957 6.53,-21.008 5.11,-6.102 11.52,-11.063 18.75,-14.461 8.08,-4.141 20.58,-9.488 37.5,-16.051 14.29,-5.668 28.24,-12.309 41.68,-19.809 10,-5.621 18.63,-13.281 25.43,-22.5 6.56,-9.449 9.88,-20.82 9.53,-32.3 0.58,-18.282 -7.46,-35.782 -21.76,-47.192 -14.49,-11.867 -34.65,-17.847 -60.51,-17.847 -15.27,-0.161 -30.43,2.738 -44.57,8.558 z"
             style="fill:#00a8d7;fill-opacity:1;fill-rule:nonzero;stroke:none"
             id="path3448"
             inkscape:connector-curvature="0" />
          <path
             inkscape:export-ydpi="90"
             inkscape:export-xdpi="90"
             d="m -993.452,-551.0594 c -12.15,6.168 -22.27,15.738 -29.1,27.539 -7.07,12.461 -10.67,26.602 -10.43,40.93 l 0,97.5 c -0.27,14.262 3.32,28.32 10.43,40.672 6.87,11.718 16.99,21.25 29.1,27.379 13.48,6.718 28.36003,10.078 43.44003,9.73 15.04,0.309 29.96,-2.973 43.47,-9.5 12.07,-6.012 22.15,-15.351 29.11,-26.871 7.1,-12.109 10.74,-25.941 10.43,-39.961 0,-2.109 -1.49,-3.359 -4.57,-3.828 l -15.9,-1.133 -1.06,0 c -0.86,-0.039 -1.76,0.231 -2.46,0.742 -0.66,0.469 -1.05,0.899 -1.05,1.45 l 0,2.101 c 0.66,15 -5.12,29.578 -15.9,40.039 -24.38,20.199 -59.69,20.199 -84.06003,0 -10.75,-10.43 -16.53,-24.961 -15.9,-39.879 l 0,-98.941 c -0.63,-14.961 5.15,-29.5 15.9,-39.891 24.37003,-20.148 59.64003,-20.148 84.06003,0 10.82,10.473 16.6,25.082 15.9,40.121 0,2.852 1.48,4.102 4.57,3.91 l 15.9,-0.781 c 3.08,0 4.57,-0.508 4.57,-1.719 l 0,-1.8 c 0.31,-14.18 -3.29,-28.16 -10.43,-40.43 -6.88,-11.602 -17,-20.98 -29.07,-26.988 -13.55,-6.602 -28.47,-9.852 -43.51,-9.532 -15,-0.468 -29.89003,2.649 -43.44003,9.18 l 0,-0.039 z"
             style="fill:#00a8d7;fill-opacity:1;fill-rule:nonzero;stroke:none"
             id="path3450"
             inkscape:connector-curvature="0" />
          <path
             inkscape:export-ydpi="90"
             inkscape:export-xdpi="90"
             d="m -796.65197,-552.9814 0,238.129 c -0.35,2.652 1.91,4.922 4.57,4.57 l 15.9,0 c 2.69,0.352 4.96,-1.918 4.61,-4.57 l 0,-238.129 c 0.35,-2.687 -1.92,-4.961 -4.61,-4.609 l -15.9,0 c -2.66,-0.352 -4.92,1.922 -4.57,4.609 z"
             style="fill:#00a8d7;fill-opacity:1;fill-rule:nonzero;stroke:none"
             id="path3452"
             inkscape:connector-curvature="0" />
          <path
             inkscape:export-ydpi="90"
             inkscape:export-xdpi="90"
             d="m -535.64237,-332.5904 -128.5496,0 c -1.06,0.199 -1.96,-0.738 -1.8,-1.789 l 0,-86.531 c -0.12,-1.051 0.78,-1.872 1.8,-1.75 l 89.9996,0 c 2.65,0.39 4.96,-1.879 4.57,-4.571 l 0,-12.738 c 0.39,-2.66 -1.92,-4.961 -4.57,-4.57 l -89.9996,0 c -1.06,0.16 -1.96,-0.743 -1.8,-1.801 l 0,-87.891 c -0.16,-1.051 0.74,-1.988 1.8,-1.828 l 128.5496,0 c 2.66,0.391 4.96,-1.883 4.57,-4.57 l 0,-12.742 c 0.39,-2.649 -1.91,-4.957 -4.57,-4.571 l -150.8196,0 c -2.69,-0.386 -4.96,1.922 -4.57,4.571 l 0,238.519 c -0.39,2.652 1.88,4.922 4.57,4.57 l 150.8196,0 c 2.66,0.352 4.96,-1.918 4.57,-4.57 l 0,-12.777 c 0.67,-2.813 -1.72,-5.391 -4.57,-4.961 z"
             style="fill:#00a8d7;fill-opacity:1;fill-rule:nonzero;stroke:none"
             id="path3454"
             inkscape:connector-curvature="0" />
          <path
             inkscape:export-ydpi="90"
             inkscape:export-xdpi="90"
             d="m -463.18237,-552.9814 0,238.129 c -0.58,2.813 1.88,5.313 4.73,4.762 l 15.9,0 c 2.19,0 4.18,-1.211 5.23,-3.121 l 118.71,-192.231 c 0.47,-0.66 0.98,-0.968 1.45,-0.816 0.43,0.117 0.66,0.59 0.66,1.558 l 0,189.848 c -0.39,2.692 1.96,5 4.65,4.57 l 15.9,0 c 2.66,0.352 4.96,-1.918 4.57,-4.57 l 0,-238.129 c 0.39,-2.687 -1.91,-4.961 -4.57,-4.609 l -15.9,0 c -2.19,0.039 -4.22,1.25 -5.31,3.172 l -118.79,192.886 c -0.55,0.704 -0.98,0.981 -1.45,0.903 -0.43,-0.082 -0.74,-0.672 -0.74,-1.571 l 0.35,-190.781 c 0.39,-2.687 -1.87,-4.961 -4.57,-4.609 l -16.13,0 c -2.69,-0.461 -5.12,1.84 -4.69,4.609 z"
             style="fill:#00a8d7;fill-opacity:1;fill-rule:nonzero;stroke:none"
             id="path3456"
             inkscape:connector-curvature="0" />
          <path
             inkscape:export-ydpi="90"
             inkscape:export-xdpi="90"
             d="m -179.54237,-551.0594 c -12.19,6.168 -22.31,15.738 -29.18,27.539 -7.07,12.539 -10.67,26.75 -10.43,41.168 l 0,97.262 c -0.24,14.262 3.36,28.32 10.43,40.672 6.91,11.758 17.03,21.25 29.18,27.379 13.47,6.757 28.36,10.078 43.43,9.73 15,0.309 29.89,-2.93 43.4,-9.5 12.07,-6.012 22.19,-15.312 29.180001,-26.871 7.11,-12.109 10.74,-25.941 10.43,-39.961 0,-2.109 -1.56,-3.359 -4.57,-3.828 l -15.900001,-1.133 -1.05,0 c -0.9,-0.039 -1.76,0.231 -2.46,0.742 -0.75,0.469 -1.06,0.899 -1.06,1.45 l 0,2.101 c 0.67,15 -5.11,29.578 -15.9,40.039 -24.37,20.199 -59.68,20.199 -84.06,0 -10.78,-10.43 -16.56,-24.961 -15.9,-39.879 l 0,-98.941 c -0.66,-14.961 5.12,-29.5 15.9,-39.891 11.45,-10.39 26.56,-15.777 41.99,-15 15.43,-0.699 30.55,4.692 42.07,15 10.82,10.473 16.61,25.082 15.9,40.121 0,2.852 1.49,4.102 4.57,3.91 l 15.900001,-0.781 c 3.01,0 4.57,-0.508 4.57,-1.719 l 0,-1.8 c 0.31,-14.18 -3.28,-28.16 -10.43,-40.43 -6.910001,-11.602 -17.030001,-20.98 -29.180001,-26.988 -27.5,-12.782 -59.29,-12.782 -86.83,0 l 0,-0.391 z"
             style="fill:#00a8d7;fill-opacity:1;fill-rule:nonzero;stroke:none"
             id="path3458"
             inkscape:connector-curvature="0" />
          <path
             inkscape:export-ydpi="90"
             inkscape:export-xdpi="90"
             d="m 172.63763,-332.5904 -128.589999,0 c -1.21,0 -1.76,-0.578 -1.76,-1.789 l 0,-86.531 c -0.15,-1.008 0.74,-1.911 1.76,-1.75 l 89.999999,0 c 2.66,0.39 4.92,-1.879 4.57,-4.571 l 0,-12.738 c 0.35,-2.66 -1.91,-4.961 -4.57,-4.57 l -89.999999,0 c -1.21,0 -1.76,-0.621 -1.76,-1.801 l 0,-87.891 c 0,-1.211 0.55,-1.828 1.76,-1.828 l 128.589999,0 c 2.7,0.391 4.96,-1.883 4.57,-4.57 l 0,-12.742 c 0.39,-2.649 -1.87,-4.957 -4.57,-4.571 l -151.089999,0 c -2.7,-0.429 -5.04,1.883 -4.69,4.571 l 0,238.519 c -0.54,2.774 1.88,5.274 4.69,4.762 l 150.819999,0 c 2.66,0.39 4.92,-1.871 4.57,-4.57 l 0,-12.731 c 0.82,-2.769 -1.44,-5.469 -4.3,-5.199 z"
             style="fill:#00a8d7;fill-opacity:1;fill-rule:nonzero;stroke:none"
             id="path3460"
             inkscape:connector-curvature="0" />
          <path
             inkscape:export-ydpi="90"
             inkscape:export-xdpi="90"
             d="m 272.01763,-552.2314 c -11.88,4.641 -22.19,12.692 -29.61,23.082 -7.03,10.239 -10.66,22.379 -10.43,34.809 l 0,9.879 c -0.39,2.691 1.91,4.961 4.57,4.609 l 15,0 c 2.66,0.352 4.96,-1.918 4.57,-4.609 l 0,-8.481 c -0.16,-13.078 6.17,-25.386 16.95,-32.808 13.4,-9.141 29.42,-13.59 45.63,-12.77 14.65,-1.019 29.26,3.039 41.29,11.481 9.29,7.379 14.53,18.75 14.1,30.589 0.23,7.571 -2.07,15.04 -6.52,21.168 -5.43,6.832 -12.23,12.5 -19.93,16.641 -12.46,6.801 -25.35,12.813 -38.55,18.012 -14.02,5.429 -27.74,11.597 -41.09,18.508 -9.38,4.921 -17.47,11.921 -23.72,20.472 -6.28,9.34 -9.45,20.43 -8.98,31.641 -0.94,17.808 6.76,35 20.66,46.129 13.75,10.937 32.78,16.449 57.04,16.449 25.93,0 46.44,-6.129 61.48,-18.398 14.77,-11.801 23.09,-29.84 22.5,-48.75 l 0,-6.762 c 0.39,-2.649 -1.91,-4.918 -4.57,-4.57 l -15.55,0 c -2.69,-0.43 -5,1.878 -4.65,4.57 l 0,5.359 c 0.32,13.039 -5.58,25.5 -15.89,33.512 -12.97,9.488 -28.91,14.141 -45,13.129 -13.56,0.89 -27.04,-2.738 -38.32,-10.281 -9.03,-7.219 -13.95,-18.43 -13.21,-30 -0.27,-7.539 2.03,-14.957 6.53,-21.008 5.11,-6.102 11.48,-11.063 18.67,-14.461 8.2,-4.141 20.58,-9.449 37.5,-16.051 14.33,-5.668 28.28,-12.269 41.72,-19.809 9.96,-5.621 18.63,-13.281 25.43,-22.5 6.56,-9.449 9.88,-20.82 9.53,-32.3 0.58,-18.282 -7.42,-35.739 -21.68,-47.192 -14.49,-11.867 -34.73,-17.847 -60.63,-17.847 -15.35,-0.192 -30.58,2.738 -44.84,8.558 z"
             style="fill:#00a8d7;fill-opacity:1;fill-rule:nonzero;stroke:none"
             id="path3462"
             inkscape:connector-curvature="0" />
          <path
             inkscape:export-ydpi="90"
             inkscape:export-xdpi="90"
             d="m -5457.202,319.9096 -174.691,403.01 c -2.5,6.56 -9.258,10.55 -16.207,9.49 l -58.282,0 c -7.539,1.1 -14.019,-5.39 -12.89,-12.96 l 0,-391.49 c 0,-20.47 -10.231,-30.7 -30.739,-30.74 l -242.703,0 c -20.508,0.15 -30.738,10.47 -30.738,30.97 l 0,1070.98 c 0,20.51 10.23,30.74 30.738,30.74 l 483.75,0 c 73.321,0 137.782,-15 193.321,-45 54.492,-29.22 99.421,-73.47 129.461,-127.5 30.699,-54.53 46.05,-117.38 46.05,-188.51 0,-70 -16.949,-131.49 -50.898,-184.45 -34.102,-52.78 -83.512,-93.91 -141.602,-117.82 -6.992,-1.95 -10.199,-10 -6.441,-16.21 l 197.383,-417.38 c 2.297,-5.08 3.398,-10.63 3.238,-16.17 0,-12.97 -8.629,-19.46 -25.898,-19.46 l -257.223,0 c -15.551,-1.09 -29.969,8.05 -35.629,22.5 z m -262.07,836.57 0,-179.53 c -1.129,-7.58 5.351,-14.07 12.89,-13.01 l 147.231,0 c 34.57,0 62.578,9.45 84.14,28.36 21.399,18.36 33.321,45.43 32.418,73.59 1.051,28.59 -10.859,56.17 -32.418,75 -21.562,18.91 -49.57,28.36 -84.14,28.36 l -147.231,0 c -7.461,1.02 -13.871,-5.31 -12.89,-12.77 z"
             style="fill:#5b4697;fill-opacity:1;fill-rule:nonzero;stroke:none"
             id="path3464"
             inkscape:connector-curvature="0" />
          <path
             inkscape:export-ydpi="90"
             inkscape:export-xdpi="90"
             d="m -4723.182,323.3096 -317.11,1072.5 c -1.17,3.75 -1.75,7.7 -1.64,11.6 0,15 9.22,22.5 27.5,22.5 l 262.07,0 c 16.29,1.53 31.02,-9.72 33.91,-25.86 l 132.73,-511.28 c 2.19,-5.4 5.08,-8.09 8.91,-8.09 3.83,0 6.25,2.69 7.5,8.09 l 123.01,509.64 c 5.19,18.36 16.44,27.5 33.67,27.5 l 189.18,0 c 16.33,1.57 31.09,-9.68 33.95,-25.86 l 129.45,-511.28 c 2.19,-5.4 5.12,-8.09 8.94,-8.09 3.83,0 6.14,2.69 7.5,8.09 l 120,509.64 c 2.23,16.57 16.92,28.56 33.6,27.5 l 262.5,0 c 8.51,0.86 16.87,-2.46 22.5,-8.9 4.53,-7.54 5.7,-16.6 3.2,-25.04 l -283.12,-1072.5 c -2.9,-16.13 -17.62,-27.38 -33.95,-25.9 l -247.5,0 c -19.41,0 -30.74,9.18 -33.98,27.54 l -111.61,535.51 c -2.18,5.39 -4.88,8.32 -8.08,8.9 -3.24,0.63 -5.43,-2.46 -6.49,-8.9 l -98.67,-535.51 c -1.33,-16.52 -15.82,-28.87 -32.34,-27.54 l -230.08,0 c -16.56,-1.25 -31.6,9.65 -35.55,25.74 z"
             style="fill:#5b4697;fill-opacity:1;fill-rule:nonzero;stroke:none"
             id="path3466"
             inkscape:connector-curvature="0" />
          <path
             inkscape:export-ydpi="90"
             inkscape:export-xdpi="90"
             d="m -4534.432,-979.8093 c -65,31.0898 -119.41,80.6169 -156.36,142.4999 -36.76,61.559 -55.12,132.848 -55.12,213.899 l 0,710 c 0,20.55 10.23,30.82 30.74,30.82 l 243.17,0 c 20.43,0 30.7,-10.27 30.74,-30.82 l 0,-709.84 c 0,-44.379 12.69,-79.731 38.08,-106.129 25.39,-26.41 59.18,-39.653 101.33,-39.77 41.02,0 74.22,13.52 99.69,40.59 25.43,27.027 38.12,62.027 38.09,105 l 0,710.149 c 0,20.55 10.19,30.82 30.74,30.82 l 243.16,0 c 20.51,0 30.74,-10.27 30.74,-30.82 l 0,-709.84 c 0,-81.02 -18.36,-152.301 -55.04,-213.91 -36.87,-61.68 -90.97,-111.2114 -155.62,-142.5005 -66.99,-33.5078 -144.26,-50.2695 -231.76,-50.2695 -87.5,0 -165.04,16.7188 -232.58,50.1211 z"
             style="fill:#00a8d7;fill-opacity:1;fill-rule:nonzero;stroke:none"
             id="path3468"
             inkscape:connector-curvature="0" />
          <path
             inkscape:export-ydpi="90"
             inkscape:export-xdpi="90"
             d="m -5003.452,57.4096 c -17.93,0 -35.08,-7.11 -47.73,-19.76 -12.661,-12.66 -19.77,-29.81 -19.77,-47.74 l 0,-58.039 c -0.04,-5.75 -3.359,-11.02 -8.551,-13.481 l -153.398,-73.359 c -16.02,18.519 -34.77,34.488 -55.551,47.379 28.98,0 52.5,23.519 52.5,52.5 l 0,22.5 -120,0 c -26.719,0.08 -44.801,27.23 -34.609,51.88 10.23,24.65 42.23,31.05 61.129,12.19 l 18.832,-18.68 c 10.82,-10.7 25.777,-16.17 40.937,-15 27.93,2.66 49.102,26.29 48.711,54.3 l 0,57.81 c 0,4.14 -3.359,7.5 -7.5,7.5 l -217.5,0 c -28.09,-0.04 -55.898,-5.46 -81.91,-15.97 -18.399,26.05 -58.828,18.71 -66.918,-12.15 -2.582,-9.96 -0.902,-20.63 4.648,-29.3 -30,-31.52 -48.832,-76.72 -43.32,-137.58 9.961,-111.211 75.59,-190.621 90,-262.5 10.121,-47.18 -0.82,-96.481 -30,-135 -26.84,-33.75 -62.73,-59.219 -103.441,-73.391 -59.411,21.442 -99.02,77.77 -99.059,140.891 l 0,255 c -0.781,47.39 -25.039,91.289 -64.73,117.15 -39.719,25.86 -89.68,30.31 -133.321,11.84 -43.629,-18.478 -75.231,-57.42 -84.289,-103.951 -9.11,-46.481 5.539,-94.449 39.019,-128 11.442,-11.449 29.879,-11.758 41.719,-0.75 12.152,12.191 12.152,31.922 0,44.101 -16.918,17.309 -25.309,41.25 -22.969,65.321 2.11,45.539 40.7,80.777 86.251,78.711 45.55,-2.071 80.82,-40.672 78.75,-86.211 l 0,-253.211 c 0,-84.059 50.16,-160.07 127.5,-193.121 -0.43,-50.16 -4.961,-123.75 -30.981,-153.75 -17.609,-20.629 -40.898,-35.629 -66.949,-43.129 l 123.199,-225.0002 c 2.699,-4.6406 7.742,-7.539 13.129,-7.4999 l 171.172,0 c 4.141,0 7.5,3.3593 7.5,7.4999 l 0,15 c 0,37.3086 -30.23,67.5 -67.5,67.5 l -43.672,0 c -5.387,-0.039 -10.43,2.8592 -13.129,7.5002 l -33.199,60 c 0,0 54.801,8.398 90,37.5 35.16,29.109 45,82.5 45,82.5 0,0 75,-39.371 77.301,-76.871 0.59,-17.887 -9.02,-34.61 -24.801,-43.129 l 145.551,-152.8517 c 2.847,-2.9688 6.75,-4.6484 10.898,-4.6484 l 158.551,0 c 4.141,0 7.5,3.3593 7.5,7.4999 l 0,15 c 0,37.3086 -30.23,67.5 -67.5,67.5 l -60,0 c -4.879,0 -9.41,2.3512 -12.23,6.3322 l -32.77,46.168 c 0,0 45,45 45,105 0,52.5 -90,165 -90,165 38.52,30.551 73.711,65.039 105,103.012 l 37.5,-50.512 223.24,93.68 c 5.59,2.339 9.22,7.769 9.26,13.82 l 0,162.5 c 0,4.14 -3.36,7.5 -7.5,7.5 l -15,0 c -17.93,0 -35.08,-7.11 -47.73,-19.762 -12.661,-12.656 -19.77,-29.808 -19.77,-47.738 l 0,-30 c 0,-4.141 -3.359,-7.5 -7.5,-7.5 l -101.801,0 c 7.539,21.719 11.531,44.539 11.801,67.5 0,2.5 0,4.89 0,7.5 l 183.2,183.25 c 2.85,2.808 4.42,6.64 4.42,10.66 l 0,173.59 c 0,4.14 -3.36,7.5 -7.5,7.5 l -15.12,0 z"
             style="fill:#00a8d7;fill-opacity:1;fill-rule:nonzero;stroke:none"
             id="path3470"
             inkscape:connector-curvature="0" />
        </g>
      </g>
    </g>
  </g>
</svg>
