<?xml version="1.0" encoding="UTF-8" standalone="no"?>
<!-- Created with Inkscape (http://www.inkscape.org/) -->

<svg
   xmlns:dc="http://purl.org/dc/elements/1.1/"
   xmlns:cc="http://creativecommons.org/ns#"
   xmlns:rdf="http://www.w3.org/1999/02/22-rdf-syntax-ns#"
   xmlns:svg="http://www.w3.org/2000/svg"
   xmlns="http://www.w3.org/2000/svg"
   xmlns:sodipodi="http://sodipodi.sourceforge.net/DTD/sodipodi-0.dtd"
   xmlns:inkscape="http://www.inkscape.org/namespaces/inkscape"
   width="131mm"
   height="75mm"
   viewBox="0 0 464.17329 265.74796"
   id="svg2"
   version="1.1"
   inkscape:version="0.91 r13725"
   sodipodi:docname="solidangle_ex.svg">
  <defs
     id="defs4">
    <marker
       inkscape:isstock="true"
       style="overflow:visible;"
       id="marker9493"
       refX="0.0"
       refY="0.0"
       orient="auto"
       inkscape:stockid="Arrow2Send">
      <path
         transform="scale(0.3) rotate(180) translate(-2.3,0)"
         d="M 8.7185878,4.0337352 L -2.2072895,0.016013256 L 8.7185884,-4.0017078 C 6.9730900,-1.6296469 6.9831476,1.6157441 8.7185878,4.0337352 z "
         style="fill-rule:evenodd;stroke-width:0.625;stroke-linejoin:round;stroke:#3301ff;stroke-opacity:1;fill:#3301ff;fill-opacity:1"
         id="path9495" />
    </marker>
    <marker
       inkscape:stockid="Arrow2Send"
       orient="auto"
       refY="0.0"
       refX="0.0"
       id="Arrow2Send"
       style="overflow:visible;"
       inkscape:isstock="true"
       inkscape:collect="always">
      <path
         id="path4972"
         style="fill-rule:evenodd;stroke-width:0.625;stroke-linejoin:round;stroke:#01fcff;stroke-opacity:1;fill:#01fcff;fill-opacity:1"
         d="M 8.7185878,4.0337352 L -2.2072895,0.016013256 L 8.7185884,-4.0017078 C 6.9730900,-1.6296469 6.9831476,1.6157441 8.7185878,4.0337352 z "
         transform="scale(0.3) rotate(180) translate(-2.3,0)" />
    </marker>
    <marker
       inkscape:stockid="Arrow1Send"
       orient="auto"
       refY="0.0"
       refX="0.0"
       id="Arrow1Send"
       style="overflow:visible;"
       inkscape:isstock="true">
      <path
         id="path4954"
         d="M 0.0,0.0 L 5.0,-5.0 L -12.5,0.0 L 5.0,5.0 L 0.0,0.0 z "
         style="fill-rule:evenodd;stroke:#01fcff;stroke-width:1pt;stroke-opacity:1;fill:#01fcff;fill-opacity:1"
         transform="scale(0.2) rotate(180) translate(6,0)" />
    </marker>
    <marker
       inkscape:isstock="true"
       style="overflow:visible;"
       id="marker5221"
       refX="0.0"
       refY="0.0"
       orient="auto"
       inkscape:stockid="Arrow2Mend">
      <path
         transform="scale(0.6) rotate(180) translate(0,0)"
         d="M 8.7185878,4.0337352 L -2.2072895,0.016013256 L 8.7185884,-4.0017078 C 6.9730900,-1.6296469 6.9831476,1.6157441 8.7185878,4.0337352 z "
         style="fill-rule:evenodd;stroke-width:0.625;stroke-linejoin:round;stroke:#01fcff;stroke-opacity:1;fill:#01fcff;fill-opacity:1"
         id="path5223" />
    </marker>
    <inkscape:perspective
       sodipodi:type="inkscape:persp3d"
       inkscape:vp_x="0 : 526.18099 : 1"
       inkscape:vp_y="0 : 999.99976 : 0"
       inkscape:vp_z="744.09462 : 526.18099 : 1"
       inkscape:persp3d-origin="372.04732 : 350.78726 : 1"
       id="perspective4155" />
  </defs>
  <sodipodi:namedview
     id="base"
     pagecolor="#ffffff"
     bordercolor="#666666"
     borderopacity="1.0"
     inkscape:pageopacity="0.0"
     inkscape:pageshadow="2"
     inkscape:zoom="1.979899"
     inkscape:cx="267.09713"
     inkscape:cy="185.72074"
     inkscape:document-units="px"
     inkscape:current-layer="layer1"
     showgrid="false"
     inkscape:window-width="1855"
     inkscape:window-height="1176"
     inkscape:window-x="65"
     inkscape:window-y="24"
     inkscape:window-maximized="1" />
  <metadata
     id="metadata7">
    <rdf:RDF>
      <cc:Work
         rdf:about="">
        <dc:format>image/svg+xml</dc:format>
        <dc:type
           rdf:resource="http://purl.org/dc/dcmitype/StillImage" />
        <dc:title />
      </cc:Work>
    </rdf:RDF>
  </metadata>
  <g
     inkscape:label="Layer 1"
     inkscape:groupmode="layer"
     id="layer1"
     transform="translate(0,-786.61434)">
    <path
       style="fill:none;stroke:#000000;stroke-width:1.46800005;stroke-miterlimit:4;stroke-dasharray:2.93600011, 2.93600011;stroke-dashoffset:0;stroke-opacity:1"
       d="m 23.642921,1015.6019 c 10e-6,-19.05479 93.157529,-34.50174 208.073149,-34.50174 114.91562,0 208.07314,15.44695 208.07315,34.50174"
       id="ellipse4958"
       inkscape:connector-curvature="0"
       sodipodi:nodetypes="ccc" />
    <path
       style="fill:#000000;fill-rule:evenodd;stroke:none;stroke-width:1px;stroke-linecap:butt;stroke-linejoin:miter;stroke-opacity:1"
       d="m 248.13829,909.12869 0,24.24367 -10.84711,-6.46498 0,6.46498 -22.48792,0 0,-23.8396 22.22335,0 0,6.26294 z"
       id="path4943"
       inkscape:connector-curvature="0"
       sodipodi:nodetypes="ccccccccc" />
    <path
       style="fill:none;fill-rule:evenodd;stroke:#000000;stroke-width:1.00000012;stroke-linecap:butt;stroke-linejoin:miter;stroke-miterlimit:4;stroke-dasharray:4.00000048, 2.00000024, 1.00000012, 2.00000024;stroke-dashoffset:0;stroke-opacity:1"
       d="M 31.649534,833.45992 441.00178,1012.4769"
       id="path4949"
       inkscape:connector-curvature="0"
       sodipodi:nodetypes="cc" />
    <path
       style="fill:none;fill-rule:evenodd;stroke:#000000;stroke-width:1.00000012;stroke-linecap:butt;stroke-linejoin:miter;stroke-miterlimit:4;stroke-dasharray:4.00000048, 2.00000024, 1.00000012, 2.00000024;stroke-dashoffset:0;stroke-opacity:1"
       d="M 22.430354,1015.3341 430.46607,834.17335"
       id="path4951"
       inkscape:connector-curvature="0"
       sodipodi:nodetypes="cc" />
    <path
       style="fill:#e3fff5;fill-opacity:1;stroke:none;stroke-width:2.70471454;stroke-miterlimit:4;stroke-dasharray:2.93600011, 2.93600011;stroke-dashoffset:0;stroke-opacity:1"
       d="m 194.06495,857.77125 c -62.4335,-2.13708 -112.694939,-8.76954 -143.690259,-17.68419 -13.49989,-3.88274 -23.08677,-8.81882 -25.66174,-13.21268 -1.19196,-2.03392 -1.24635,-2.37827 -0.6762,-4.28124 3.2268,-10.77009 39.40515,-21.00342 95.106409,-26.90159 92.21963,-9.76507 214.28791,-6.09097 279.62164,8.41629 22.82089,5.06734 37.09978,11.11097 40.13961,16.98934 2.32092,4.48817 -0.62038,8.4321 -9.60218,12.8753 -16.08036,7.95479 -46.22526,14.7125 -88.35912,18.94289 -17.37471,1.74448 -36.86223,2.65163 -58.12592,3.67917 -14.48657,0.70005 -73.08416,1.71303 -88.75224,1.17671 z"
       id="path4971"
       inkscape:connector-curvature="0"
       sodipodi:nodetypes="sssssssssss" />
    <ellipse
       style="fill:none;stroke:#000000;stroke-width:1.46798301;stroke-miterlimit:4;stroke-dasharray:none;stroke-dashoffset:0;stroke-opacity:1"
       id="path4945"
       cx="231.71605"
       cy="823.90552"
       rx="208.07315"
       ry="34.501724" />
    <path
       style="fill:none;stroke:#000000;stroke-width:1.46798301;stroke-miterlimit:4;stroke-dasharray:none;stroke-dashoffset:0;stroke-opacity:1"
       d="m 439.78922,1015.3341 c 2e-5,19.0548 -93.15751,34.5017 -208.07315,34.5017 -114.91564,0 -208.073169,-15.4469 -208.073149,-34.5017"
       id="ellipse4947"
       inkscape:connector-curvature="0"
       sodipodi:nodetypes="ccc" />
    <path
       style="fill:none;stroke:#000000;stroke-width:1.39113486;stroke-miterlimit:4;stroke-dasharray:none;stroke-dashoffset:0;stroke-opacity:1"
       d="m 439.75578,822.10683 c 29.09023,62.02422 28.87748,134.34163 -0.54684,196.18327 m -414.16215,1.1224 C -5.0690955,957.0099 -5.2759758,883.84138 24.331902,821.32231"
       id="path4955"
       inkscape:connector-curvature="0"
       sodipodi:nodetypes="cccc" />
    <path
       style="opacity:0.531;fill:#7affd3;fill-opacity:1;stroke:none;stroke-width:2.70471454;stroke-miterlimit:4;stroke-dasharray:1.48290399, 1.48290399;stroke-dashoffset:0;stroke-opacity:1"
       d="m 203.42514,1049.0506 c -76.29117,-1.6486 -143.394439,-10.8012 -168.673489,-23.0064 -6.99123,-3.3755 -8.58183,-4.8316 -11.02768,-10.0951 -24.09211993,-51.84739 -27.77483,-111.55826 -10.26449,-166.42728 2.51234,-7.8725 8.28256,-22.8321 8.80278,-22.82171 0.19999,-1.24064 1.78134,-1.56419 2.35637,0.86374 0.53637,2.26465 6.21127,6.34714 10.56736,8.29456 51.51458,23.02989 224.621549,30.59863 335.390769,14.37817 27.26353,-3.99233 46.73475,-9.07628 58.81309,-14.88269 5.64519,-2.7138 9.98594,-7.38437 10.63582,-9.43197 0.45383,-1.42987 1.52024,0.40807 3.36799,4.83334 17.72916,42.46044 22.28547,89.01869 13.1555,134.42838 -3.64694,18.13881 -9.33986,35.55026 -16.53125,50.55986 -2.506,5.2304 -4.04542,6.6603 -10.83213,10.0617 -31.07056,15.5719 -126.44086,25.3917 -225.76064,23.2454 z"
       id="path4969"
       inkscape:connector-curvature="0"
       sodipodi:nodetypes="sssscssssssssss" />
    <path
       style="fill:none;fill-rule:evenodd;stroke:#01fcff;stroke-width:4.0704608;stroke-linecap:butt;stroke-linejoin:miter;stroke-miterlimit:4;stroke-dasharray:none;stroke-opacity:1;marker-end:url(#Arrow2Send)"
       d="m 461.42544,921.73184 c 0,-43.0311 -9.60704,-74.63207 -18.28436,-93.12199"
       id="path4145"
       inkscape:connector-curvature="0" />
    <path
       style="fill:none;fill-rule:evenodd;stroke:#3301ff;stroke-width:3.26450682;stroke-linecap:butt;stroke-linejoin:miter;stroke-opacity:1;marker-end:url(#marker9493)"
       d="m 231.39551,858.29821 c 117.77951,-0.26559 174.297,-11.96186 197.34771,-22.88225 5.37031,-2.54421 7.42098,-6.5354 9.76487,-9.13775"
       id="path4149"
       inkscape:connector-curvature="0"
       sodipodi:nodetypes="csc" />
    <text
       xml:space="preserve"
       style="font-style:italic;font-variant:normal;font-weight:normal;font-stretch:normal;font-size:30px;line-height:125%;font-family:'Liberation Serif';-inkscape-font-specification:'Liberation Serif, Italic';text-align:start;letter-spacing:0px;word-spacing:0px;writing-mode:lr-tb;text-anchor:start;fill:#000000;fill-opacity:1;stroke:none;stroke-width:1px;stroke-linecap:butt;stroke-linejoin:miter;stroke-opacity:1"
       x="342.60959"
       y="843.67517"
       id="text9692-3"
       sodipodi:linespacing="125%"
       inkscape:export-xdpi="90"
       inkscape:export-ydpi="90"><tspan
         sodipodi:role="line"
         id="tspan9694-6"
         x="342.60959"
         y="843.67517">θ</tspan></text>
    <text
       sodipodi:linespacing="125%"
       id="text9725-7"
       y="888.01849"
       x="426.04794"
       style="font-style:italic;font-variant:normal;font-weight:normal;font-stretch:normal;font-size:30px;line-height:125%;font-family:'Liberation Serif';-inkscape-font-specification:'Liberation Serif, Italic';text-align:start;letter-spacing:0px;word-spacing:0px;writing-mode:lr-tb;text-anchor:start;fill:#000000;fill-opacity:1;stroke:none;stroke-width:1px;stroke-linecap:butt;stroke-linejoin:miter;stroke-opacity:1"
       xml:space="preserve"
       inkscape:export-xdpi="90"
       inkscape:export-ydpi="90"><tspan
         y="888.01849"
         x="426.04794"
         id="tspan9727-5"
         sodipodi:role="line">φ</tspan></text>
  </g>
</svg>
