<?xml version="1.0" encoding="UTF-8" standalone="no"?>
<!-- Created with Inkscape (http://www.inkscape.org/) -->

<svg
   xmlns:dc="http://purl.org/dc/elements/1.1/"
   xmlns:cc="http://creativecommons.org/ns#"
   xmlns:rdf="http://www.w3.org/1999/02/22-rdf-syntax-ns#"
   xmlns:svg="http://www.w3.org/2000/svg"
   xmlns="http://www.w3.org/2000/svg"
   xmlns:sodipodi="http://sodipodi.sourceforge.net/DTD/sodipodi-0.dtd"
   xmlns:inkscape="http://www.inkscape.org/namespaces/inkscape"
   width="157mm"
   height="51mm"
   viewBox="0 0 556.29921 180.70866"
   id="svg2"
   version="1.1"
   inkscape:version="0.91 r13725"
   sodipodi:docname="logo_iphos.svg">
  <defs
     id="defs4" />
  <sodipodi:namedview
     id="base"
     pagecolor="#ffffff"
     bordercolor="#666666"
     borderopacity="1.0"
     inkscape:pageopacity="0.0"
     inkscape:pageshadow="2"
     inkscape:zoom="2"
     inkscape:cx="345.69004"
     inkscape:cy="102.83383"
     inkscape:document-units="px"
     inkscape:current-layer="g6560"
     showgrid="false"
     showguides="true"
     inkscape:guide-bbox="true"
     inkscape:window-width="1855"
     inkscape:window-height="1176"
     inkscape:window-x="1985"
     inkscape:window-y="24"
     inkscape:window-maximized="1" />
  <metadata
     id="metadata7">
    <rdf:RDF>
      <cc:Work
         rdf:about="">
        <dc:format>image/svg+xml</dc:format>
        <dc:type
           rdf:resource="http://purl.org/dc/dcmitype/StillImage" />
        <dc:title></dc:title>
      </cc:Work>
    </rdf:RDF>
  </metadata>
  <g
     inkscape:label="Layer 1"
     inkscape:groupmode="layer"
     id="layer1"
     transform="translate(0,-871.65354)">
    <text
       xml:space="preserve"
       style="font-style:normal;font-variant:normal;font-weight:normal;font-stretch:semi-condensed;font-size:40px;line-height:125%;font-family:'Barlow Semi Condensed';-inkscape-font-specification:'Barlow Semi Condensed,  Semi-Condensed';letter-spacing:0px;word-spacing:0px;fill:#000000;fill-opacity:1;stroke:none;stroke-width:1px;stroke-linecap:butt;stroke-linejoin:miter;stroke-opacity:1"
       x="136.87567"
       y="590.72247"
       id="text5038"
       sodipodi:linespacing="125%"><tspan
         sodipodi:role="line"
         id="tspan5040"
         x="136.87567"
         y="590.72247"></tspan></text>
    <g
       id="g6560"
       transform="translate(35.355339,902.26825)">
      <g
         id="g6552" />
      <g
         id="g6695"
         transform="matrix(0.99956152,0,0,0.99956152,0.16177124,-1.7058407)">
        <g
           transform="translate(-79.952822,218.67355)"
           id="g6686">
          <path
             inkscape:connector-curvature="0"
             id="path3470-5-6"
             style="display:inline;fill:#00a8d7;fill-opacity:1;fill-rule:nonzero;stroke:none"
             d="m 121.6196,-241.49537 c -1.29833,0 -2.54018,0.51279 -3.45618,1.42508 -0.91678,0.91301 -1.43154,2.14989 -1.43154,3.44306 l 0,4.18586 c -0.003,0.41471 -0.24322,0.79477 -0.61919,0.9723 l -11.10764,5.29069 c -1.16001,-1.33564 -2.51769,-2.48726 -4.02247,-3.41701 2.09846,0 3.80156,-1.69626 3.80156,-3.78635 l 0,-1.62273 -8.68926,0 c -1.93475,-0.0101 -3.24408,-1.96386 -2.50606,-3.74167 0.74076,-1.77784 3.0579,-2.23933 4.42637,-0.87916 l 1.36364,1.34718 c 0.78348,0.77176 1.86653,1.16624 2.96427,1.08188 2.02243,-0.19191 3.55552,-1.89613 3.5272,-3.91625 l 0,-4.16924 c 0,-0.29862 -0.24323,-0.54094 -0.54308,-0.54094 l -15.74932,0 c -2.03398,0.0101 -4.04758,0.39379 -5.93112,1.15174 -1.33229,-1.87871 -4.25978,-1.34939 -4.84559,0.8763 -0.18696,0.71826 -0.0652,1.48782 0.33658,2.11313 -2.17232,2.27329 -3.53596,5.53312 -3.13682,9.92252 0.72127,8.02058 5.47351,13.74776 6.51694,18.93174 0.73286,3.40266 -0.0594,6.95831 -2.17232,9.7364 -1.9435,2.43407 -4.54232,4.2709 -7.49022,5.29298 -4.30197,-1.5464 -7.17009,-5.60884 -7.17293,-10.16112 l 0,-18.39101 c -0.0565,-3.41778 -1.81307,-6.58386 -4.68712,-8.44893 -2.87609,-1.86507 -6.49377,-2.18604 -9.65385,-0.85401 -3.15922,1.33276 -5.44752,4.14127 -6.10341,7.49719 -0.65965,3.35217 0.40109,6.81175 2.8254,9.23151 0.82851,0.82564 2.16354,0.84787 3.02088,0.0542 0.87994,-0.87926 0.87994,-2.30225 0,-3.18058 -1.22505,-1.2484 -1.83263,-2.97504 -1.66318,-4.71109 0.15286,-3.28425 2.94708,-5.82562 6.24546,-5.67676 3.2983,0.14934 5.85225,2.93345 5.70233,6.21772 l 0,18.26187 c 0,6.06244 3.63213,11.54446 9.23234,13.92816 -0.0313,3.61755 -0.3592,8.92496 -2.24334,11.08856 -1.27506,1.48782 -2.96143,2.5697 -4.8478,3.11055 l 8.92089,16.2273 c 0.19544,0.33468 0.56062,0.54375 0.95069,0.54096 l 12.39466,0 c 0.29985,0 0.54307,-0.24234 0.54307,-0.54096 l 0,-1.08179 c 0,-2.69073 -2.18897,-4.86826 -4.88771,-4.86826 l -3.1623,0 c -0.39009,0.0101 -0.75526,-0.20617 -0.95069,-0.54094 l -2.40396,-4.32721 c 0,0 3.96817,-0.60567 6.51695,-2.70455 2.54596,-2.09936 3.25849,-5.95004 3.25849,-5.95004 0,0 5.43077,2.83948 5.5974,5.54403 0.0427,1.29007 -0.65315,2.49618 -1.79586,3.11056 l 10.53942,11.02388 c 0.20617,0.21406 0.48878,0.33528 0.78913,0.33528 l 11.48078,0 c 0.29985,0 0.54307,-0.24234 0.54307,-0.54096 l 0,-1.08179 c 0,-2.69073 -2.18896,-4.86826 -4.88773,-4.86826 l -4.34461,0 c -0.35329,0 -0.68138,-0.16959 -0.88559,-0.45669 l -2.3729,-3.32966 c 0,0 3.25849,-3.24541 3.25849,-7.57269 0,-3.78635 -6.51694,-11.9 -6.51694,-11.9 2.78926,-2.20336 5.33744,-4.69072 7.60309,-7.42944 l 2.71542,3.6431 16.1649,-6.75637 c 0.40479,-0.1687 0.66764,-0.56028 0.67054,-0.99664 l 0,-11.71978 c 0,-0.29862 -0.2433,-0.54096 -0.54308,-0.54096 l -1.08615,0 c -1.29833,0 -2.54018,0.51279 -3.45618,1.42531 -0.91678,0.91281 -1.43154,2.14988 -1.43154,3.44295 l 0,2.1636 c 0,0.29872 -0.24322,0.54095 -0.54309,0.54095 l -7.37146,0 c 0.5459,-1.56646 0.83497,-3.21216 0.85451,-4.86816 0,-0.18023 0,-0.35272 0,-0.54094 l 13.26562,-13.21622 c 0.20638,-0.20254 0.32006,-0.47883 0.32006,-0.76884 l 0,-12.51949 c 0,-0.29852 -0.24331,-0.54084 -0.54307,-0.54084 l -1.09485,0 z"
             inkscape:export-xdpi="90"
             inkscape:export-ydpi="90" />
          <path
             style="opacity:1;fill:#00a8d7;fill-opacity:1;stroke:none;stroke-width:0.01;stroke-linejoin:miter;stroke-miterlimit:4;stroke-dasharray:none;stroke-dashoffset:0;stroke-opacity:1"
             d="m 137.72049,-245.74666 c -0.12854,0 -0.25392,0.0125 -0.375,0.0371 -0.24217,0.0492 -0.46648,0.14622 -0.66406,0.2793 -0.19758,0.13308 -0.36864,0.30265 -0.50196,0.5 -2.8e-4,4.2e-4 2.9e-4,0.002 0,0.002 -0.0662,0.0983 -0.12324,0.20196 -0.16992,0.3125 -2.2e-4,5.4e-4 2.3e-4,0.001 0,0.002 -0.0465,0.11056 -0.0848,0.22724 -0.10937,0.34765 -1.3e-4,6.2e-4 1.2e-4,0.001 0,0.002 -0.0244,0.12046 -0.0371,0.24518 -0.0371,0.37305 0,6.6e-4 0,0.001 0,0.002 l 0,16.34961 0,0.002 c 1.3e-4,0.12784 0.0126,0.25259 0.0371,0.37304 1.2e-4,6.3e-4 -1.3e-4,0.001 0,0.002 0.0247,0.12042 0.0627,0.23705 0.10937,0.34765 2.4e-4,5.7e-4 -2.4e-4,0.001 0,0.002 0.0468,0.11058 0.10359,0.21418 0.16992,0.3125 3.3e-4,4.7e-4 -3.2e-4,0.001 0,0.002 0.13319,0.19705 0.30479,0.36697 0.50196,0.5 0.19758,0.13308 0.42189,0.23004 0.66406,0.2793 0.12108,0.0247 0.24646,0.0371 0.375,0.0371 l 17.56836,0 c 1.19781,0 1.88281,1.00574 1.88281,1.87304 l 0,37.25 c 0,0.8673 -0.685,1.87305 -1.88281,1.87305 l -17.56836,0 c -0.12854,0 -0.25392,0.0125 -0.375,0.0371 -0.24217,0.0493 -0.46648,0.14621 -0.66406,0.2793 -0.19758,0.13308 -0.36864,0.30264 -0.50196,0.5 -2.8e-4,4.1e-4 2.9e-4,0.002 0,0.002 -0.0662,0.0983 -0.12324,0.20196 -0.16992,0.3125 -2.2e-4,5.3e-4 2.3e-4,0.001 0,0.002 -0.0465,0.11057 -0.0848,0.22724 -0.10937,0.34766 -1.3e-4,6.1e-4 1.2e-4,0.001 0,0.002 -0.0244,0.12045 -0.0371,0.24517 -0.0371,0.37305 0,6.6e-4 0,0.001 0,0.002 l 0,16.34961 0,0.002 c 1.3e-4,0.12785 0.0126,0.25259 0.0371,0.37305 1.2e-4,6.3e-4 -1.3e-4,0.001 0,0.002 0.0247,0.12043 0.0627,0.23706 0.10937,0.34766 2.4e-4,5.7e-4 -2.4e-4,0.001 0,0.002 0.0468,0.11058 0.10359,0.21419 0.16992,0.3125 3.3e-4,4.8e-4 -3.2e-4,10e-4 0,0.002 0.13319,0.19705 0.30479,0.36697 0.50196,0.5 0.19758,0.13308 0.42189,0.23004 0.66406,0.27929 0.12108,0.0247 0.24646,0.0371 0.375,0.0371 l 62.00391,0 c 0.12854,0 0.25397,-0.0124 0.375,-0.0371 0.24206,-0.0492 0.46671,-0.14621 0.66406,-0.27929 0.49338,-0.33329 0.81641,-0.89833 0.81641,-1.54102 l 0,-16.34961 c 0,-0.64269 -0.32303,-1.20773 -0.81641,-1.54101 -0.19735,-0.13309 -0.422,-0.23005 -0.66406,-0.2793 -0.12103,-0.0247 -0.24646,-0.0371 -0.375,-0.0371 l -17.93555,0 c -1.03757,0 -1.86719,-0.83702 -1.86719,-1.87695 l 0,-37.24219 c 0,-1.03993 0.82962,-1.87695 1.86719,-1.87695 l 17.93555,0 c 0.12854,0 0.25397,-0.0124 0.375,-0.0371 0.24206,-0.0493 0.46671,-0.14622 0.66406,-0.2793 0.49338,-0.33328 0.81641,-0.89832 0.81641,-1.54102 l 0,-16.34961 c 0,-0.64269 -0.32303,-1.20773 -0.81641,-1.54101 -0.19735,-0.13308 -0.422,-0.23005 -0.66406,-0.2793 -0.12103,-0.0246 -0.24646,-0.0371 -0.375,-0.0371 l -62.00391,0 z"
             id="rect6177-8"
             inkscape:connector-curvature="0" />
          <path
             inkscape:connector-curvature="0"
             style="opacity:1;fill:#5b4697;fill-opacity:1;stroke:none;stroke-width:20.27480316;stroke-linejoin:miter;stroke-miterlimit:4;stroke-dasharray:none;stroke-dashoffset:0;stroke-opacity:1"
             d="m 78.32664,-153.07642 c -1.03011,0 -1.93868,0.81639 -1.93868,1.9407 l 0,8.56501 c -8.55153,0.8952 -15.07639,2.9219 -20.0573,6.23132 -6.68044,4.43863 -10.38784,10.7324 -11.48619,19.49413 -0.23164,1.84728 -0.32776,7.1722 -0.16814,9.37127 0.55443,7.64308 2.82281,13.22062 7.22394,17.77019 1.54034,1.59226 2.54868,2.43544 4.44458,3.70111 4.96211,3.31265 11.34356,5.28853 20.04311,6.21916 l 0,2.72671 0.002,0 0,5.82615 c 0,1.1243 0.90857,1.9407 1.93867,1.9407 l 18.3921,0 c 1.0237,0 1.92545,-0.80696 1.93665,-1.92045 l 0,-8.56906 c 9.41479,-1.00655 16.30827,-3.33551 21.5422,-7.28676 4.92282,-3.71635 8.26397,-9.19455 9.50093,-15.5722 1.00121,-5.16121 0.99654,-12.23654 -0.0142,-17.1665 -1.12231,-5.47626 -3.56165,-10.0076 -7.3313,-13.61529 -5.24575,-5.02033 -12.92113,-8.01246 -23.61458,-9.15656 -0.0296,7e-4 -0.0533,0.005 -0.0831,0.006 l 0,-0.0162 0,-8.54882 c 0,-1.1243 -0.90857,-1.94069 -1.93867,-1.94069 l -8.7048,0 -9.6873,0 z m -1.93868,30.405 0,23.00076 c -4.62319,-0.67208 -7.99971,-1.78638 -9.84937,-3.30203 -1.03944,-0.85175 -1.66741,-2.20127 -1.96703,-4.24808 -0.3838,-2.62124 -0.31377,-6.64893 0.14788,-8.76353 0.51091,-2.3403 1.44801,-3.46971 3.80847,-4.59044 2.01276,-0.95563 4.59449,-1.63874 7.86005,-2.09668 z m 22.26945,0.008 c 4.07966,0.59434 7.27602,1.54047 9.13021,2.79963 1.45837,0.99035 2.11585,2.0321 2.53831,4.02118 0.18772,0.88412 0.24542,1.6376 0.29374,3.8186 0.0865,3.89983 -0.173,5.92828 -0.96225,7.54201 -1.11285,2.27557 -4.94508,3.91131 -11.00001,4.79706 l 0,-22.97848 z"
             id="path6290-3" />
          <path
             sodipodi:nodetypes="ccsscccsssssssssscc"
             inkscape:connector-curvature="0"
             id="path6351"
             d="m 152.35266,-72.02089 c -8.46206,-3.84133 -14.3128,-12.18276 -14.32228,-20.41933 l -0.005,-3.704 c -0.001,-0.92595 0.72702,-1.9305 1.92206,-1.9305 l 8.47033,0 6.56748,0 c 3.09617,0 3.82739,-0.20713 3.82739,2.50443 0,6.38881 14.73453,10.50428 19.03897,5.31775 3.50973,-4.22897 0.98729,-6.88103 -9.74347,-10.24428 -22.46655,-7.04146 -30.08525,-13.74708 -30.08525,-26.47955 0,-13.87453 6.26634,-21.10686 21.64238,-24.97859 16.68825,-4.20214 34.96967,4.20717 39.75395,18.28655 3.37302,9.92626 2.1966,11.34291 -9.41947,11.34291 -9.10241,0 -10.11638,-0.37718 -11.05373,-4.11188 -1.40347,-5.59181 -10.11217,-9.19077 -15.88024,-6.56265 -9.24526,4.2124 -2.09212,10.58327 18.55227,16.52335 20.5543,5.91417 26.63088,25.89536 12.10685,39.81026 -8.91561,8.54169 -28.05601,10.69084 -41.37326,4.64553 z"
             style="fill:#5b4697;fill-opacity:1" />
          <text
             sodipodi:linespacing="0%"
             id="text4539-0-6-6"
             y="-165.1443"
             x="220.39932"
             style="font-style:normal;font-variant:normal;font-weight:normal;font-stretch:semi-condensed;font-size:15.18560505px;line-height:0%;font-family:'Barlow Semi Condensed';-inkscape-font-specification:'Barlow Semi Condensed, Semi-Condensed';text-align:start;letter-spacing:0.56234616px;word-spacing:0px;writing-mode:lr-tb;text-anchor:start;display:inline;fill:#423f3f;fill-opacity:0.97254902;stroke:none;stroke-width:1.26546705px;stroke-linecap:butt;stroke-linejoin:miter;stroke-miterlimit:4;stroke-dasharray:2.66550817, 5.33101635;stroke-dashoffset:0;stroke-opacity:1"
             xml:space="preserve"><tspan
               id="tspan4591-2-0-8"
               style="font-style:normal;font-variant:normal;font-weight:normal;font-stretch:semi-condensed;font-size:44.76895905px;line-height:100%;font-family:'Barlow Semi Condensed';-inkscape-font-specification:'Barlow Semi Condensed, Semi-Condensed';text-align:start;letter-spacing:0.56234616px;writing-mode:lr-tb;text-anchor:start;fill:#333333;fill-opacity:0.97254902;stroke-width:1.26546705px"
               y="-165.1443"
               x="220.39932"
               sodipodi:role="line">Institut für</tspan><tspan
               id="tspan4595-5-0-5"
               style="font-style:normal;font-variant:normal;font-weight:normal;font-stretch:semi-condensed;font-size:44.76895905px;line-height:100%;font-family:'Barlow Semi Condensed';-inkscape-font-specification:'Barlow Semi Condensed, Semi-Condensed';text-align:start;letter-spacing:0.56234616px;writing-mode:lr-tb;text-anchor:start;fill:#333333;fill-opacity:0.97254902;stroke-width:1.26546705px"
               y="-120.37534"
               x="220.39932"
               sodipodi:role="line">Photonische Systeme</tspan></text>
        </g>
      </g>
    </g>
  </g>
</svg>
